MetaMessage('set_tempo', tempo=500000, time=0)
program_change channel=0 program=0 time=0
note_on channel=0 note=87 velocity=22 time=0
note_on channel=0 note=56 velocity=20 time=1
note_on channel=0 note=84 velocity=25 time=1
note_on channel=0 note=80 velocity=16 time=2
note_off channel=0 note=56 velocity=64 time=3
note_off channel=0 note=80 velocity=64 time=0
note_off channel=0 note=84 velocity=64 time=0
note_off channel=0 note=87 velocity=64 time=0
note_on channel=0 note=84 velocity=35 time=10
note_on channel=0 note=63 velocity=20 time=1
note_on channel=0 note=72 velocity=33 time=0
note_on channel=0 note=87 velocity=15 time=0
note_on channel=0 note=91 velocity=36 time=0
note_on channel=0 note=94 velocity=32 time=0
note_on channel=0 note=75 velocity=28 time=1
note_on channel=0 note=60 velocity=26 time=1
note_on channel=0 note=79 velocity=51 time=0
note_on channel=0 note=82 velocity=23 time=0
note_on channel=0 note=100 velocity=12 time=0
note_off channel=0 note=87 velocity=64 time=1
note_on channel=0 note=88 velocity=31 time=0
note_off channel=0 note=63 velocity=64 time=2
note_off channel=0 note=84 velocity=64 time=1
note_off channel=0 note=88 velocity=64 time=0
note_off channel=0 note=100 velocity=64 time=0
note_off channel=0 note=60 velocity=64 time=1
note_off channel=0 note=72 velocity=64 time=0
note_off channel=0 note=75 velocity=64 time=0
note_off channel=0 note=82 velocity=64 time=0
note_off channel=0 note=79 velocity=64 time=1
note_off channel=0 note=91 velocity=64 time=0
note_off channel=0 note=94 velocity=64 time=0
note_on channel=0 note=56 velocity=24 time=11
note_on channel=0 note=87 velocity=27 time=0
note_on channel=0 note=92 velocity=11 time=0
note_on channel=0 note=84 velocity=28 time=1
note_on channel=0 note=80 velocity=22 time=2
note_off channel=0 note=56 velocity=64 time=4
note_off channel=0 note=80 velocity=64 time=0
note_off channel=0 note=84 velocity=64 time=0
note_off channel=0 note=87 velocity=64 time=0
note_off channel=0 note=92 velocity=64 time=0
note_on channel=0 note=63 velocity=25 time=10
note_on channel=0 note=75 velocity=31 time=1
note_on channel=0 note=91 velocity=33 time=0
note_on channel=0 note=94 velocity=40 time=0
note_on channel=0 note=72 velocity=25 time=1
note_on channel=0 note=84 velocity=26 time=0
note_on channel=0 note=82 velocity=28 time=1
note_on channel=0 note=87 velocity=32 time=0
note_on channel=0 note=70 velocity=15 time=1
note_on channel=0 note=60 velocity=18 time=1
note_on channel=0 note=79 velocity=35 time=0
note_on channel=0 note=51 velocity=14 time=1
note_off channel=0 note=70 velocity=64 time=1
note_off channel=0 note=84 velocity=64 time=0
note_off channel=0 note=51 velocity=64 time=2
note_off channel=0 note=60 velocity=64 time=0
note_off channel=0 note=63 velocity=64 time=0
note_off channel=0 note=72 velocity=64 time=0
note_off channel=0 note=82 velocity=64 time=0
note_off channel=0 note=87 velocity=64 time=0
note_off channel=0 note=91 velocity=64 time=0
note_off channel=0 note=75 velocity=64 time=1
note_off channel=0 note=79 velocity=64 time=0
note_off channel=0 note=94 velocity=64 time=0
note_on channel=0 note=56 velocity=20 time=12
note_on channel=0 note=87 velocity=23 time=0
note_on channel=0 note=84 velocity=24 time=2
note_on channel=0 note=80 velocity=20 time=2
note_off channel=0 note=56 velocity=64 time=4
note_off channel=0 note=80 velocity=64 time=0
note_off channel=0 note=84 velocity=64 time=0
note_off channel=0 note=87 velocity=64 time=0
note_on channel=0 note=63 velocity=25 time=8
note_on channel=0 note=75 velocity=31 time=1
note_on channel=0 note=84 velocity=28 time=0
note_on channel=0 note=91 velocity=36 time=0
note_on channel=0 note=94 velocity=40 time=0
note_on channel=0 note=72 velocity=28 time=1
note_on channel=0 note=78 velocity=27 time=0
note_on channel=0 note=82 velocity=27 time=1
note_on channel=0 note=60 velocity=28 time=1
note_on channel=0 note=70 velocity=15 time=0
note_off channel=0 note=78 velocity=64 time=1
note_on channel=0 note=79 velocity=46 time=0
note_on channel=0 note=100 velocity=10 time=1
note_off channel=0 note=84 velocity=64 time=1
note_on channel=0 note=51 velocity=13 time=1
note_on channel=0 note=84 velocity=29 time=1
note_off channel=0 note=63 velocity=64 time=1
note_off channel=0 note=79 velocity=64 time=0
note_off channel=0 note=100 velocity=64 time=0
note_off channel=0 note=51 velocity=64 time=1
note_off channel=0 note=60 velocity=64 time=0
note_off channel=0 note=72 velocity=64 time=0
note_off channel=0 note=82 velocity=64 time=0
note_off channel=0 note=91 velocity=64 time=0
note_off channel=0 note=70 velocity=64 time=1
note_off channel=0 note=75 velocity=64 time=0
note_off channel=0 note=84 velocity=64 time=0
note_off channel=0 note=94 velocity=64 time=0
note_on channel=0 note=87 velocity=27 time=9
note_on channel=0 note=56 velocity=24 time=1
note_on channel=0 note=92 velocity=23 time=0
note_on channel=0 note=84 velocity=29 time=1
note_on channel=0 note=80 velocity=27 time=2
note_on channel=0 note=77 velocity=12 time=1
note_off channel=0 note=77 velocity=64 time=4
note_off channel=0 note=84 velocity=64 time=0
note_off channel=0 note=56 velocity=64 time=1
note_off channel=0 note=80 velocity=64 time=0
note_off channel=0 note=87 velocity=64 time=0
note_off channel=0 note=92 velocity=64 time=0
note_on channel=0 note=63 velocity=25 time=10
note_on channel=0 note=84 velocity=29 time=0
note_on channel=0 note=94 velocity=40 time=0
note_on channel=0 note=72 velocity=28 time=1
note_on channel=0 note=75 velocity=29 time=0
note_on channel=0 note=91 velocity=33 time=0
note_on channel=0 note=82 velocity=25 time=1
note_on channel=0 note=60 velocity=22 time=1
note_on channel=0 note=70 velocity=20 time=0
note_on channel=0 note=87 velocity=33 time=0
note_on channel=0 note=79 velocity=46 time=1
note_off channel=0 note=84 velocity=64 time=2
note_off channel=0 note=72 velocity=64 time=1
note_off channel=0 note=60 velocity=64 time=1
note_off channel=0 note=63 velocity=64 time=0
note_off channel=0 note=82 velocity=64 time=0
note_off channel=0 note=87 velocity=64 time=0
note_off channel=0 note=70 velocity=64 time=1
note_off channel=0 note=75 velocity=64 time=0
note_off channel=0 note=79 velocity=64 time=0
note_off channel=0 note=91 velocity=64 time=0
note_off channel=0 note=94 velocity=64 time=0
note_on channel=0 note=56 velocity=17 time=12
note_on channel=0 note=87 velocity=20 time=0
note_on channel=0 note=84 velocity=24 time=2
note_on channel=0 note=80 velocity=18 time=2
note_off channel=0 note=56 velocity=64 time=3
note_off channel=0 note=80 velocity=64 time=0
note_off channel=0 note=84 velocity=64 time=0
note_off channel=0 note=87 velocity=64 time=0
note_on channel=0 note=63 velocity=21 time=9
note_on channel=0 note=94 velocity=34 time=0
note_on channel=0 note=75 velocity=24 time=1
note_on channel=0 note=79 velocity=22 time=0
note_on channel=0 note=84 velocity=31 time=0
note_on channel=0 note=72 velocity=29 time=1
note_on channel=0 note=82 velocity=21 time=0
note_on channel=0 note=91 velocity=36 time=0
note_on channel=0 note=87 velocity=26 time=1
note_on channel=0 note=60 velocity=26 time=1
note_off channel=0 note=79 velocity=64 time=0
note_on channel=0 note=79 velocity=48 time=1
note_on channel=0 note=100 velocity=10 time=0
note_off channel=0 note=87 velocity=64 time=1
note_off channel=0 note=84 velocity=64 time=1
note_on channel=0 note=87 velocity=25 time=0
note_off channel=0 note=63 velocity=64 time=1
note_off channel=0 note=100 velocity=64 time=1
note_off channel=0 note=60 velocity=64 time=1
note_off channel=0 note=72 velocity=64 time=0
note_off channel=0 note=75 velocity=64 time=0
note_off channel=0 note=79 velocity=64 time=0
note_off channel=0 note=82 velocity=64 time=0
note_off channel=0 note=87 velocity=64 time=0
note_off channel=0 note=91 velocity=64 time=0
note_off channel=0 note=94 velocity=64 time=0
note_on channel=0 note=56 velocity=15 time=12
note_on channel=0 note=87 velocity=19 time=0
note_on channel=0 note=84 velocity=22 time=2
note_on channel=0 note=80 velocity=20 time=2
note_off channel=0 note=56 velocity=64 time=4
note_off channel=0 note=80 velocity=64 time=0
note_off channel=0 note=84 velocity=64 time=0
note_off channel=0 note=87 velocity=64 time=0
note_on channel=0 note=63 velocity=24 time=8
note_on channel=0 note=75 velocity=31 time=1
note_on channel=0 note=84 velocity=32 time=0
note_on channel=0 note=91 velocity=39 time=0
note_on channel=0 note=94 velocity=38 time=0
note_on channel=0 note=72 velocity=33 time=1
note_on channel=0 note=82 velocity=27 time=1
note_on channel=0 note=60 velocity=30 time=1
note_on channel=0 note=70 velocity=14 time=0
note_on channel=0 note=79 velocity=40 time=0
note_on channel=0 note=87 velocity=32 time=0
note_on channel=0 note=100 velocity=11 time=1
note_on channel=0 note=51 velocity=13 time=2
note_off channel=0 note=70 velocity=64 time=0
note_off channel=0 note=84 velocity=64 time=0
note_off channel=0 note=87 velocity=64 time=1
note_off channel=0 note=63 velocity=64 time=1
note_off channel=0 note=82 velocity=64 time=0
note_off channel=0 note=51 velocity=64 time=1
note_off channel=0 note=75 velocity=64 time=0
note_off channel=0 note=79 velocity=64 time=0
note_off channel=0 note=91 velocity=64 time=0
note_off channel=0 note=100 velocity=64 time=0
note_off channel=0 note=60 velocity=64 time=1
note_off channel=0 note=72 velocity=64 time=0
note_off channel=0 note=94 velocity=64 time=0
note_on channel=0 note=56 velocity=12 time=13
note_on channel=0 note=87 velocity=14 time=0
note_on channel=0 note=84 velocity=19 time=2
note_on channel=0 note=80 velocity=17 time=3
note_off channel=0 note=56 velocity=64 time=3
note_off channel=0 note=84 velocity=64 time=0
note_off channel=0 note=87 velocity=64 time=0
note_off channel=0 note=80 velocity=64 time=1
note_on channel=0 note=63 velocity=26 time=8
note_on channel=0 note=94 velocity=40 time=0
note_on channel=0 note=75 velocity=29 time=1
note_on channel=0 note=91 velocity=23 time=0
note_on channel=0 note=82 velocity=27 time=1
note_on channel=0 note=51 velocity=15 time=1
note_on channel=0 note=70 velocity=14 time=0
note_on channel=0 note=87 velocity=32 time=0
note_on channel=0 note=79 velocity=29 time=1
note_on channel=0 note=101 velocity=12 time=1
note_off channel=0 note=101 velocity=64 time=4
note_off channel=0 note=51 velocity=64 time=1
note_off channel=0 note=63 velocity=64 time=0
note_off channel=0 note=70 velocity=64 time=0
note_off channel=0 note=79 velocity=64 time=0
note_off channel=0 note=82 velocity=64 time=0
note_off channel=0 note=91 velocity=64 time=0
note_off channel=0 note=94 velocity=64 time=0
note_off channel=0 note=75 velocity=64 time=1
note_off channel=0 note=87 velocity=64 time=0
note_on channel=0 note=55 velocity=33 time=7
note_on channel=0 note=87 velocity=43 time=0
note_on channel=0 note=80 velocity=46 time=1
note_off channel=0 note=55 velocity=64 time=1
note_on channel=0 note=56 velocity=39 time=0
note_on channel=0 note=84 velocity=45 time=0
note_on channel=0 note=77 velocity=29 time=1
note_on channel=0 note=90 velocity=29 time=1
note_on channel=0 note=72 velocity=16 time=3
note_on channel=0 note=94 velocity=20 time=1
note_off channel=0 note=72 velocity=64 time=4
note_off channel=0 note=84 velocity=64 time=0
note_off channel=0 note=87 velocity=64 time=0
note_off channel=0 note=90 velocity=64 time=0
note_off channel=0 note=94 velocity=64 time=0
note_off channel=0 note=56 velocity=64 time=1
note_off channel=0 note=77 velocity=64 time=0
note_off channel=0 note=80 velocity=64 time=0
note_on channel=0 note=63 velocity=28 time=7
note_on channel=0 note=75 velocity=33 time=0
note_on channel=0 note=87 velocity=35 time=0
note_on channel=0 note=94 velocity=43 time=0
note_on channel=0 note=82 velocity=28 time=1
note_on channel=0 note=84 velocity=28 time=0
note_on channel=0 note=72 velocity=27 time=1
note_on channel=0 note=103 velocity=23 time=0
note_on channel=0 note=60 velocity=24 time=1
note_on channel=0 note=70 velocity=18 time=0
note_on channel=0 note=91 velocity=36 time=0
note_on channel=0 note=79 velocity=49 time=1
note_off channel=0 note=84 velocity=64 time=2
note_off channel=0 note=60 velocity=64 time=2
note_off channel=0 note=82 velocity=64 time=0
note_off channel=0 note=91 velocity=64 time=0
note_off channel=0 note=63 velocity=64 time=1
note_off channel=0 note=70 velocity=64 time=0
note_off channel=0 note=72 velocity=64 time=0
note_off channel=0 note=75 velocity=64 time=0
note_off channel=0 note=79 velocity=64 time=0
note_off channel=0 note=87 velocity=64 time=0
note_off channel=0 note=94 velocity=64 time=0
note_off channel=0 note=103 velocity=64 time=0
note_on channel=0 note=68 velocity=52 time=11
note_on channel=0 note=87 velocity=32 time=1
note_on channel=0 note=56 velocity=20 time=2
note_on channel=0 note=84 velocity=21 time=1
note_off channel=0 note=56 velocity=64 time=5
note_off channel=0 note=84 velocity=64 time=0
note_on channel=0 note=63 velocity=25 time=8
note_on channel=0 note=72 velocity=37 time=0
note_on channel=0 note=84 velocity=38 time=0
note_on channel=0 note=75 velocity=31 time=1
note_on channel=0 note=91 velocity=39 time=0
note_on channel=0 note=94 velocity=39 time=0
note_on channel=0 note=60 velocity=36 time=1
note_on channel=0 note=78 velocity=36 time=0
note_on channel=0 note=82 velocity=26 time=0
note_on channel=0 note=100 velocity=19 time=0
note_on channel=0 note=88 velocity=35 time=1
note_off channel=0 note=78 velocity=64 time=1
note_on channel=0 note=79 velocity=52 time=0
note_off channel=0 note=87 velocity=64 time=0
note_off channel=0 note=84 velocity=64 time=2
note_on channel=0 note=84 velocity=40 time=1
note_on channel=0 note=86 velocity=10 time=0
note_off channel=0 note=88 velocity=64 time=0
note_off channel=0 note=63 velocity=64 time=1
note_off channel=0 note=82 velocity=64 time=0
note_off channel=0 note=79 velocity=64 time=1
note_off channel=0 note=60 velocity=64 time=1
note_off channel=0 note=72 velocity=64 time=0
note_off channel=0 note=75 velocity=64 time=0
note_off channel=0 note=86 velocity=64 time=0
note_off channel=0 note=91 velocity=64 time=0
note_off channel=0 note=94 velocity=64 time=0
note_off channel=0 note=100 velocity=64 time=0
note_off channel=0 note=84 velocity=64 time=1
note_on channel=0 note=56 velocity=34 time=11
note_on channel=0 note=87 velocity=40 time=0
note_on channel=0 note=84 velocity=38 time=2
note_on channel=0 note=77 velocity=23 time=2
note_on channel=0 note=90 velocity=25 time=0
note_on channel=0 note=94 velocity=17 time=4
note_on channel=0 note=72 velocity=11 time=1
note_off channel=0 note=84 velocity=64 time=1
note_off channel=0 note=94 velocity=64 time=1
note_off channel=0 note=56 velocity=64 time=1
note_off channel=0 note=72 velocity=64 time=0
note_off channel=0 note=77 velocity=64 time=0
note_off channel=0 note=90 velocity=64 time=0
note_off channel=0 note=87 velocity=64 time=2
note_on channel=0 note=63 velocity=29 time=3
note_on channel=0 note=75 velocity=39 time=1
note_on channel=0 note=91 velocity=38 time=0
note_on channel=0 note=94 velocity=45 time=0
note_on channel=0 note=82 velocity=32 time=1
note_on channel=0 note=72 velocity=25 time=1
note_on channel=0 note=84 velocity=26 time=0
note_on channel=0 note=51 velocity=23 time=2
note_on channel=0 note=79 velocity=47 time=0
note_on channel=0 note=101 velocity=18 time=0
note_on channel=0 note=60 velocity=21 time=1
note_on channel=0 note=100 velocity=9 time=1
note_off channel=0 note=84 velocity=64 time=1
note_off channel=0 note=60 velocity=64 time=2
note_off channel=0 note=100 velocity=64 time=0
note_off channel=0 note=72 velocity=64 time=1
note_off channel=0 note=51 velocity=64 time=1
note_off channel=0 note=63 velocity=64 time=0
note_off channel=0 note=79 velocity=64 time=0
note_off channel=0 note=82 velocity=64 time=0
note_off channel=0 note=91 velocity=64 time=0
note_off channel=0 note=101 velocity=64 time=0
note_off channel=0 note=75 velocity=64 time=1
note_off channel=0 note=94 velocity=64 time=0
note_off channel=0 note=68 velocity=64 time=4
note_on channel=0 note=75 velocity=60 time=3
note_on channel=0 note=55 velocity=29 time=3
note_on channel=0 note=92 velocity=40 time=0
note_off channel=0 note=55 velocity=64 time=2
note_on channel=0 note=56 velocity=33 time=0
note_on channel=0 note=84 velocity=38 time=0
note_on channel=0 note=68 velocity=37 time=1
note_on channel=0 note=77 velocity=31 time=1
note_on channel=0 note=80 velocity=41 time=0
note_on channel=0 note=102 velocity=19 time=0
note_on channel=0 note=90 velocity=26 time=1
note_on channel=0 note=72 velocity=16 time=2
note_on channel=0 note=94 velocity=16 time=1
note_on channel=0 note=100 velocity=10 time=5
note_off channel=0 note=72 velocity=64 time=3
note_on channel=0 note=73 velocity=47 time=0
note_off channel=0 note=94 velocity=64 time=0
note_off channel=0 note=100 velocity=64 time=0
note_off channel=0 note=56 velocity=64 time=1
note_off channel=0 note=77 velocity=64 time=0
note_off channel=0 note=90 velocity=64 time=0
note_off channel=0 note=102 velocity=64 time=0
note_on channel=0 note=63 velocity=22 time=1
note_off channel=0 note=68 velocity=64 time=0
note_off channel=0 note=80 velocity=64 time=0
note_off channel=0 note=84 velocity=64 time=0
note_on channel=0 note=84 velocity=34 time=1
note_on channel=0 note=91 velocity=38 time=0
note_off channel=0 note=92 velocity=64 time=0
note_on channel=0 note=94 velocity=36 time=0
note_on channel=0 note=82 velocity=23 time=2
note_on channel=0 note=60 velocity=30 time=1
note_on channel=0 note=79 velocity=44 time=0
note_on channel=0 note=88 velocity=30 time=0
note_on channel=0 note=101 velocity=10 time=1
note_off channel=0 note=88 velocity=64 time=2
note_off channel=0 note=60 velocity=64 time=3
note_off channel=0 note=63 velocity=64 time=0
note_off channel=0 note=82 velocity=64 time=0
note_off channel=0 note=91 velocity=64 time=0
note_off channel=0 note=94 velocity=64 time=0
note_off channel=0 note=101 velocity=64 time=0
note_off channel=0 note=79 velocity=64 time=1
note_off channel=0 note=84 velocity=64 time=0
note_off channel=0 note=75 velocity=64 time=6
note_on channel=0 note=72 velocity=50 time=1
note_off channel=0 note=73 velocity=64 time=0
note_on channel=0 note=91 velocity=13 time=1
note_on channel=0 note=96 velocity=18 time=0
note_on channel=0 note=87 velocity=26 time=2
note_on channel=0 note=56 velocity=24 time=2
note_off channel=0 note=91 velocity=64 time=1
note_on channel=0 note=80 velocity=31 time=2
note_on channel=0 note=77 velocity=14 time=2
note_on channel=0 note=90 velocity=15 time=0
note_off channel=0 note=96 velocity=64 time=5
note_off channel=0 note=56 velocity=64 time=2
note_off channel=0 note=77 velocity=64 time=0
note_off channel=0 note=90 velocity=64 time=0
note_off channel=0 note=80 velocity=64 time=1
note_off channel=0 note=87 velocity=64 time=0
note_on channel=0 note=70 velocity=55 time=2
note_off channel=0 note=72 velocity=64 time=0
note_on channel=0 note=63 velocity=27 time=1
note_on channel=0 note=89 velocity=18 time=0
note_on channel=0 note=75 velocity=28 time=1
note_on channel=0 note=84 velocity=32 time=0
note_on channel=0 note=87 velocity=31 time=0
note_on channel=0 note=91 velocity=37 time=0
note_on channel=0 note=94 velocity=36 time=0
note_on channel=0 note=72 velocity=33 time=2
note_on channel=0 note=60 velocity=24 time=1
note_on channel=0 note=79 velocity=45 time=0
note_off channel=0 note=72 velocity=64 time=1
note_off channel=0 note=63 velocity=64 time=1
note_on channel=0 note=72 velocity=30 time=0
note_on channel=0 note=88 velocity=31 time=0
note_off channel=0 note=75 velocity=64 time=1
note_off channel=0 note=84 velocity=64 time=0
note_off channel=0 note=87 velocity=64 time=0
note_off channel=0 note=94 velocity=64 time=0
note_off channel=0 note=60 velocity=64 time=1
note_off channel=0 note=72 velocity=64 time=0
note_off channel=0 note=79 velocity=64 time=0
note_off channel=0 note=88 velocity=64 time=0
note_off channel=0 note=91 velocity=64 time=0
note_off channel=0 note=89 velocity=64 time=3
note_on channel=0 note=68 velocity=55 time=9
note_off channel=0 note=70 velocity=64 time=0
note_on channel=0 note=51 velocity=33 time=1
note_on channel=0 note=63 velocity=38 time=0
note_on channel=0 note=82 velocity=48 time=0
note_on channel=0 note=79 velocity=43 time=1
note_on channel=0 note=87 velocity=44 time=0
note_on channel=0 note=85 velocity=32 time=1
note_on channel=0 note=75 velocity=45 time=1
note_on channel=0 note=89 velocity=26 time=2
note_off channel=0 note=51 velocity=64 time=7
note_off channel=0 note=63 velocity=64 time=0
note_off channel=0 note=79 velocity=64 time=0
note_off channel=0 note=89 velocity=64 time=0
note_off channel=0 note=75 velocity=64 time=1
note_off channel=0 note=82 velocity=64 time=0
note_off channel=0 note=85 velocity=64 time=0
note_on channel=0 note=79 velocity=49 time=5
note_on channel=0 note=77 velocity=26 time=1
note_on channel=0 note=86 velocity=38 time=0
note_on channel=0 note=55 velocity=32 time=1
note_on channel=0 note=94 velocity=21 time=0
note_on channel=0 note=95 velocity=29 time=0
note_on channel=0 note=70 velocity=40 time=1
note_on channel=0 note=74 velocity=36 time=0
note_off channel=0 note=87 velocity=64 time=0
note_on channel=0 note=92 velocity=18 time=0
note_on channel=0 note=93 velocity=30 time=0
note_off channel=0 note=68 velocity=64 time=1
note_on channel=0 note=83 velocity=23 time=0
note_on channel=0 note=96 velocity=13 time=0
note_on channel=0 note=68 velocity=46 time=1
note_on channel=0 note=102 velocity=9 time=0
note_on channel=0 note=67 velocity=35 time=2
note_off channel=0 note=68 velocity=64 time=0
note_on channel=0 note=68 velocity=35 time=1
note_off channel=0 note=70 velocity=64 time=0
note_off channel=0 note=94 velocity=64 time=0
note_off channel=0 note=102 velocity=64 time=0
note_off channel=0 note=67 velocity=64 time=1
note_off channel=0 note=77 velocity=64 time=0
note_off channel=0 note=79 velocity=64 time=0
note_off channel=0 note=92 velocity=64 time=0
note_off channel=0 note=55 velocity=64 time=1
note_off channel=0 note=83 velocity=64 time=0
note_off channel=0 note=86 velocity=64 time=0
note_off channel=0 note=93 velocity=64 time=0
note_off channel=0 note=95 velocity=64 time=0
note_off channel=0 note=96 velocity=64 time=0
note_off channel=0 note=74 velocity=64 time=1
note_off channel=0 note=68 velocity=64 time=5
note_on channel=0 note=75 velocity=52 time=4
note_on channel=0 note=51 velocity=26 time=1
note_on channel=0 note=63 velocity=60 time=0
note_on channel=0 note=79 velocity=37 time=1
note_on channel=0 note=70 velocity=27 time=1
note_on channel=0 note=82 velocity=40 time=0
note_on channel=0 note=85 velocity=34 time=0
note_on channel=0 note=89 velocity=13 time=3
note_on channel=0 note=92 velocity=15 time=1
note_off channel=0 note=89 velocity=64 time=2
note_on channel=0 note=89 velocity=28 time=1
note_off channel=0 note=92 velocity=64 time=0
note_on channel=0 note=93 velocity=22 time=1
note_off channel=0 note=93 velocity=64 time=4
note_off channel=0 note=51 velocity=64 time=1
note_off channel=0 note=85 velocity=64 time=0
note_off channel=0 note=89 velocity=64 time=0
note_off channel=0 note=70 velocity=64 time=1
note_off channel=0 note=79 velocity=64 time=0
note_on channel=0 note=70 velocity=44 time=4
note_on channel=0 note=77 velocity=32 time=0
note_on channel=0 note=86 velocity=36 time=0
note_on channel=0 note=55 velocity=31 time=1
note_on channel=0 note=79 velocity=45 time=0
note_on channel=0 note=95 velocity=15 time=1
note_on channel=0 note=92 velocity=23 time=1
note_on channel=0 note=96 velocity=18 time=0
note_on channel=0 note=93 velocity=26 time=1
note_on channel=0 note=99 velocity=16 time=0
note_on channel=0 note=102 velocity=12 time=0
note_off channel=0 note=82 velocity=64 time=1
note_on channel=0 note=83 velocity=21 time=0
note_on channel=0 note=74 velocity=30 time=1
note_off channel=0 note=75 velocity=64 time=1
note_off channel=0 note=55 velocity=64 time=1
note_off channel=0 note=74 velocity=64 time=0
note_off channel=0 note=79 velocity=64 time=0
note_off channel=0 note=83 velocity=64 time=0
note_off channel=0 note=93 velocity=64 time=0
note_off channel=0 note=95 velocity=64 time=0
note_off channel=0 note=96 velocity=64 time=0
note_off channel=0 note=99 velocity=64 time=0
note_off channel=0 note=102 velocity=64 time=0
note_off channel=0 note=70 velocity=64 time=1
note_off channel=0 note=77 velocity=64 time=0
note_off channel=0 note=86 velocity=64 time=0
note_off channel=0 note=92 velocity=64 time=0
note_on channel=0 note=51 velocity=30 time=11
note_on channel=0 note=72 velocity=50 time=0
note_on channel=0 note=82 velocity=47 time=0
note_on channel=0 note=85 velocity=31 time=1
note_on channel=0 note=87 velocity=43 time=0
note_on channel=0 note=91 velocity=31 time=0
note_on channel=0 note=96 velocity=18 time=0
note_on channel=0 note=70 velocity=28 time=1
note_on channel=0 note=79 velocity=42 time=0
note_off channel=0 note=85 velocity=64 time=2
note_on channel=0 note=97 velocity=17 time=0
note_on channel=0 note=85 velocity=37 time=1
note_on channel=0 note=89 velocity=28 time=0
note_on channel=0 note=92 velocity=23 time=0
note_on channel=0 note=38 velocity=10 time=2
note_off channel=0 note=92 velocity=64 time=2
note_on channel=0 note=100 velocity=9 time=0
note_on channel=0 note=93 velocity=20 time=1
note_off channel=0 note=38 velocity=64 time=2
note_off channel=0 note=51 velocity=64 time=0
note_off channel=0 note=97 velocity=64 time=0
note_off channel=0 note=100 velocity=64 time=0
note_off channel=0 note=63 velocity=64 time=1
note_off channel=0 note=70 velocity=64 time=0
note_off channel=0 note=79 velocity=64 time=0
note_off channel=0 note=82 velocity=64 time=0
note_off channel=0 note=85 velocity=64 time=0
note_off channel=0 note=87 velocity=64 time=0
note_off channel=0 note=89 velocity=64 time=0
note_off channel=0 note=91 velocity=64 time=0
note_off channel=0 note=93 velocity=64 time=0
note_off channel=0 note=96 velocity=64 time=0
note_on channel=0 note=67 velocity=35 time=6
note_on channel=0 note=70 velocity=39 time=0
note_on channel=0 note=79 velocity=52 time=1
note_on channel=0 note=86 velocity=34 time=0
note_on channel=0 note=89 velocity=27 time=0
note_off channel=0 note=72 velocity=64 time=1
note_on channel=0 note=73 velocity=47 time=0
note_on channel=0 note=77 velocity=32 time=0
note_on channel=0 note=94 velocity=22 time=0
note_on channel=0 note=95 velocity=25 time=0
note_on channel=0 note=55 velocity=39 time=1
note_on channel=0 note=92 velocity=21 time=0
note_on channel=0 note=93 velocity=33 time=0
note_on channel=0 note=97 velocity=9 time=0
note_on channel=0 note=83 velocity=27 time=1
note_on channel=0 note=96 velocity=13 time=0
note_on channel=0 note=99 velocity=14 time=1
note_on channel=0 note=102 velocity=11 time=1
note_off channel=0 note=97 velocity=64 time=1
note_off channel=0 note=55 velocity=64 time=1
note_off channel=0 note=67 velocity=64 time=1
note_off channel=0 note=83 velocity=64 time=0
note_off channel=0 note=89 velocity=64 time=0
note_off channel=0 note=93 velocity=64 time=0
note_off channel=0 note=94 velocity=64 time=0
note_off channel=0 note=95 velocity=64 time=0
note_off channel=0 note=77 velocity=64 time=1
note_off channel=0 note=79 velocity=64 time=0
note_off channel=0 note=86 velocity=64 time=0
note_off channel=0 note=92 velocity=64 time=0
note_off channel=0 note=96 velocity=64 time=0
note_off channel=0 note=99 velocity=64 time=0
note_off channel=0 note=102 velocity=64 time=0
note_off channel=0 note=70 velocity=64 time=1
note_on channel=0 note=72 velocity=47 time=10
note_off channel=0 note=73 velocity=64 time=0
note_on channel=0 note=63 velocity=19 time=1
note_on channel=0 note=87 velocity=22 time=0
note_on channel=0 note=96 velocity=12 time=0
note_on channel=0 note=51 velocity=11 time=1
note_on channel=0 note=79 velocity=54 time=0
note_on channel=0 note=82 velocity=22 time=0
note_on channel=0 note=85 velocity=14 time=0
note_on channel=0 note=75 velocity=22 time=2
note_off channel=0 note=85 velocity=64 time=3
note_off channel=0 note=51 velocity=64 time=2
note_on channel=0 note=85 velocity=15 time=0
note_off channel=0 note=96 velocity=64 time=1
note_off channel=0 note=87 velocity=64 time=1
note_off channel=0 note=75 velocity=64 time=3
note_off channel=0 note=82 velocity=64 time=0
note_off channel=0 note=85 velocity=64 time=0
note_on channel=0 note=89 velocity=32 time=2
note_on channel=0 note=82 velocity=16 time=2
note_on channel=0 note=55 velocity=42 time=1
note_off channel=0 note=63 velocity=64 time=0
note_on channel=0 note=70 velocity=48 time=0
note_off channel=0 note=72 velocity=64 time=1
note_on channel=0 note=74 velocity=25 time=0
note_on channel=0 note=77 velocity=27 time=0
note_on channel=0 note=86 velocity=32 time=0
note_on channel=0 note=94 velocity=24 time=0
note_on channel=0 note=95 velocity=25 time=0
note_on channel=0 note=92 velocity=21 time=1
note_on channel=0 note=93 velocity=23 time=0
note_on channel=0 note=83 velocity=19 time=1
note_off channel=0 note=55 velocity=64 time=2
note_off channel=0 note=86 velocity=64 time=0
note_off channel=0 note=74 velocity=64 time=1
note_off channel=0 note=77 velocity=64 time=0
note_off channel=0 note=79 velocity=64 time=0
note_off channel=0 note=82 velocity=64 time=0
note_off channel=0 note=83 velocity=64 time=0
note_off channel=0 note=92 velocity=64 time=0
note_off channel=0 note=93 velocity=64 time=0
note_off channel=0 note=94 velocity=64 time=0
note_off channel=0 note=95 velocity=64 time=0
note_off channel=0 note=89 velocity=64 time=4
note_off channel=0 note=70 velocity=64 time=9
note_on channel=0 note=70 velocity=59 time=1
note_on channel=0 note=89 velocity=20 time=0
note_on channel=0 note=101 velocity=21 time=1
note_on channel=0 note=55 velocity=37 time=1
note_on channel=0 note=87 velocity=42 time=0
note_on channel=0 note=80 velocity=42 time=1
note_on channel=0 note=92 velocity=45 time=0
note_off channel=0 note=55 velocity=64 time=1
note_on channel=0 note=56 velocity=41 time=0
note_on channel=0 note=84 velocity=43 time=0
note_on channel=0 note=94 velocity=22 time=1
note_on channel=0 note=77 velocity=30 time=1
note_on channel=0 note=90 velocity=30 time=0
note_off channel=0 note=101 velocity=64 time=2
note_off channel=0 note=89 velocity=64 time=2
note_on channel=0 note=44 velocity=9 time=3
note_off channel=0 note=84 velocity=64 time=0
note_on channel=0 note=100 velocity=17 time=0
note_on channel=0 note=84 velocity=41 time=1
note_off channel=0 note=94 velocity=64 time=0
note_on channel=0 note=94 velocity=23 time=1
note_off channel=0 note=44 velocity=64 time=2
note_off channel=0 note=56 velocity=64 time=1
note_off channel=0 note=77 velocity=64 time=0
note_off channel=0 note=80 velocity=64 time=0
note_off channel=0 note=90 velocity=64 time=0
note_off channel=0 note=92 velocity=64 time=0
note_off channel=0 note=100 velocity=64 time=0
note_off channel=0 note=84 velocity=64 time=1
note_off channel=0 note=87 velocity=64 time=0
note_off channel=0 note=94 velocity=64 time=0
note_on channel=0 note=63 velocity=23 time=3
note_on channel=0 note=75 velocity=29 time=0
note_on channel=0 note=84 velocity=24 time=0
note_on channel=0 note=91 velocity=35 time=0
note_on channel=0 note=94 velocity=37 time=0
note_on channel=0 note=87 velocity=30 time=1
note_on channel=0 note=78 velocity=29 time=1
note_on channel=0 note=60 velocity=23 time=1
note_on channel=0 note=72 velocity=30 time=1
note_off channel=0 note=78 velocity=64 time=0
note_on channel=0 note=79 velocity=48 time=0
note_off channel=0 note=84 velocity=64 time=2
note_off channel=0 note=63 velocity=64 time=1
note_off channel=0 note=72 velocity=64 time=0
note_off channel=0 note=75 velocity=64 time=0
note_off channel=0 note=60 velocity=64 time=1
note_off channel=0 note=87 velocity=64 time=0
note_off channel=0 note=79 velocity=64 time=1
note_off channel=0 note=91 velocity=64 time=0
note_off channel=0 note=94 velocity=64 time=0
note_on channel=0 note=68 velocity=54 time=8
note_on channel=0 note=55 velocity=41 time=1
note_on channel=0 note=87 velocity=43 time=0
note_off channel=0 note=70 velocity=64 time=1
note_on channel=0 note=84 velocity=45 time=0
note_off channel=0 note=55 velocity=64 time=2
note_on channel=0 note=56 velocity=37 time=0
note_on channel=0 note=77 velocity=23 time=0
note_on channel=0 note=90 velocity=28 time=0
note_on channel=0 note=63 velocity=9 time=3
note_off channel=0 note=56 velocity=64 time=4
note_off channel=0 note=63 velocity=64 time=0
note_off channel=0 note=84 velocity=64 time=0
note_off channel=0 note=77 velocity=64 time=1
note_off channel=0 note=90 velocity=64 time=0
note_off channel=0 note=87 velocity=64 time=1
note_on channel=0 note=63 velocity=32 time=7
note_on channel=0 note=75 velocity=35 time=0
note_on channel=0 note=94 velocity=45 time=0
note_on channel=0 note=72 velocity=30 time=1
note_on channel=0 note=84 velocity=31 time=0
note_on channel=0 note=91 velocity=40 time=0
note_on channel=0 note=82 velocity=30 time=1
note_on channel=0 note=79 velocity=41 time=2
note_on channel=0 note=100 velocity=9 time=0
note_on channel=0 note=51 velocity=23 time=1
note_on channel=0 note=60 velocity=26 time=0
note_on channel=0 note=101 velocity=20 time=0
note_off channel=0 note=84 velocity=64 time=2
note_off channel=0 note=51 velocity=64 time=1
note_off channel=0 note=72 velocity=64 time=0
note_off channel=0 note=100 velocity=64 time=0
note_off channel=0 note=60 velocity=64 time=1
note_off channel=0 note=63 velocity=64 time=1
note_off channel=0 note=79 velocity=64 time=0
note_off channel=0 note=82 velocity=64 time=0
note_off channel=0 note=91 velocity=64 time=0
note_off channel=0 note=94 velocity=64 time=0
note_off channel=0 note=101 velocity=64 time=0
note_off channel=0 note=75 velocity=64 time=1
note_on channel=0 note=72 velocity=41 time=5
note_on channel=0 note=56 velocity=29 time=4
note_off channel=0 note=68 velocity=64 time=1
note_on channel=0 note=87 velocity=32 time=0
note_on channel=0 note=92 velocity=34 time=0
note_on channel=0 note=77 velocity=18 time=4
note_on channel=0 note=80 velocity=35 time=0
note_on channel=0 note=90 velocity=20 time=1
note_off channel=0 note=56 velocity=64 time=6
note_off channel=0 note=77 velocity=64 time=0
note_off channel=0 note=87 velocity=64 time=0
note_off channel=0 note=90 velocity=64 time=0
note_off channel=0 note=80 velocity=64 time=1
note_off channel=0 note=92 velocity=64 time=0
note_on channel=0 note=63 velocity=31 time=7
note_off channel=0 note=72 velocity=64 time=0
note_on channel=0 note=73 velocity=49 time=0
note_on channel=0 note=84 velocity=36 time=0
note_on channel=0 note=87 velocity=36 time=0
note_on channel=0 note=91 velocity=41 time=0
note_on channel=0 note=94 velocity=44 time=0
note_on channel=0 note=97 velocity=12 time=0
note_on channel=0 note=75 velocity=34 time=1
note_on channel=0 note=82 velocity=32 time=0
note_on channel=0 note=60 velocity=28 time=1
note_on channel=0 note=100 velocity=17 time=0
note_on channel=0 note=70 velocity=18 time=1
note_on channel=0 note=79 velocity=50 time=0
note_on channel=0 note=101 velocity=16 time=0
note_on channel=0 note=51 velocity=21 time=1
note_on channel=0 note=88 velocity=32 time=0
note_off channel=0 note=60 velocity=64 time=2
note_off channel=0 note=84 velocity=64 time=0
note_off channel=0 note=88 velocity=64 time=0
note_off channel=0 note=100 velocity=64 time=0
note_off channel=0 note=101 velocity=64 time=0
note_off channel=0 note=51 velocity=64 time=2
note_off channel=0 note=63 velocity=64 time=0
note_off channel=0 note=70 velocity=64 time=0
note_off channel=0 note=75 velocity=64 time=0
note_off channel=0 note=79 velocity=64 time=0
note_off channel=0 note=82 velocity=64 time=0
note_off channel=0 note=87 velocity=64 time=0
note_off channel=0 note=91 velocity=64 time=0
note_off channel=0 note=94 velocity=64 time=0
note_off channel=0 note=97 velocity=64 time=2
note_on channel=0 note=72 velocity=55 time=7
note_off channel=0 note=73 velocity=64 time=0
note_on channel=0 note=91 velocity=20 time=0
note_on channel=0 note=96 velocity=30 time=0
note_on channel=0 note=56 velocity=31 time=2
note_on channel=0 note=87 velocity=35 time=0
note_on channel=0 note=92 velocity=37 time=0
note_on channel=0 note=77 velocity=22 time=4
note_on channel=0 note=80 velocity=37 time=0
note_on channel=0 note=90 velocity=22 time=0
note_off channel=0 note=91 velocity=64 time=6
note_off channel=0 note=92 velocity=64 time=3
note_off channel=0 note=56 velocity=64 time=1
note_off channel=0 note=77 velocity=64 time=0
note_off channel=0 note=80 velocity=64 time=0
note_off channel=0 note=87 velocity=64 time=0
note_off channel=0 note=90 velocity=64 time=0
note_off channel=0 note=96 velocity=64 time=3
note_on channel=0 note=70 velocity=51 time=1
note_on channel=0 note=63 velocity=30 time=1
note_off channel=0 note=72 velocity=64 time=0
note_on channel=0 note=84 velocity=41 time=0
note_on channel=0 note=91 velocity=42 time=0
note_on channel=0 note=75 velocity=34 time=1
note_on channel=0 note=79 velocity=56 time=0
note_on channel=0 note=94 velocity=39 time=0
note_on channel=0 note=72 velocity=43 time=1
note_on channel=0 note=87 velocity=34 time=0
note_on channel=0 note=100 velocity=21 time=0
note_on channel=0 note=60 velocity=33 time=1
note_on channel=0 note=88 velocity=39 time=1
note_on channel=0 note=89 velocity=11 time=1
note_off channel=0 note=88 velocity=64 time=1
note_off channel=0 note=63 velocity=64 time=1
note_off channel=0 note=75 velocity=64 time=0
note_off channel=0 note=84 velocity=64 time=0
note_off channel=0 note=60 velocity=64 time=1
note_off channel=0 note=72 velocity=64 time=0
note_off channel=0 note=87 velocity=64 time=0
note_off channel=0 note=89 velocity=64 time=0
note_off channel=0 note=100 velocity=64 time=0
note_off channel=0 note=79 velocity=64 time=1
note_off channel=0 note=91 velocity=64 time=0
note_off channel=0 note=94 velocity=64 time=0
note_off channel=0 note=70 velocity=64 time=9
note_on channel=0 note=55 velocity=37 time=1
note_on channel=0 note=70 velocity=57 time=0
note_on channel=0 note=87 velocity=36 time=0
note_on channel=0 note=89 velocity=21 time=0
note_on channel=0 note=92 velocity=36 time=1
note_off channel=0 note=55 velocity=64 time=1
note_on channel=0 note=56 velocity=36 time=0
note_on channel=0 note=84 velocity=40 time=0
note_on channel=0 note=77 velocity=20 time=2
note_on channel=0 note=80 velocity=36 time=0
note_on channel=0 note=94 velocity=17 time=0
note_on channel=0 note=90 velocity=24 time=2
note_off channel=0 note=89 velocity=64 time=1
note_off channel=0 note=56 velocity=64 time=4
note_off channel=0 note=77 velocity=64 time=0
note_off channel=0 note=80 velocity=64 time=0
note_off channel=0 note=84 velocity=64 time=0
note_off channel=0 note=87 velocity=64 time=0
note_off channel=0 note=90 velocity=64 time=0
note_off channel=0 note=92 velocity=64 time=0
note_off channel=0 note=94 velocity=64 time=3
note_on channel=0 note=63 velocity=30 time=5
note_on channel=0 note=79 velocity=11 time=0
note_on channel=0 note=84 velocity=37 time=0
note_on channel=0 note=91 velocity=39 time=0
note_on channel=0 note=94 velocity=44 time=0
note_on channel=0 note=75 velocity=38 time=1
note_on channel=0 note=51 velocity=20 time=1
note_on channel=0 note=60 velocity=29 time=0
note_on channel=0 note=72 velocity=35 time=0
note_on channel=0 note=100 velocity=18 time=0
note_off channel=0 note=79 velocity=64 time=1
note_on channel=0 note=79 velocity=51 time=1
note_off channel=0 note=51 velocity=64 time=1
note_off channel=0 note=72 velocity=64 time=1
note_off channel=0 note=84 velocity=64 time=0
note_off channel=0 note=100 velocity=64 time=1
note_off channel=0 note=60 velocity=64 time=1
note_off channel=0 note=63 velocity=64 time=0
note_off channel=0 note=75 velocity=64 time=1
note_off channel=0 note=79 velocity=64 time=0
note_off channel=0 note=91 velocity=64 time=0
note_off channel=0 note=94 velocity=64 time=0
note_on channel=0 note=68 velocity=51 time=11
note_on channel=0 note=63 velocity=15 time=1
note_off channel=0 note=70 velocity=64 time=0
note_on channel=0 note=87 velocity=47 time=0
note_on channel=0 note=56 velocity=46 time=1
note_on channel=0 note=75 velocity=15 time=0
note_on channel=0 note=84 velocity=50 time=0
note_on channel=0 note=77 velocity=28 time=1
note_on channel=0 note=90 velocity=31 time=0
note_on channel=0 note=44 velocity=14 time=1
note_off channel=0 note=75 velocity=64 time=1
note_on channel=0 note=94 velocity=13 time=0
note_off channel=0 note=44 velocity=64 time=4
note_off channel=0 note=63 velocity=64 time=0
note_off channel=0 note=56 velocity=64 time=1
note_off channel=0 note=77 velocity=64 time=0
note_off channel=0 note=94 velocity=64 time=0
note_off channel=0 note=84 velocity=64 time=1
note_off channel=0 note=90 velocity=64 time=0
note_off channel=0 note=87 velocity=64 time=2
note_on channel=0 note=87 velocity=39 time=6
note_on channel=0 note=63 velocity=30 time=1
note_on channel=0 note=75 velocity=34 time=0
note_on channel=0 note=84 velocity=35 time=0
note_on channel=0 note=91 velocity=45 time=0
note_on channel=0 note=94 velocity=46 time=0
note_on channel=0 note=72 velocity=33 time=1
note_on channel=0 note=82 velocity=33 time=0
note_on channel=0 note=60 velocity=25 time=1
note_on channel=0 note=79 velocity=38 time=1
note_on channel=0 note=100 velocity=15 time=0
note_on channel=0 note=101 velocity=19 time=1
note_on channel=0 note=51 velocity=19 time=2
note_off channel=0 note=72 velocity=64 time=1
note_off channel=0 note=84 velocity=64 time=0
note_off channel=0 note=100 velocity=64 time=0
note_off channel=0 note=60 velocity=64 time=1
note_off channel=0 note=101 velocity=64 time=1
note_off channel=0 note=51 velocity=64 time=1
note_off channel=0 note=63 velocity=64 time=0
note_off channel=0 note=75 velocity=64 time=0
note_off channel=0 note=79 velocity=64 time=0
note_off channel=0 note=82 velocity=64 time=0
note_off channel=0 note=91 velocity=64 time=0
note_off channel=0 note=94 velocity=64 time=0
note_off channel=0 note=87 velocity=64 time=1
note_on channel=0 note=87 velocity=34 time=8
note_on channel=0 note=56 velocity=32 time=1
note_on channel=0 note=92 velocity=30 time=0
note_on channel=0 note=84 velocity=36 time=1
note_on channel=0 note=77 velocity=20 time=2
note_on channel=0 note=90 velocity=20 time=2
note_off channel=0 note=56 velocity=64 time=4
note_off channel=0 note=77 velocity=64 time=0
note_off channel=0 note=84 velocity=64 time=0
note_off channel=0 note=87 velocity=64 time=0
note_off channel=0 note=90 velocity=64 time=0
note_off channel=0 note=92 velocity=64 time=0
note_off channel=0 note=68 velocity=64 time=3
note_on channel=0 note=63 velocity=31 time=6
note_on channel=0 note=75 velocity=36 time=0
note_on channel=0 note=94 velocity=46 time=0
note_on channel=0 note=72 velocity=27 time=1
note_on channel=0 note=78 velocity=28 time=0
note_on channel=0 note=84 velocity=29 time=0
note_on channel=0 note=91 velocity=41 time=0
note_on channel=0 note=82 velocity=33 time=1
note_on channel=0 note=87 velocity=37 time=0
note_on channel=0 note=70 velocity=23 time=1
note_off channel=0 note=78 velocity=64 time=1
note_on channel=0 note=79 velocity=46 time=0
note_on channel=0 note=97 velocity=10 time=0
note_on channel=0 note=101 velocity=17 time=0
note_on channel=0 note=51 velocity=22 time=3
note_off channel=0 note=72 velocity=64 time=0
note_off channel=0 note=84 velocity=64 time=0
note_off channel=0 note=91 velocity=64 time=2
note_off channel=0 note=97 velocity=64 time=0
note_off channel=0 note=101 velocity=64 time=0
note_off channel=0 note=51 velocity=64 time=1
note_off channel=0 note=63 velocity=64 time=0
note_off channel=0 note=70 velocity=64 time=0
note_off channel=0 note=75 velocity=64 time=0
note_off channel=0 note=79 velocity=64 time=0
note_off channel=0 note=82 velocity=64 time=0
note_off channel=0 note=94 velocity=64 time=0
note_off channel=0 note=87 velocity=64 time=1
note_on channel=0 note=80 velocity=48 time=9
note_on channel=0 note=87 velocity=43 time=0
note_on channel=0 note=56 velocity=41 time=1
note_on channel=0 note=68 velocity=41 time=1
note_on channel=0 note=75 velocity=11 time=0
note_on channel=0 note=77 velocity=33 time=0
note_on channel=0 note=84 velocity=46 time=0
note_on channel=0 note=90 velocity=31 time=1
note_off channel=0 note=75 velocity=64 time=2
note_on channel=0 note=72 velocity=18 time=1
note_on channel=0 note=94 velocity=21 time=2
note_on channel=0 note=63 velocity=11 time=1
note_on channel=0 note=44 velocity=9 time=1
note_on channel=0 note=100 velocity=11 time=0
note_off channel=0 note=44 velocity=64 time=5
note_off channel=0 note=63 velocity=64 time=0
note_off channel=0 note=72 velocity=64 time=0
note_off channel=0 note=94 velocity=64 time=0
note_off channel=0 note=100 velocity=64 time=0
note_off channel=0 note=56 velocity=64 time=1
note_off channel=0 note=68 velocity=64 time=0
note_off channel=0 note=77 velocity=64 time=0
note_off channel=0 note=80 velocity=64 time=0
note_off channel=0 note=84 velocity=64 time=0
note_off channel=0 note=87 velocity=64 time=0
note_off channel=0 note=90 velocity=64 time=0
note_on channel=0 note=63 velocity=31 time=3
note_on channel=0 note=75 velocity=38 time=0
note_on channel=0 note=84 velocity=35 time=0
note_on channel=0 note=94 velocity=46 time=0
note_on channel=0 note=72 velocity=35 time=1
note_on channel=0 note=82 velocity=33 time=1
note_on channel=0 note=91 velocity=39 time=0
note_on channel=0 note=60 velocity=24 time=1
note_on channel=0 note=70 velocity=21 time=0
note_on channel=0 note=100 velocity=15 time=0
note_on channel=0 note=79 velocity=50 time=1
note_on channel=0 note=101 velocity=15 time=0
note_off channel=0 note=60 velocity=64 time=3
note_off channel=0 note=72 velocity=64 time=0
note_off channel=0 note=84 velocity=64 time=0
note_off channel=0 note=100 velocity=64 time=0
note_off channel=0 note=63 velocity=64 time=2
note_off channel=0 note=70 velocity=64 time=0
note_off channel=0 note=75 velocity=64 time=0
note_off channel=0 note=79 velocity=64 time=0
note_off channel=0 note=82 velocity=64 time=0
note_off channel=0 note=91 velocity=64 time=0
note_off channel=0 note=94 velocity=64 time=0
note_off channel=0 note=101 velocity=64 time=0
note_on channel=0 note=68 velocity=56 time=11
note_on channel=0 note=75 velocity=16 time=0
note_on channel=0 note=87 velocity=48 time=0
note_on channel=0 note=92 velocity=45 time=0
note_on channel=0 note=56 velocity=43 time=1
note_on channel=0 note=84 velocity=45 time=0
note_on channel=0 note=77 velocity=29 time=1
note_on channel=0 note=90 velocity=30 time=1
note_on channel=0 note=44 velocity=14 time=1
note_off channel=0 note=75 velocity=64 time=0
note_on channel=0 note=94 velocity=20 time=0
note_off channel=0 note=44 velocity=64 time=5
note_off channel=0 note=84 velocity=64 time=1
note_off channel=0 note=94 velocity=64 time=0
note_off channel=0 note=56 velocity=64 time=1
note_off channel=0 note=77 velocity=64 time=0
note_off channel=0 note=90 velocity=64 time=0
note_off channel=0 note=92 velocity=64 time=2
note_on channel=0 note=63 velocity=27 time=6
note_on channel=0 note=72 velocity=33 time=0
note_on channel=0 note=84 velocity=35 time=0
note_on channel=0 note=91 velocity=40 time=0
note_on channel=0 note=75 velocity=28 time=1
note_on channel=0 note=94 velocity=41 time=0
note_on channel=0 note=60 velocity=27 time=1
note_on channel=0 note=82 velocity=27 time=0
note_on channel=0 note=100 velocity=12 time=1
note_on channel=0 note=79 velocity=52 time=1
note_off channel=0 note=72 velocity=64 time=3
note_off channel=0 note=84 velocity=64 time=0
note_off channel=0 note=100 velocity=64 time=0
note_off channel=0 note=60 velocity=64 time=1
note_off channel=0 note=63 velocity=64 time=0
note_off channel=0 note=82 velocity=64 time=0
note_off channel=0 note=91 velocity=64 time=0
note_off channel=0 note=75 velocity=64 time=1
note_off channel=0 note=79 velocity=64 time=0
note_off channel=0 note=87 velocity=64 time=0
note_off channel=0 note=94 velocity=64 time=0
note_off channel=0 note=68 velocity=64 time=6
note_on channel=0 note=68 velocity=53 time=5
note_on channel=0 note=55 velocity=37 time=1
note_on channel=0 note=87 velocity=39 time=0
note_on channel=0 note=92 velocity=37 time=1
note_on channel=0 note=84 velocity=40 time=1
note_off channel=0 note=55 velocity=64 time=1
note_on channel=0 note=56 velocity=33 time=0
note_on channel=0 note=77 velocity=22 time=1
note_on channel=0 note=90 velocity=22 time=0
note_on channel=0 note=72 velocity=9 time=3
note_off channel=0 note=72 velocity=64 time=3
note_off channel=0 note=84 velocity=64 time=0
note_off channel=0 note=56 velocity=64 time=1
note_off channel=0 note=77 velocity=64 time=0
note_off channel=0 note=90 velocity=64 time=0
note_off channel=0 note=92 velocity=64 time=0
note_off channel=0 note=87 velocity=64 time=3
note_on channel=0 note=63 velocity=28 time=5
note_on channel=0 note=75 velocity=32 time=1
note_on channel=0 note=91 velocity=38 time=0
note_on channel=0 note=94 velocity=41 time=0
note_on channel=0 note=72 velocity=30 time=1
note_on channel=0 note=82 velocity=29 time=0
note_on channel=0 note=84 velocity=33 time=0
note_on channel=0 note=60 velocity=21 time=2
note_on channel=0 note=51 velocity=19 time=1
note_on channel=0 note=79 velocity=49 time=0
note_on channel=0 note=101 velocity=13 time=0
note_off channel=0 note=60 velocity=64 time=2
note_off channel=0 note=84 velocity=64 time=0
note_off channel=0 note=72 velocity=64 time=1
note_off channel=0 note=101 velocity=64 time=0
note_off channel=0 note=51 velocity=64 time=1
note_off channel=0 note=63 velocity=64 time=0
note_off channel=0 note=75 velocity=64 time=0
note_off channel=0 note=79 velocity=64 time=0
note_off channel=0 note=82 velocity=64 time=0
note_off channel=0 note=91 velocity=64 time=0
note_off channel=0 note=94 velocity=64 time=0
note_off channel=0 note=68 velocity=64 time=8
note_on channel=0 note=75 velocity=60 time=0
note_on channel=0 note=55 velocity=33 time=4
note_on channel=0 note=80 velocity=45 time=1
note_off channel=0 note=55 velocity=64 time=1
note_on channel=0 note=56 velocity=37 time=0
note_on channel=0 note=84 velocity=40 time=0
note_on channel=0 note=77 velocity=26 time=1
note_on channel=0 note=102 velocity=21 time=0
note_on channel=0 note=90 velocity=29 time=1
note_on channel=0 note=72 velocity=14 time=3
note_on channel=0 note=94 velocity=23 time=1
note_off channel=0 note=84 velocity=64 time=3
note_off channel=0 note=56 velocity=64 time=1
note_off channel=0 note=72 velocity=64 time=0
note_off channel=0 note=77 velocity=64 time=0
note_off channel=0 note=90 velocity=64 time=0
note_off channel=0 note=94 velocity=64 time=0
note_off channel=0 note=102 velocity=64 time=0
note_off channel=0 note=80 velocity=64 time=1
note_on channel=0 note=73 velocity=49 time=3
note_on channel=0 note=84 velocity=45 time=2
note_on channel=0 note=97 velocity=15 time=0
note_on channel=0 note=63 velocity=26 time=1
note_on channel=0 note=91 velocity=40 time=0
note_on channel=0 note=60 velocity=40 time=1
note_on channel=0 note=94 velocity=38 time=0
note_on channel=0 note=100 velocity=24 time=0
note_on channel=0 note=79 velocity=57 time=1
note_on channel=0 note=70 velocity=14 time=1
note_on channel=0 note=82 velocity=27 time=0
note_on channel=0 note=88 velocity=41 time=0
note_off channel=0 note=63 velocity=64 time=2
note_on channel=0 note=67 velocity=11 time=0
note_off channel=0 note=97 velocity=64 time=1
note_off channel=0 note=70 velocity=64 time=1
note_off channel=0 note=75 velocity=64 time=0
note_off channel=0 note=88 velocity=64 time=0
note_off channel=0 note=67 velocity=64 time=1
note_off channel=0 note=82 velocity=64 time=0
note_off channel=0 note=100 velocity=64 time=0
note_off channel=0 note=60 velocity=64 time=1
note_off channel=0 note=79 velocity=64 time=0
note_off channel=0 note=84 velocity=64 time=0
note_off channel=0 note=91 velocity=64 time=0
note_off channel=0 note=94 velocity=64 time=0
note_on channel=0 note=75 velocity=9 time=1
note_on channel=0 note=72 velocity=57 time=6
note_off channel=0 note=73 velocity=64 time=0
note_on channel=0 note=91 velocity=19 time=0
note_on channel=0 note=96 velocity=32 time=0
note_off channel=0 note=75 velocity=64 time=1
note_on channel=0 note=56 velocity=29 time=2
note_on channel=0 note=87 velocity=32 time=1
note_on channel=0 note=92 velocity=35 time=0
note_on channel=0 note=68 velocity=30 time=4
note_on channel=0 note=80 velocity=35 time=0
note_on channel=0 note=77 velocity=23 time=1
note_on channel=0 note=90 velocity=20 time=0
note_on channel=0 note=94 velocity=9 time=3
note_off channel=0 note=94 velocity=64 time=3
note_off channel=0 note=56 velocity=64 time=4
note_off channel=0 note=90 velocity=64 time=0
note_off channel=0 note=91 velocity=64 time=0
note_off channel=0 note=92 velocity=64 time=0
note_off channel=0 note=96 velocity=64 time=0
note_off channel=0 note=77 velocity=64 time=1
note_off channel=0 note=80 velocity=64 time=0
note_off channel=0 note=87 velocity=64 time=0
note_off channel=0 note=68 velocity=64 time=1
note_on channel=0 note=70 velocity=56 time=0
note_off channel=0 note=72 velocity=64 time=1
note_on channel=0 note=84 velocity=39 time=0
note_on channel=0 note=89 velocity=17 time=0
note_on channel=0 note=91 velocity=39 time=0
note_on channel=0 note=60 velocity=29 time=1
note_on channel=0 note=63 velocity=20 time=0
note_on channel=0 note=75 velocity=23 time=0
note_on channel=0 note=94 velocity=34 time=0
note_on channel=0 note=100 velocity=20 time=1
note_on channel=0 note=79 velocity=44 time=1
note_on channel=0 note=88 velocity=34 time=1
note_off channel=0 note=63 velocity=64 time=1
note_off channel=0 note=75 velocity=64 time=1
note_off channel=0 note=84 velocity=64 time=0
note_off channel=0 note=94 velocity=64 time=0
note_off channel=0 note=60 velocity=64 time=1
note_off channel=0 note=79 velocity=64 time=0
note_off channel=0 note=88 velocity=64 time=0
note_off channel=0 note=91 velocity=64 time=0
note_off channel=0 note=100 velocity=64 time=0
note_off channel=0 note=89 velocity=64 time=2
note_on channel=0 note=68 velocity=53 time=11
note_on channel=0 note=51 velocity=35 time=1
note_on channel=0 note=63 velocity=40 time=0
note_off channel=0 note=70 velocity=64 time=0
note_on channel=0 note=82 velocity=50 time=0
note_on channel=0 note=87 velocity=48 time=0
note_on channel=0 note=79 velocity=43 time=1
note_on channel=0 note=75 velocity=47 time=1
note_on channel=0 note=85 velocity=39 time=0
note_on channel=0 note=89 velocity=34 time=2
note_on channel=0 note=39 velocity=10 time=4
note_on channel=0 note=93 velocity=29 time=0
note_on channel=0 note=102 velocity=13 time=0
note_off channel=0 note=39 velocity=64 time=3
note_off channel=0 note=102 velocity=64 time=1
note_off channel=0 note=51 velocity=64 time=1
note_off channel=0 note=79 velocity=64 time=0
note_off channel=0 note=93 velocity=64 time=0
note_off channel=0 note=63 velocity=64 time=1
note_off channel=0 note=75 velocity=64 time=0
note_off channel=0 note=82 velocity=64 time=0
note_off channel=0 note=85 velocity=64 time=0
note_off channel=0 note=89 velocity=64 time=0
note_off channel=0 note=87 velocity=64 time=3
note_on channel=0 note=77 velocity=29 time=3
note_on channel=0 note=79 velocity=47 time=0
note_on channel=0 note=87 velocity=9 time=0
note_on channel=0 note=94 velocity=21 time=0
note_on channel=0 note=55 velocity=32 time=1
note_on channel=0 note=70 velocity=42 time=0
note_on channel=0 note=86 velocity=29 time=0
note_on channel=0 note=95 velocity=27 time=0
note_off channel=0 note=68 velocity=64 time=1
note_on channel=0 note=74 velocity=34 time=0
note_on channel=0 note=92 velocity=25 time=0
note_on channel=0 note=68 velocity=44 time=1
note_on channel=0 note=83 velocity=23 time=0
note_off channel=0 note=87 velocity=64 time=0
note_on channel=0 note=93 velocity=31 time=0
note_on channel=0 note=96 velocity=14 time=0
note_on channel=0 note=99 velocity=16 time=1
note_off channel=0 note=68 velocity=64 time=1
note_on channel=0 note=68 velocity=47 time=1
note_off channel=0 note=70 velocity=64 time=0
note_off channel=0 note=77 velocity=64 time=1
note_off channel=0 note=94 velocity=64 time=0
note_off channel=0 note=79 velocity=64 time=1
note_off channel=0 note=92 velocity=64 time=0
note_off channel=0 note=96 velocity=64 time=0
note_off channel=0 note=99 velocity=64 time=0
note_off channel=0 note=55 velocity=64 time=1
note_off channel=0 note=74 velocity=64 time=0
note_off channel=0 note=83 velocity=64 time=0
note_off channel=0 note=86 velocity=64 time=0
note_off channel=0 note=93 velocity=64 time=0
note_off channel=0 note=95 velocity=64 time=0
note_off channel=0 note=68 velocity=64 time=8
note_on channel=0 note=51 velocity=28 time=2
note_on channel=0 note=87 velocity=35 time=1
note_on channel=0 note=64 velocity=47 time=1
note_on channel=0 note=75 velocity=54 time=0
note_on channel=0 note=79 velocity=38 time=0
note_on channel=0 note=82 velocity=43 time=0
note_on channel=0 note=85 velocity=25 time=0
note_on channel=0 note=70 velocity=23 time=1
note_on channel=0 note=63 velocity=54 time=1
note_off channel=0 note=64 velocity=64 time=0
note_on channel=0 note=89 velocity=11 time=1
note_on channel=0 note=92 velocity=14 time=1
note_off channel=0 note=89 velocity=64 time=2
note_off channel=0 note=92 velocity=64 time=1
note_off channel=0 note=51 velocity=64 time=2
note_off channel=0 note=79 velocity=64 time=0
note_off channel=0 note=70 velocity=64 time=1
note_off channel=0 note=85 velocity=64 time=0
note_off channel=0 note=87 velocity=64 time=0
note_on channel=0 note=67 velocity=38 time=8
note_on channel=0 note=79 velocity=53 time=0
note_on channel=0 note=55 velocity=37 time=1
note_on channel=0 note=70 velocity=38 time=0
note_on channel=0 note=86 velocity=34 time=0
note_on channel=0 note=95 velocity=29 time=0
note_on channel=0 note=77 velocity=25 time=1
note_on channel=0 note=89 velocity=31 time=0
note_on channel=0 note=93 velocity=35 time=0
note_on channel=0 note=83 velocity=27 time=1
note_off channel=0 note=82 velocity=64 time=1
note_on channel=0 note=74 velocity=37 time=1
note_on channel=0 note=92 velocity=15 time=0
note_off channel=0 note=75 velocity=64 time=1
note_off channel=0 note=77 velocity=64 time=2
note_off channel=0 note=89 velocity=64 time=0
note_off channel=0 note=92 velocity=64 time=0
note_off channel=0 note=55 velocity=64 time=1
note_off channel=0 note=70 velocity=64 time=0
note_off channel=0 note=74 velocity=64 time=0
note_off channel=0 note=83 velocity=64 time=0
note_off channel=0 note=93 velocity=64 time=0
note_off channel=0 note=95 velocity=64 time=0
note_off channel=0 note=67 velocity=64 time=1
note_off channel=0 note=86 velocity=64 time=0
note_off channel=0 note=79 velocity=64 time=6
note_on channel=0 note=51 velocity=32 time=4
note_on channel=0 note=72 velocity=43 time=1
note_on channel=0 note=82 velocity=48 time=0
note_on channel=0 note=79 velocity=42 time=1
note_on channel=0 note=87 velocity=43 time=0
note_on channel=0 note=70 velocity=30 time=2
note_on channel=0 note=85 velocity=33 time=0
note_on channel=0 note=89 velocity=26 time=1
note_on channel=0 note=92 velocity=22 time=1
note_on channel=0 note=77 velocity=10 time=3
note_off channel=0 note=92 velocity=64 time=0
note_on channel=0 note=93 velocity=16 time=0
note_off channel=0 note=70 velocity=64 time=3
note_off channel=0 note=77 velocity=64 time=0
note_off channel=0 note=51 velocity=64 time=1
note_off channel=0 note=63 velocity=64 time=0
note_off channel=0 note=79 velocity=64 time=0
note_off channel=0 note=82 velocity=64 time=0
note_off channel=0 note=85 velocity=64 time=0
note_off channel=0 note=87 velocity=64 time=0
note_off channel=0 note=89 velocity=64 time=0
note_off channel=0 note=93 velocity=64 time=0
note_off channel=0 note=72 velocity=64 time=7
note_on channel=0 note=73 velocity=48 time=0
note_on channel=0 note=54 velocity=30 time=1
note_on channel=0 note=67 velocity=36 time=0
note_on channel=0 note=79 velocity=55 time=0
note_on channel=0 note=77 velocity=27 time=1
note_on channel=0 note=82 velocity=22 time=0
note_on channel=0 note=86 velocity=27 time=0
note_on channel=0 note=89 velocity=30 time=0
note_on channel=0 note=95 velocity=27 time=0
note_on channel=0 note=97 velocity=9 time=0
note_off channel=0 note=54 velocity=64 time=1
note_on channel=0 note=55 velocity=38 time=0
note_on channel=0 note=70 velocity=42 time=0
note_on channel=0 note=93 velocity=33 time=0
note_on channel=0 note=94 velocity=23 time=0
note_on channel=0 note=92 velocity=18 time=1
note_on channel=0 note=83 velocity=27 time=1
note_on channel=0 note=96 velocity=14 time=0
note_off channel=0 note=82 velocity=64 time=2
note_off channel=0 note=97 velocity=64 time=0
note_off channel=0 note=70 velocity=64 time=1
note_off channel=0 note=77 velocity=64 time=0
note_off channel=0 note=89 velocity=64 time=0
note_off channel=0 note=92 velocity=64 time=0
note_off channel=0 note=94 velocity=64 time=0
note_off channel=0 note=96 velocity=64 time=0
note_off channel=0 note=55 velocity=64 time=1
note_off channel=0 note=67 velocity=64 time=0
note_off channel=0 note=83 velocity=64 time=0
note_off channel=0 note=86 velocity=64 time=0
note_off channel=0 note=93 velocity=64 time=0
note_off channel=0 note=95 velocity=64 time=0
note_off channel=0 note=79 velocity=64 time=2
note_on channel=0 note=51 velocity=30 time=8
note_on channel=0 note=63 velocity=41 time=1
note_on channel=0 note=72 velocity=41 time=0
note_off channel=0 note=73 velocity=64 time=0
note_on channel=0 note=82 velocity=48 time=0
note_on channel=0 note=87 velocity=43 time=0
note_on channel=0 note=70 velocity=31 time=1
note_on channel=0 note=75 velocity=45 time=0
note_on channel=0 note=79 velocity=47 time=0
note_on channel=0 note=85 velocity=40 time=0
note_on channel=0 note=89 velocity=34 time=3
note_on channel=0 note=92 velocity=22 time=1
note_off channel=0 note=92 velocity=64 time=3
note_on channel=0 note=93 velocity=30 time=1
note_on channel=0 note=102 velocity=16 time=1
note_on channel=0 note=77 velocity=17 time=2
note_off channel=0 note=72 velocity=64 time=4
note_off channel=0 note=51 velocity=64 time=1
note_on channel=0 note=72 velocity=18 time=0
note_off channel=0 note=77 velocity=64 time=0
note_off channel=0 note=85 velocity=64 time=0
note_off channel=0 note=102 velocity=64 time=0
note_off channel=0 note=63 velocity=64 time=1
note_off channel=0 note=70 velocity=64 time=0
note_off channel=0 note=75 velocity=64 time=0
note_off channel=0 note=79 velocity=64 time=0
note_off channel=0 note=82 velocity=64 time=0
note_off channel=0 note=87 velocity=64 time=0
note_off channel=0 note=89 velocity=64 time=0
note_off channel=0 note=93 velocity=64 time=0
note_on channel=0 note=67 velocity=27 time=1
note_on channel=0 note=55 velocity=34 time=1
note_on channel=0 note=70 velocity=58 time=0
note_off channel=0 note=72 velocity=64 time=0
note_on channel=0 note=79 velocity=43 time=0
note_on channel=0 note=89 velocity=20 time=0
note_on channel=0 note=77 velocity=23 time=1
note_on channel=0 note=86 velocity=28 time=0
note_on channel=0 note=95 velocity=18 time=0
note_off channel=0 note=55 velocity=64 time=2
note_on channel=0 note=92 velocity=17 time=0
note_off channel=0 note=67 velocity=64 time=1
note_off channel=0 note=95 velocity=64 time=0
note_off channel=0 note=79 velocity=64 time=1
note_off channel=0 note=77 velocity=64 time=1
note_off channel=0 note=86 velocity=64 time=0
note_off channel=0 note=92 velocity=64 time=0
note_off channel=0 note=89 velocity=64 time=4
note_on channel=0 note=89 velocity=17 time=10
note_on channel=0 note=55 velocity=33 time=1
note_on channel=0 note=80 velocity=41 time=1
note_on channel=0 note=87 velocity=37 time=0
note_on channel=0 note=92 velocity=41 time=0
note_off channel=0 note=55 velocity=64 time=1
note_on channel=0 note=56 velocity=36 time=0
note_on channel=0 note=84 velocity=39 time=1
note_on channel=0 note=77 velocity=22 time=1
note_on channel=0 note=102 velocity=17 time=0
note_on channel=0 note=44 velocity=10 time=1
note_off channel=0 note=89 velocity=64 time=1
note_on channel=0 note=90 velocity=27 time=0
note_on channel=0 note=94 velocity=17 time=0
note_off channel=0 note=44 velocity=64 time=2
note_off channel=0 note=84 velocity=64 time=3
note_off channel=0 note=56 velocity=64 time=1
note_off channel=0 note=77 velocity=64 time=0
note_off channel=0 note=87 velocity=64 time=0
note_off channel=0 note=102 velocity=64 time=0
note_off channel=0 note=80 velocity=64 time=1
note_off channel=0 note=90 velocity=64 time=0
note_off channel=0 note=92 velocity=64 time=0
note_off channel=0 note=94 velocity=64 time=0
note_on channel=0 note=63 velocity=31 time=6
note_on channel=0 note=84 velocity=38 time=0
note_on channel=0 note=91 velocity=44 time=0
note_on channel=0 note=75 velocity=33 time=1
note_on channel=0 note=87 velocity=37 time=0
note_on channel=0 note=94 velocity=45 time=0
note_on channel=0 note=60 velocity=29 time=1
note_on channel=0 note=72 velocity=37 time=0
note_on channel=0 note=100 velocity=17 time=0
note_on channel=0 note=79 velocity=45 time=1
note_on channel=0 note=101 velocity=12 time=1
note_off channel=0 note=72 velocity=64 time=2
note_off channel=0 note=84 velocity=64 time=0
note_off channel=0 note=60 velocity=64 time=1
note_off channel=0 note=100 velocity=64 time=0
note_off channel=0 note=87 velocity=64 time=1
note_off channel=0 note=63 velocity=64 time=1
note_off channel=0 note=75 velocity=64 time=0
note_off channel=0 note=79 velocity=64 time=0
note_off channel=0 note=91 velocity=64 time=0
note_off channel=0 note=94 velocity=64 time=0
note_off channel=0 note=101 velocity=64 time=0
note_on channel=0 note=68 velocity=51 time=9
note_off channel=0 note=70 velocity=64 time=0
note_on channel=0 note=55 velocity=36 time=1
note_on channel=0 note=87 velocity=44 time=0
note_on channel=0 note=84 velocity=45 time=2
note_off channel=0 note=55 velocity=64 time=1
note_on channel=0 note=56 velocity=39 time=0
note_on channel=0 note=77 velocity=27 time=0
note_on channel=0 note=90 velocity=26 time=0
note_on channel=0 note=63 velocity=15 time=2
note_on channel=0 note=94 velocity=11 time=0
note_on channel=0 note=72 velocity=17 time=2
note_off channel=0 note=56 velocity=64 time=2
note_off channel=0 note=63 velocity=64 time=0
note_off channel=0 note=72 velocity=64 time=1
note_off channel=0 note=77 velocity=64 time=0
note_off channel=0 note=84 velocity=64 time=0
note_off channel=0 note=90 velocity=64 time=0
note_off channel=0 note=94 velocity=64 time=0
note_off channel=0 note=87 velocity=64 time=5
note_on channel=0 note=63 velocity=30 time=3
note_on channel=0 note=87 velocity=38 time=0
note_on channel=0 note=75 velocity=38 time=1
note_on channel=0 note=91 velocity=44 time=0
note_on channel=0 note=94 velocity=46 time=0
note_on channel=0 note=72 velocity=34 time=1
note_on channel=0 note=82 velocity=32 time=0
note_on channel=0 note=84 velocity=36 time=0
note_on channel=0 note=100 velocity=13 time=2
note_on channel=0 note=60 velocity=25 time=1
note_on channel=0 note=79 velocity=54 time=0
note_on channel=0 note=101 velocity=15 time=0
note_on channel=0 note=51 velocity=18 time=2
note_off channel=0 note=72 velocity=64 time=1
note_off channel=0 note=84 velocity=64 time=0
note_off channel=0 note=100 velocity=64 time=0
note_off channel=0 note=60 velocity=64 time=1
note_off channel=0 note=82 velocity=64 time=0
note_off channel=0 note=91 velocity=64 time=0
note_off channel=0 note=51 velocity=64 time=1
note_off channel=0 note=63 velocity=64 time=0
note_off channel=0 note=75 velocity=64 time=0
note_off channel=0 note=79 velocity=64 time=0
note_off channel=0 note=87 velocity=64 time=0
note_off channel=0 note=94 velocity=64 time=0
note_off channel=0 note=101 velocity=64 time=0
note_on channel=0 note=72 velocity=49 time=11
note_on channel=0 note=91 velocity=11 time=1
note_on channel=0 note=96 velocity=17 time=0
note_on channel=0 note=87 velocity=35 time=1
note_on channel=0 note=92 velocity=34 time=0
note_on channel=0 note=56 velocity=32 time=1
note_off channel=0 note=68 velocity=64 time=0
note_on channel=0 note=80 velocity=38 time=2
note_on channel=0 note=77 velocity=19 time=1
note_on channel=0 note=90 velocity=23 time=0
note_off channel=0 note=91 velocity=64 time=0
note_off channel=0 note=77 velocity=64 time=6
note_off channel=0 note=87 velocity=64 time=0
note_off channel=0 note=90 velocity=64 time=0
note_off channel=0 note=96 velocity=64 time=0
note_off channel=0 note=56 velocity=64 time=1
note_off channel=0 note=80 velocity=64 time=0
note_off channel=0 note=92 velocity=64 time=0
note_off channel=0 note=72 velocity=64 time=7
note_on channel=0 note=73 velocity=48 time=0
note_on channel=0 note=75 velocity=32 time=0
note_on channel=0 note=63 velocity=30 time=1
note_on channel=0 note=87 velocity=36 time=0
note_on channel=0 note=94 velocity=46 time=0
note_on channel=0 note=84 velocity=37 time=1
note_on channel=0 note=91 velocity=44 time=0
note_on channel=0 note=60 velocity=28 time=1
note_on channel=0 note=70 velocity=19 time=0
note_on channel=0 note=82 velocity=31 time=0
note_on channel=0 note=100 velocity=18 time=0
note_on channel=0 note=79 velocity=46 time=2
note_on channel=0 note=97 velocity=11 time=0
note_on channel=0 note=101 velocity=12 time=1
note_off channel=0 note=84 velocity=64 time=2
note_off channel=0 note=97 velocity=64 time=0
note_off channel=0 note=100 velocity=64 time=0
note_off channel=0 note=60 velocity=64 time=1
note_off channel=0 note=63 velocity=64 time=0
note_off channel=0 note=70 velocity=64 time=0
note_off channel=0 note=75 velocity=64 time=0
note_off channel=0 note=82 velocity=64 time=0
note_off channel=0 note=87 velocity=64 time=0
note_off channel=0 note=101 velocity=64 time=0
note_off channel=0 note=79 velocity=64 time=1
note_off channel=0 note=91 velocity=64 time=0
note_off channel=0 note=94 velocity=64 time=0
note_on channel=0 note=72 velocity=52 time=7
note_off channel=0 note=73 velocity=64 time=1
note_on channel=0 note=91 velocity=11 time=1
note_on channel=0 note=96 velocity=19 time=0
note_on channel=0 note=56 velocity=31 time=1
note_on channel=0 note=87 velocity=34 time=1
note_on channel=0 note=92 velocity=36 time=1
note_on channel=0 note=77 velocity=20 time=2
note_on channel=0 note=80 velocity=38 time=1
note_on channel=0 note=90 velocity=22 time=2
note_off channel=0 note=91 velocity=64 time=0
note_on channel=0 note=94 velocity=14 time=2
note_off channel=0 note=94 velocity=64 time=3
note_off channel=0 note=56 velocity=64 time=1
note_off channel=0 note=77 velocity=64 time=0
note_off channel=0 note=87 velocity=64 time=0
note_off channel=0 note=90 velocity=64 time=0
note_off channel=0 note=92 velocity=64 time=0
note_off channel=0 note=96 velocity=64 time=0
note_off channel=0 note=80 velocity=64 time=1
note_on channel=0 note=70 velocity=55 time=3
note_off channel=0 note=72 velocity=64 time=1
note_on channel=0 note=89 velocity=16 time=0
note_on channel=0 note=84 velocity=31 time=2
note_on channel=0 note=91 velocity=43 time=0
note_on channel=0 note=94 velocity=36 time=0
note_on channel=0 note=63 velocity=26 time=1
note_on channel=0 note=75 velocity=29 time=1
note_on channel=0 note=100 velocity=16 time=0
note_on channel=0 note=60 velocity=23 time=1
note_on channel=0 note=79 velocity=40 time=0
note_on channel=0 note=88 velocity=32 time=0
note_on channel=0 note=87 velocity=33 time=1
note_off channel=0 note=88 velocity=64 time=1
note_off channel=0 note=60 velocity=64 time=1
note_off channel=0 note=84 velocity=64 time=0
note_off channel=0 note=100 velocity=64 time=0
note_off channel=0 note=63 velocity=64 time=1
note_off channel=0 note=75 velocity=64 time=0
note_off channel=0 note=79 velocity=64 time=0
note_off channel=0 note=91 velocity=64 time=0
note_off channel=0 note=87 velocity=64 time=1
note_off channel=0 note=94 velocity=64 time=0
note_off channel=0 note=89 velocity=64 time=1
note_off channel=0 note=70 velocity=64 time=10
note_on channel=0 note=87 velocity=41 time=0
note_on channel=0 note=92 velocity=41 time=0
note_on channel=0 note=56 velocity=39 time=1
note_on channel=0 note=70 velocity=57 time=0
note_on channel=0 note=80 velocity=40 time=0
note_on channel=0 note=89 velocity=19 time=0
note_on channel=0 note=84 velocity=42 time=1
note_on channel=0 note=77 velocity=23 time=1
note_on channel=0 note=90 velocity=27 time=0
note_on channel=0 note=94 velocity=15 time=0
note_off channel=0 note=94 velocity=64 time=3
note_off channel=0 note=89 velocity=64 time=2
note_on channel=0 note=94 velocity=22 time=0
note_off channel=0 note=56 velocity=64 time=3
note_off channel=0 note=77 velocity=64 time=0
note_off channel=0 note=84 velocity=64 time=0
note_off channel=0 note=87 velocity=64 time=0
note_on channel=0 note=89 velocity=9 time=0
note_off channel=0 note=90 velocity=64 time=0
note_off channel=0 note=94 velocity=64 time=0
note_off channel=0 note=80 velocity=64 time=1
note_off channel=0 note=92 velocity=64 time=0
note_on channel=0 note=63 velocity=31 time=7
note_on channel=0 note=87 velocity=37 time=0
note_on channel=0 note=91 velocity=37 time=0
note_on channel=0 note=94 velocity=47 time=0
note_on channel=0 note=75 velocity=35 time=1
note_on channel=0 note=84 velocity=33 time=0
note_on channel=0 note=72 velocity=33 time=2
note_on channel=0 note=100 velocity=11 time=0
note_on channel=0 note=79 velocity=32 time=1
note_off channel=0 note=89 velocity=64 time=0
note_on channel=0 note=101 velocity=15 time=1
note_off channel=0 note=72 velocity=64 time=1
note_off channel=0 note=84 velocity=64 time=0
note_off channel=0 note=100 velocity=64 time=0
note_off channel=0 note=63 velocity=64 time=3
note_off channel=0 note=75 velocity=64 time=0
note_off channel=0 note=79 velocity=64 time=0
note_off channel=0 note=87 velocity=64 time=0
note_off channel=0 note=91 velocity=64 time=0
note_off channel=0 note=94 velocity=64 time=0
note_off channel=0 note=101 velocity=64 time=0
note_on channel=0 note=55 velocity=35 time=10
note_on channel=0 note=63 velocity=16 time=0
note_on channel=0 note=80 velocity=47 time=0
note_on channel=0 note=87 velocity=46 time=0
note_on channel=0 note=68 velocity=50 time=1
note_off channel=0 note=55 velocity=64 time=1
note_on channel=0 note=56 velocity=41 time=0
note_off channel=0 note=70 velocity=64 time=0
note_on channel=0 note=77 velocity=25 time=0
note_on channel=0 note=84 velocity=45 time=0
note_off channel=0 note=63 velocity=64 time=1
note_on channel=0 note=102 velocity=19 time=0
note_on channel=0 note=90 velocity=27 time=1
note_on channel=0 note=72 velocity=11 time=2
note_off channel=0 note=56 velocity=64 time=4
note_off channel=0 note=72 velocity=64 time=0
note_off channel=0 note=77 velocity=64 time=0
note_off channel=0 note=84 velocity=64 time=0
note_off channel=0 note=87 velocity=64 time=0
note_off channel=0 note=90 velocity=64 time=0
note_off channel=0 note=102 velocity=64 time=0
note_on channel=0 note=87 velocity=12 time=3
note_off channel=0 note=87 velocity=64 time=3
note_on channel=0 note=63 velocity=33 time=3
note_on channel=0 note=84 velocity=48 time=0
note_on channel=0 note=72 velocity=46 time=1
note_on channel=0 note=75 velocity=38 time=0
note_on channel=0 note=91 velocity=51 time=0
note_on channel=0 note=94 velocity=44 time=0
note_on channel=0 note=60 velocity=35 time=1
note_on channel=0 note=78 velocity=36 time=0
note_on channel=0 note=82 velocity=31 time=0
note_on channel=0 note=100 velocity=24 time=1
note_off channel=0 note=78 velocity=64 time=1
note_on channel=0 note=79 velocity=59 time=0
note_on channel=0 note=88 velocity=44 time=0
note_on channel=0 note=101 velocity=14 time=0
note_off channel=0 note=80 velocity=64 time=1
note_off channel=0 note=63 velocity=64 time=1
note_off channel=0 note=75 velocity=64 time=1
note_off channel=0 note=84 velocity=64 time=0
note_off channel=0 note=88 velocity=64 time=0
note_off channel=0 note=100 velocity=64 time=0
note_off channel=0 note=101 velocity=64 time=0
note_off channel=0 note=60 velocity=64 time=1
note_off channel=0 note=72 velocity=64 time=0
note_off channel=0 note=82 velocity=64 time=0
note_off channel=0 note=94 velocity=64 time=0
note_off channel=0 note=79 velocity=64 time=1
note_off channel=0 note=91 velocity=64 time=0
note_on channel=0 note=87 velocity=41 time=10
note_on channel=0 note=92 velocity=41 time=1
note_on channel=0 note=56 velocity=39 time=1
note_on channel=0 note=75 velocity=9 time=0
note_on channel=0 note=77 velocity=29 time=1
note_on channel=0 note=84 velocity=45 time=0
note_on channel=0 note=90 velocity=31 time=1
note_off channel=0 note=68 velocity=64 time=1
note_on channel=0 note=71 velocity=12 time=0
note_off channel=0 note=75 velocity=64 time=0
note_on channel=0 note=94 velocity=21 time=0
note_on channel=0 note=63 velocity=12 time=1
note_off channel=0 note=71 velocity=64 time=2
note_on channel=0 note=72 velocity=14 time=0
note_off channel=0 note=63 velocity=64 time=3
note_off channel=0 note=72 velocity=64 time=0
note_off channel=0 note=84 velocity=64 time=0
note_off channel=0 note=90 velocity=64 time=0
note_off channel=0 note=94 velocity=64 time=0
note_off channel=0 note=56 velocity=64 time=1
note_off channel=0 note=77 velocity=64 time=0
note_off channel=0 note=87 velocity=64 time=0
note_off channel=0 note=92 velocity=64 time=0
note_on channel=0 note=72 velocity=44 time=6
note_on channel=0 note=84 velocity=46 time=0
note_on channel=0 note=63 velocity=31 time=1
note_on channel=0 note=87 velocity=19 time=0
note_on channel=0 note=91 velocity=52 time=0
note_on channel=0 note=60 velocity=40 time=1
note_on channel=0 note=75 velocity=36 time=0
note_on channel=0 note=94 velocity=43 time=0
note_on channel=0 note=100 velocity=24 time=0
note_on channel=0 note=79 velocity=61 time=1
note_on channel=0 note=82 velocity=33 time=0
note_on channel=0 note=88 velocity=42 time=1
note_off channel=0 note=87 velocity=64 time=1
note_on channel=0 note=87 velocity=43 time=1
note_on channel=0 note=101 velocity=15 time=0
note_on channel=0 note=86 velocity=13 time=1
note_off channel=0 note=88 velocity=64 time=0
note_off channel=0 note=87 velocity=64 time=1
note_on channel=0 note=88 velocity=30 time=0
note_off channel=0 note=60 velocity=64 time=1
note_off channel=0 note=72 velocity=64 time=0
note_off channel=0 note=100 velocity=64 time=0
note_off channel=0 note=63 velocity=64 time=1
note_off channel=0 note=82 velocity=64 time=0
note_off channel=0 note=84 velocity=64 time=0
note_off channel=0 note=86 velocity=64 time=0
note_off channel=0 note=88 velocity=64 time=0
note_off channel=0 note=91 velocity=64 time=0
note_off channel=0 note=101 velocity=64 time=0
note_off channel=0 note=75 velocity=64 time=1
note_off channel=0 note=79 velocity=64 time=0
note_off channel=0 note=94 velocity=64 time=0
note_on channel=0 note=87 velocity=37 time=8
note_on channel=0 note=80 velocity=42 time=1
note_on channel=0 note=56 velocity=35 time=1
note_on channel=0 note=84 velocity=39 time=1
note_on channel=0 note=77 velocity=25 time=1
note_on channel=0 note=102 velocity=14 time=0
note_on channel=0 note=90 velocity=26 time=1
note_on channel=0 note=72 velocity=13 time=3
note_on channel=0 note=94 velocity=12 time=1
note_off channel=0 note=94 velocity=64 time=3
note_off channel=0 note=56 velocity=64 time=2
note_off channel=0 note=72 velocity=64 time=0
note_off channel=0 note=77 velocity=64 time=0
note_off channel=0 note=90 velocity=64 time=0
note_off channel=0 note=102 velocity=64 time=0
note_off channel=0 note=80 velocity=64 time=1
note_off channel=0 note=84 velocity=64 time=0
note_off channel=0 note=87 velocity=64 time=0
note_on channel=0 note=63 velocity=32 time=5
note_on channel=0 note=72 velocity=47 time=0
note_on channel=0 note=79 velocity=24 time=0
note_on channel=0 note=84 velocity=47 time=0
note_on channel=0 note=91 velocity=46 time=0
note_on channel=0 note=75 velocity=39 time=1
note_on channel=0 note=94 velocity=42 time=0
note_on channel=0 note=60 velocity=39 time=1
note_on channel=0 note=82 velocity=32 time=0
note_on channel=0 note=100 velocity=25 time=0
note_on channel=0 note=70 velocity=16 time=1
note_off channel=0 note=79 velocity=64 time=0
note_on channel=0 note=79 velocity=62 time=1
note_on channel=0 note=88 velocity=43 time=0
note_on channel=0 note=101 velocity=13 time=1
note_on channel=0 note=86 velocity=14 time=1
note_off channel=0 note=70 velocity=64 time=1
note_off channel=0 note=88 velocity=64 time=1
note_off channel=0 note=60 velocity=64 time=1
note_off channel=0 note=63 velocity=64 time=0
note_off channel=0 note=72 velocity=64 time=0
note_off channel=0 note=82 velocity=64 time=0
note_off channel=0 note=86 velocity=64 time=0
note_off channel=0 note=91 velocity=64 time=0
note_off channel=0 note=100 velocity=64 time=0
note_off channel=0 note=101 velocity=64 time=0
note_off channel=0 note=75 velocity=64 time=1
note_off channel=0 note=79 velocity=64 time=0
note_off channel=0 note=84 velocity=64 time=0
note_off channel=0 note=94 velocity=64 time=0
note_on channel=0 note=68 velocity=55 time=9
note_on channel=0 note=55 velocity=46 time=1
note_on channel=0 note=87 velocity=45 time=0
note_on channel=0 note=84 velocity=44 time=1
note_on channel=0 note=92 velocity=45 time=0
note_on channel=0 note=77 velocity=28 time=1
note_off channel=0 note=55 velocity=64 time=1
note_on channel=0 note=56 velocity=41 time=0
note_on channel=0 note=102 velocity=21 time=0
note_on channel=0 note=90 velocity=31 time=1
note_on channel=0 note=72 velocity=15 time=3
note_on channel=0 note=94 velocity=20 time=0
note_off channel=0 note=72 velocity=64 time=3
note_off channel=0 note=84 velocity=64 time=0
note_off channel=0 note=102 velocity=64 time=0
note_off channel=0 note=56 velocity=64 time=1
note_off channel=0 note=77 velocity=64 time=0
note_off channel=0 note=90 velocity=64 time=0
note_off channel=0 note=94 velocity=64 time=0
note_off channel=0 note=92 velocity=64 time=1
note_off channel=0 note=87 velocity=64 time=2
note_on channel=0 note=63 velocity=27 time=4
note_on channel=0 note=84 velocity=36 time=0
note_on channel=0 note=91 velocity=42 time=0
note_on channel=0 note=94 velocity=42 time=0
note_on channel=0 note=72 velocity=35 time=1
note_on channel=0 note=75 velocity=34 time=0
note_on channel=0 note=82 velocity=29 time=1
note_on channel=0 note=60 velocity=29 time=1
note_on channel=0 note=100 velocity=17 time=0
note_on channel=0 note=79 velocity=43 time=1
note_on channel=0 note=88 velocity=34 time=1
note_on channel=0 note=101 velocity=15 time=0
note_off channel=0 note=63 velocity=64 time=2
note_off channel=0 note=88 velocity=64 time=0
note_off channel=0 note=100 velocity=64 time=1
note_off channel=0 note=60 velocity=64 time=1
note_off channel=0 note=72 velocity=64 time=0
note_off channel=0 note=75 velocity=64 time=0
note_off channel=0 note=82 velocity=64 time=0
note_off channel=0 note=84 velocity=64 time=0
note_off channel=0 note=91 velocity=64 time=0
note_off channel=0 note=94 velocity=64 time=0
note_off channel=0 note=101 velocity=64 time=0
note_off channel=0 note=79 velocity=64 time=1
note_off channel=0 note=68 velocity=64 time=4
note_on channel=0 note=68 velocity=53 time=5
note_on channel=0 note=56 velocity=39 time=2
note_on channel=0 note=87 velocity=44 time=0
note_on channel=0 note=92 velocity=44 time=0
note_on channel=0 note=44 velocity=13 time=2
note_on channel=0 note=84 velocity=41 time=0
note_on channel=0 note=77 velocity=30 time=1
note_on channel=0 note=102 velocity=21 time=0
note_on channel=0 note=90 velocity=29 time=1
note_on channel=0 note=72 velocity=17 time=2
note_on channel=0 note=94 velocity=20 time=2
note_on channel=0 note=63 velocity=10 time=1
note_off channel=0 note=84 velocity=64 time=2
note_on channel=0 note=84 velocity=38 time=1
note_off channel=0 note=44 velocity=64 time=1
note_off channel=0 note=63 velocity=64 time=1
note_off channel=0 note=92 velocity=64 time=0
note_off channel=0 note=102 velocity=64 time=0
note_off channel=0 note=56 velocity=64 time=1
note_off channel=0 note=72 velocity=64 time=0
note_off channel=0 note=77 velocity=64 time=0
note_off channel=0 note=90 velocity=64 time=0
note_off channel=0 note=94 velocity=64 time=0
note_off channel=0 note=84 velocity=64 time=1
note_off channel=0 note=87 velocity=64 time=1
note_on channel=0 note=63 velocity=31 time=1
note_on channel=0 note=75 velocity=34 time=2
note_on channel=0 note=91 velocity=37 time=0
note_on channel=0 note=94 velocity=44 time=0
note_on channel=0 note=72 velocity=30 time=1
note_on channel=0 note=82 velocity=30 time=0
note_on channel=0 note=84 velocity=36 time=0
note_on channel=0 note=87 velocity=34 time=0
note_on channel=0 note=60 velocity=23 time=2
note_on channel=0 note=78 velocity=31 time=0
note_on channel=0 note=100 velocity=13 time=0
note_on channel=0 note=51 velocity=21 time=1
note_on channel=0 note=101 velocity=13 time=0
note_off channel=0 note=78 velocity=64 time=1
note_on channel=0 note=79 velocity=46 time=0
note_on channel=0 note=88 velocity=32 time=0
note_off channel=0 note=84 velocity=64 time=1
note_off channel=0 note=87 velocity=64 time=0
note_off channel=0 note=51 velocity=64 time=1
note_off channel=0 note=72 velocity=64 time=0
note_off channel=0 note=88 velocity=64 time=0
note_off channel=0 note=100 velocity=64 time=0
note_off channel=0 note=60 velocity=64 time=1
note_off channel=0 note=63 velocity=64 time=0
note_off channel=0 note=79 velocity=64 time=0
note_off channel=0 note=82 velocity=64 time=0
note_off channel=0 note=91 velocity=64 time=0
note_off channel=0 note=101 velocity=64 time=0
note_off channel=0 note=75 velocity=64 time=1
note_off channel=0 note=94 velocity=64 time=0
note_on channel=0 note=75 velocity=61 time=10
note_off channel=0 note=68 velocity=64 time=1
note_on channel=0 note=92 velocity=43 time=2
note_on channel=0 note=56 velocity=39 time=1
note_on channel=0 note=80 velocity=42 time=1
note_on channel=0 note=84 velocity=42 time=0
note_on channel=0 note=77 velocity=26 time=1
note_on channel=0 note=102 velocity=20 time=0
note_on channel=0 note=90 velocity=27 time=1
note_on channel=0 note=72 velocity=15 time=4
note_on channel=0 note=94 velocity=17 time=0
note_on channel=0 note=44 velocity=9 time=1
note_on channel=0 note=63 velocity=9 time=0
note_off channel=0 note=94 velocity=64 time=2
note_off channel=0 note=44 velocity=64 time=1
note_off channel=0 note=63 velocity=64 time=0
note_off channel=0 note=72 velocity=64 time=0
note_off channel=0 note=102 velocity=64 time=0
note_off channel=0 note=56 velocity=64 time=1
note_off channel=0 note=77 velocity=64 time=0
note_off channel=0 note=80 velocity=64 time=0
note_off channel=0 note=84 velocity=64 time=0
note_off channel=0 note=90 velocity=64 time=0
note_off channel=0 note=92 velocity=64 time=0
note_on channel=0 note=73 velocity=47 time=2
note_on channel=0 note=97 velocity=9 time=2
note_on channel=0 note=84 velocity=33 time=2
note_on channel=0 note=91 velocity=43 time=0
note_on channel=0 note=63 velocity=26 time=1
note_on channel=0 note=94 velocity=37 time=0
note_on channel=0 note=60 velocity=31 time=1
note_on channel=0 note=79 velocity=55 time=0
note_on channel=0 note=100 velocity=14 time=0
note_on channel=0 note=82 velocity=27 time=1
note_on channel=0 note=88 velocity=30 time=0
note_on channel=0 note=70 velocity=13 time=1
note_off channel=0 note=88 velocity=64 time=1
note_off channel=0 note=97 velocity=64 time=1
note_off channel=0 note=70 velocity=64 time=1
note_off channel=0 note=63 velocity=64 time=1
note_off channel=0 note=100 velocity=64 time=0
note_off channel=0 note=60 velocity=64 time=1
note_off channel=0 note=79 velocity=64 time=0
note_off channel=0 note=82 velocity=64 time=0
note_off channel=0 note=84 velocity=64 time=0
note_off channel=0 note=91 velocity=64 time=0
note_off channel=0 note=94 velocity=64 time=0
note_off channel=0 note=75 velocity=64 time=3
note_on channel=0 note=72 velocity=50 time=4
note_off channel=0 note=73 velocity=64 time=0
note_on channel=0 note=91 velocity=13 time=1
note_on channel=0 note=96 velocity=26 time=1
note_on channel=0 note=55 velocity=40 time=1
note_on channel=0 note=75 velocity=19 time=0
note_on channel=0 note=80 velocity=47 time=0
note_on channel=0 note=87 velocity=45 time=0
note_on channel=0 note=68 velocity=42 time=1
note_on channel=0 note=77 velocity=32 time=0
note_off channel=0 note=55 velocity=64 time=1
note_on channel=0 note=56 velocity=42 time=0
note_on channel=0 note=90 velocity=33 time=1
note_off channel=0 note=91 velocity=64 time=0
note_off channel=0 note=75 velocity=64 time=1
note_on channel=0 note=63 velocity=14 time=1
note_on channel=0 note=44 velocity=11 time=2
note_on channel=0 note=94 velocity=19 time=0
note_on channel=0 note=100 velocity=15 time=3
note_on channel=0 note=103 velocity=10 time=1
note_off channel=0 note=44 velocity=64 time=4
note_off channel=0 note=63 velocity=64 time=0
note_off channel=0 note=100 velocity=64 time=0
note_off channel=0 note=103 velocity=64 time=0
note_off channel=0 note=56 velocity=64 time=1
note_off channel=0 note=77 velocity=64 time=0
note_off channel=0 note=80 velocity=64 time=0
note_off channel=0 note=87 velocity=64 time=0
note_off channel=0 note=90 velocity=64 time=0
note_off channel=0 note=94 velocity=64 time=0
note_off channel=0 note=96 velocity=64 time=0
note_off channel=0 note=68 velocity=64 time=1
note_on channel=0 note=70 velocity=56 time=0
note_off channel=0 note=72 velocity=64 time=0
note_on channel=0 note=89 velocity=18 time=1
note_on channel=0 note=84 velocity=41 time=1
note_on channel=0 note=91 velocity=42 time=0
note_on channel=0 note=94 velocity=39 time=0
note_on channel=0 note=63 velocity=26 time=1
note_on channel=0 note=75 velocity=29 time=0
note_on channel=0 note=78 velocity=28 time=0
note_on channel=0 note=100 velocity=17 time=1
note_on channel=0 note=87 velocity=29 time=1
note_off channel=0 note=89 velocity=64 time=1
note_off channel=0 note=63 velocity=64 time=1
note_off channel=0 note=75 velocity=64 time=0
note_off channel=0 note=91 velocity=64 time=0
note_off channel=0 note=100 velocity=64 time=0
note_off channel=0 note=78 velocity=64 time=1
note_off channel=0 note=84 velocity=64 time=0
note_off channel=0 note=87 velocity=64 time=0
note_off channel=0 note=94 velocity=64 time=0
note_on channel=0 note=68 velocity=49 time=13
note_on channel=0 note=51 velocity=33 time=1
note_on channel=0 note=63 velocity=40 time=0
note_off channel=0 note=70 velocity=64 time=1
note_on channel=0 note=82 velocity=50 time=0
note_on channel=0 note=87 velocity=46 time=0
note_on channel=0 note=75 velocity=46 time=1
note_on channel=0 note=79 velocity=45 time=0
note_on channel=0 note=85 velocity=36 time=1
note_on channel=0 note=37 velocity=18 time=1
note_on channel=0 note=89 velocity=29 time=1
note_off channel=0 note=37 velocity=64 time=3
note_on channel=0 note=93 velocity=19 time=1
note_off channel=0 note=51 velocity=64 time=4
note_off channel=0 note=63 velocity=64 time=0
note_off channel=0 note=75 velocity=64 time=0
note_off channel=0 note=79 velocity=64 time=0
note_off channel=0 note=82 velocity=64 time=0
note_off channel=0 note=85 velocity=64 time=0
note_off channel=0 note=89 velocity=64 time=0
note_off channel=0 note=93 velocity=64 time=0
note_off channel=0 note=87 velocity=64 time=6
note_on channel=0 note=79 velocity=54 time=1
note_on channel=0 note=55 velocity=37 time=1
note_on channel=0 note=89 velocity=24 time=0
note_on channel=0 note=95 velocity=31 time=0
note_on channel=0 note=74 velocity=37 time=1
note_on channel=0 note=77 velocity=27 time=0
note_on channel=0 note=82 velocity=22 time=0
note_on channel=0 note=93 velocity=35 time=0
note_on channel=0 note=94 velocity=26 time=0
note_on channel=0 note=70 velocity=41 time=1
note_on channel=0 note=83 velocity=28 time=0
note_off channel=0 note=68 velocity=64 time=1
note_on channel=0 note=92 velocity=18 time=0
note_on channel=0 note=96 velocity=12 time=1
note_on channel=0 note=99 velocity=13 time=0
note_on channel=0 note=62 velocity=10 time=1
note_on channel=0 note=67 velocity=42 time=1
note_off channel=0 note=94 velocity=64 time=0
note_off channel=0 note=77 velocity=64 time=1
note_off channel=0 note=82 velocity=64 time=0
note_off channel=0 note=92 velocity=64 time=0
note_off channel=0 note=99 velocity=64 time=0
note_off channel=0 note=62 velocity=64 time=1
note_off channel=0 note=70 velocity=64 time=0
note_off channel=0 note=89 velocity=64 time=0
note_off channel=0 note=96 velocity=64 time=0
note_off channel=0 note=55 velocity=64 time=1
note_off channel=0 note=79 velocity=64 time=0
note_off channel=0 note=83 velocity=64 time=0
note_off channel=0 note=93 velocity=64 time=0
note_off channel=0 note=95 velocity=64 time=0
note_off channel=0 note=67 velocity=64 time=1
note_off channel=0 note=74 velocity=64 time=0
note_on channel=0 note=75 velocity=56 time=8
note_on channel=0 note=63 velocity=58 time=1
note_on channel=0 note=82 velocity=46 time=0
note_on channel=0 note=51 velocity=28 time=2
note_on channel=0 note=91 velocity=22 time=0
note_on channel=0 note=70 velocity=23 time=1
note_on channel=0 note=79 velocity=37 time=0
note_on channel=0 note=85 velocity=27 time=1
note_on channel=0 note=89 velocity=15 time=1
note_on channel=0 note=92 velocity=16 time=1
note_off channel=0 note=89 velocity=64 time=2
note_on channel=0 note=89 velocity=22 time=1
note_off channel=0 note=92 velocity=64 time=0
note_off channel=0 note=51 velocity=64 time=3
note_off channel=0 note=70 velocity=64 time=0
note_off channel=0 note=79 velocity=64 time=0
note_off channel=0 note=85 velocity=64 time=0
note_off channel=0 note=89 velocity=64 time=0
note_off channel=0 note=91 velocity=64 time=0
note_on channel=0 note=67 velocity=31 time=7
note_on channel=0 note=70 velocity=41 time=0
note_on channel=0 note=79 velocity=49 time=0
note_on channel=0 note=86 velocity=35 time=1
note_on channel=0 note=89 velocity=25 time=0
note_on channel=0 note=77 velocity=29 time=1
note_on channel=0 note=95 velocity=23 time=0
note_on channel=0 note=55 velocity=32 time=1
note_on channel=0 note=92 velocity=20 time=0
note_on channel=0 note=93 velocity=29 time=0
note_on channel=0 note=83 velocity=23 time=1
note_on channel=0 note=96 velocity=13 time=0
note_on channel=0 note=99 velocity=14 time=1
note_off channel=0 note=77 velocity=64 time=3
note_off channel=0 note=83 velocity=64 time=0
note_off channel=0 note=89 velocity=64 time=0
note_off channel=0 note=96 velocity=64 time=0
note_off channel=0 note=99 velocity=64 time=0
note_off channel=0 note=55 velocity=64 time=1
note_off channel=0 note=67 velocity=64 time=0
note_off channel=0 note=70 velocity=64 time=0
note_off channel=0 note=79 velocity=64 time=0
note_off channel=0 note=86 velocity=64 time=0
note_off channel=0 note=92 velocity=64 time=0
note_off channel=0 note=93 velocity=64 time=0
note_off channel=0 note=95 velocity=64 time=0
note_off channel=0 note=82 velocity=64 time=2
note_off channel=0 note=75 velocity=64 time=5
note_off channel=0 note=63 velocity=64 time=2
note_on channel=0 note=72 velocity=50 time=1
note_on channel=0 note=51 velocity=32 time=1
note_on channel=0 note=91 velocity=29 time=0
note_on channel=0 note=75 velocity=45 time=1
note_on channel=0 note=82 velocity=48 time=0
note_on channel=0 note=96 velocity=18 time=0
note_on channel=0 note=79 velocity=43 time=1
note_on channel=0 note=87 velocity=45 time=0
note_on channel=0 note=63 velocity=39 time=1
note_on channel=0 note=70 velocity=29 time=0
note_on channel=0 note=85 velocity=35 time=0
note_on channel=0 note=89 velocity=31 time=2
note_on channel=0 note=92 velocity=22 time=1
note_off channel=0 note=92 velocity=64 time=3
note_on channel=0 note=93 velocity=21 time=1
note_off channel=0 note=96 velocity=64 time=2
note_off channel=0 note=51 velocity=64 time=1
note_off channel=0 note=63 velocity=64 time=0
note_off channel=0 note=70 velocity=64 time=0
note_off channel=0 note=75 velocity=64 time=0
note_off channel=0 note=79 velocity=64 time=0
note_off channel=0 note=82 velocity=64 time=0
note_off channel=0 note=85 velocity=64 time=0
note_off channel=0 note=87 velocity=64 time=0
note_off channel=0 note=89 velocity=64 time=0
note_off channel=0 note=93 velocity=64 time=0
note_off channel=0 note=91 velocity=64 time=1
note_off channel=0 note=72 velocity=64 time=5
note_on channel=0 note=73 velocity=48 time=0
note_on channel=0 note=67 velocity=27 time=2
note_on channel=0 note=77 velocity=30 time=0
note_on channel=0 note=79 velocity=48 time=0
note_on channel=0 note=86 velocity=26 time=0
note_on channel=0 note=70 velocity=39 time=1
note_on channel=0 note=94 velocity=22 time=0
note_on channel=0 note=95 velocity=18 time=0
note_on channel=0 note=93 velocity=26 time=1
note_on channel=0 note=55 velocity=30 time=1
note_on channel=0 note=83 velocity=20 time=0
note_on channel=0 note=92 velocity=21 time=0
note_off channel=0 note=94 velocity=64 time=3
note_off channel=0 note=55 velocity=64 time=1
note_off channel=0 note=67 velocity=64 time=0
note_off channel=0 note=70 velocity=64 time=0
note_off channel=0 note=77 velocity=64 time=0
note_off channel=0 note=83 velocity=64 time=0
note_off channel=0 note=86 velocity=64 time=0
note_off channel=0 note=92 velocity=64 time=0
note_off channel=0 note=93 velocity=64 time=0
note_off channel=0 note=95 velocity=64 time=0
note_off channel=0 note=79 velocity=64 time=1
note_on channel=0 note=72 velocity=50 time=8
note_off channel=0 note=73 velocity=64 time=0
note_on channel=0 note=91 velocity=29 time=1
note_on channel=0 note=96 velocity=21 time=0
note_on channel=0 note=51 velocity=25 time=1
note_on channel=0 note=63 velocity=35 time=1
note_on channel=0 note=79 velocity=42 time=1
note_on channel=0 note=82 velocity=42 time=0
note_on channel=0 note=87 velocity=38 time=0
note_on channel=0 note=70 velocity=58 time=1
note_on channel=0 note=75 velocity=40 time=0
note_on channel=0 note=85 velocity=33 time=0
note_on channel=0 note=92 velocity=16 time=3
note_off channel=0 note=92 velocity=64 time=3
note_on channel=0 note=89 velocity=28 time=1
note_on channel=0 note=93 velocity=26 time=1
note_off channel=0 note=87 velocity=64 time=1
note_off channel=0 note=96 velocity=64 time=0
note_on channel=0 note=77 velocity=13 time=2
note_off channel=0 note=85 velocity=64 time=3
note_off channel=0 note=51 velocity=64 time=1
note_off channel=0 note=77 velocity=64 time=0
note_off channel=0 note=72 velocity=64 time=1
note_off channel=0 note=75 velocity=64 time=0
note_off channel=0 note=91 velocity=64 time=0
note_off channel=0 note=93 velocity=64 time=0
note_off channel=0 note=63 velocity=64 time=1
note_on channel=0 note=67 velocity=14 time=0
note_off channel=0 note=79 velocity=64 time=0
note_on channel=0 note=86 velocity=23 time=0
note_on channel=0 note=77 velocity=28 time=1
note_on channel=0 note=79 velocity=35 time=0
note_on channel=0 note=92 velocity=16 time=2
note_off channel=0 note=67 velocity=64 time=2
note_off channel=0 note=86 velocity=64 time=0
note_off channel=0 note=89 velocity=64 time=0
note_off channel=0 note=77 velocity=64 time=1
note_off channel=0 note=79 velocity=64 time=0
note_off channel=0 note=82 velocity=64 time=0
note_off channel=0 note=92 velocity=64 time=0
note_on channel=0 note=89 velocity=21 time=14
note_on channel=0 note=55 velocity=40 time=1
note_on channel=0 note=80 velocity=43 time=0
note_on channel=0 note=87 velocity=41 time=0
note_on channel=0 note=92 velocity=45 time=0
note_off channel=0 note=55 velocity=64 time=2
note_on channel=0 note=56 velocity=40 time=0
note_on channel=0 note=84 velocity=42 time=0
note_on channel=0 note=90 velocity=31 time=1
note_on channel=0 note=77 velocity=28 time=1
note_on channel=0 note=94 velocity=19 time=1
note_off channel=0 note=89 velocity=64 time=1
note_on channel=0 note=100 velocity=11 time=4
note_off channel=0 note=84 velocity=64 time=1
note_on channel=0 note=84 velocity=30 time=1
note_off channel=0 note=100 velocity=64 time=1
note_off channel=0 note=56 velocity=64 time=1
note_off channel=0 note=77 velocity=64 time=0
note_off channel=0 note=80 velocity=64 time=0
note_off channel=0 note=84 velocity=64 time=0
note_off channel=0 note=87 velocity=64 time=0
note_off channel=0 note=90 velocity=64 time=0
note_off channel=0 note=92 velocity=64 time=0
note_off channel=0 note=94 velocity=64 time=0
note_on channel=0 note=63 velocity=31 time=3
note_on channel=0 note=84 velocity=50 time=0
note_on channel=0 note=75 velocity=36 time=1
note_on channel=0 note=91 velocity=43 time=0
note_on channel=0 note=94 velocity=44 time=0
note_on channel=0 note=60 velocity=41 time=1
note_on channel=0 note=100 velocity=22 time=0
note_on channel=0 note=79 velocity=57 time=2
note_on channel=0 note=88 velocity=38 time=0
note_on channel=0 note=101 velocity=14 time=1
note_on channel=0 note=86 velocity=17 time=2
note_on channel=0 note=48 velocity=20 time=1
note_off channel=0 note=88 velocity=64 time=0
note_off channel=0 note=63 velocity=64 time=1
note_on channel=0 note=88 velocity=31 time=0
note_off channel=0 note=101 velocity=64 time=0
note_off channel=0 note=48 velocity=64 time=2
note_off channel=0 note=75 velocity=64 time=0
note_off channel=0 note=79 velocity=64 time=0
note_off channel=0 note=86 velocity=64 time=0
note_off channel=0 note=88 velocity=64 time=0
note_off channel=0 note=91 velocity=64 time=0
note_off channel=0 note=94 velocity=64 time=0
note_off channel=0 note=100 velocity=64 time=0
note_off channel=0 note=60 velocity=64 time=1
note_off channel=0 note=84 velocity=64 time=1
note_on channel=0 note=55 velocity=33 time=9
note_on channel=0 note=63 velocity=20 time=0
note_on channel=0 note=87 velocity=47 time=0
note_on channel=0 note=92 velocity=39 time=0
note_on channel=0 note=68 velocity=53 time=1
note_off channel=0 note=70 velocity=64 time=0
note_on channel=0 note=84 velocity=43 time=0
note_off channel=0 note=55 velocity=64 time=1
note_on channel=0 note=56 velocity=39 time=0
note_off channel=0 note=63 velocity=64 time=1
note_on channel=0 note=77 velocity=27 time=0
note_on channel=0 note=90 velocity=29 time=0
note_on channel=0 note=63 velocity=13 time=4
note_on channel=0 note=72 velocity=15 time=0
note_off channel=0 note=56 velocity=64 time=3
note_off channel=0 note=63 velocity=64 time=0
note_off channel=0 note=72 velocity=64 time=0
note_off channel=0 note=77 velocity=64 time=0
note_off channel=0 note=84 velocity=64 time=0
note_off channel=0 note=90 velocity=64 time=0
note_off channel=0 note=92 velocity=64 time=1
note_off channel=0 note=87 velocity=64 time=4
note_on channel=0 note=63 velocity=32 time=4
note_on channel=0 note=72 velocity=37 time=0
note_on channel=0 note=75 velocity=37 time=0
note_on channel=0 note=84 velocity=38 time=0
note_on channel=0 note=87 velocity=38 time=0
note_on channel=0 note=94 velocity=45 time=0
note_on channel=0 note=82 velocity=32 time=1
note_on channel=0 note=60 velocity=34 time=1
note_on channel=0 note=91 velocity=42 time=0
note_on channel=0 note=100 velocity=18 time=0
note_on channel=0 note=79 velocity=48 time=1
note_on channel=0 note=88 velocity=36 time=1
note_on channel=0 note=101 velocity=18 time=0
note_on channel=0 note=51 velocity=19 time=2
note_off channel=0 note=88 velocity=64 time=0
note_off channel=0 note=84 velocity=64 time=1
note_off channel=0 note=87 velocity=64 time=0
note_off channel=0 note=63 velocity=64 time=1
note_off channel=0 note=72 velocity=64 time=0
note_off channel=0 note=79 velocity=64 time=0
note_off channel=0 note=100 velocity=64 time=0
note_off channel=0 note=51 velocity=64 time=1
note_off channel=0 note=60 velocity=64 time=0
note_off channel=0 note=82 velocity=64 time=0
note_off channel=0 note=91 velocity=64 time=0
note_off channel=0 note=101 velocity=64 time=0
note_off channel=0 note=75 velocity=64 time=1
note_off channel=0 note=94 velocity=64 time=0
note_on channel=0 note=72 velocity=51 time=8
note_on channel=0 note=91 velocity=10 time=1
note_on channel=0 note=96 velocity=19 time=0
note_off channel=0 note=68 velocity=64 time=1
note_on channel=0 note=56 velocity=27 time=1
note_on channel=0 note=87 velocity=30 time=1
note_on channel=0 note=92 velocity=21 time=1
note_on channel=0 note=77 velocity=13 time=3
note_on channel=0 note=80 velocity=29 time=0
note_off channel=0 note=91 velocity=64 time=0
note_off channel=0 note=56 velocity=64 time=5
note_off channel=0 note=77 velocity=64 time=0
note_off channel=0 note=87 velocity=64 time=0
note_off channel=0 note=92 velocity=64 time=0
note_off channel=0 note=80 velocity=64 time=1
note_off channel=0 note=96 velocity=64 time=0
note_off channel=0 note=72 velocity=64 time=7
note_on channel=0 note=73 velocity=45 time=0
note_on channel=0 note=63 velocity=31 time=1
note_on channel=0 note=84 velocity=43 time=0
note_on channel=0 note=75 velocity=38 time=1
note_on channel=0 note=91 velocity=42 time=0
note_on channel=0 note=94 velocity=41 time=0
note_on channel=0 note=72 velocity=39 time=1
note_on channel=0 note=78 velocity=33 time=0
note_on channel=0 note=82 velocity=32 time=0
note_on channel=0 note=100 velocity=21 time=0
note_on channel=0 note=60 velocity=35 time=1
note_on channel=0 note=70 velocity=18 time=0
note_off channel=0 note=78 velocity=64 time=1
note_on channel=0 note=79 velocity=55 time=0
note_on channel=0 note=88 velocity=39 time=0
note_on channel=0 note=101 velocity=15 time=1
note_on channel=0 note=87 velocity=39 time=1
note_off channel=0 note=63 velocity=64 time=1
note_off channel=0 note=70 velocity=64 time=0
note_off channel=0 note=73 velocity=64 time=0
note_off channel=0 note=88 velocity=64 time=0
note_on channel=0 note=73 velocity=29 time=1
note_off channel=0 note=75 velocity=64 time=0
note_off channel=0 note=100 velocity=64 time=0
note_off channel=0 note=101 velocity=64 time=0
note_off channel=0 note=60 velocity=64 time=1
note_off channel=0 note=72 velocity=64 time=0
note_off channel=0 note=79 velocity=64 time=0
note_off channel=0 note=82 velocity=64 time=0
note_off channel=0 note=84 velocity=64 time=0
note_off channel=0 note=87 velocity=64 time=0
note_off channel=0 note=91 velocity=64 time=0
note_off channel=0 note=94 velocity=64 time=0
note_on channel=0 note=72 velocity=50 time=9
note_off channel=0 note=73 velocity=64 time=0
note_on channel=0 note=91 velocity=14 time=1
note_on channel=0 note=96 velocity=28 time=0
note_on channel=0 note=55 velocity=40 time=1
note_on channel=0 note=80 velocity=48 time=0
note_on channel=0 note=87 velocity=47 time=0
note_on channel=0 note=68 velocity=40 time=1
note_on channel=0 note=92 velocity=49 time=0
note_on channel=0 note=44 velocity=14 time=1
note_off channel=0 note=55 velocity=64 time=0
note_on channel=0 note=56 velocity=44 time=0
note_on channel=0 note=84 velocity=50 time=0
note_off channel=0 note=91 velocity=64 time=0
note_on channel=0 note=77 velocity=34 time=1
note_on channel=0 note=90 velocity=35 time=0
note_on channel=0 note=63 velocity=13 time=1
note_on channel=0 note=94 velocity=24 time=1
note_off channel=0 note=44 velocity=64 time=4
note_on channel=0 note=100 velocity=14 time=1
note_off channel=0 note=63 velocity=64 time=3
note_off channel=0 note=77 velocity=64 time=0
note_off channel=0 note=94 velocity=64 time=0
note_off channel=0 note=96 velocity=64 time=0
note_off channel=0 note=100 velocity=64 time=0
note_off channel=0 note=56 velocity=64 time=1
note_off channel=0 note=68 velocity=64 time=0
note_off channel=0 note=80 velocity=64 time=0
note_off channel=0 note=84 velocity=64 time=0
note_off channel=0 note=90 velocity=64 time=0
note_off channel=0 note=92 velocity=64 time=0
note_off channel=0 note=87 velocity=64 time=1
note_on channel=0 note=70 velocity=58 time=4
note_on channel=0 note=89 velocity=18 time=0
note_on channel=0 note=63 velocity=27 time=1
note_on channel=0 note=91 velocity=34 time=0
note_on channel=0 note=94 velocity=42 time=0
note_off channel=0 note=72 velocity=64 time=1
note_on channel=0 note=87 velocity=28 time=2
note_on channel=0 note=51 velocity=20 time=1
note_on channel=0 note=79 velocity=33 time=0
note_off channel=0 note=79 velocity=64 time=2
note_off channel=0 note=51 velocity=64 time=1
note_off channel=0 note=63 velocity=64 time=0
note_off channel=0 note=87 velocity=64 time=1
note_off channel=0 note=91 velocity=64 time=0
note_off channel=0 note=94 velocity=64 time=0
note_off channel=0 note=89 velocity=64 time=1
note_on channel=0 note=55 velocity=36 time=10
note_on channel=0 note=80 velocity=37 time=0
note_on channel=0 note=87 velocity=37 time=0
note_on channel=0 note=92 velocity=39 time=0
note_on channel=0 note=89 velocity=19 time=1
note_off channel=0 note=55 velocity=64 time=1
note_on channel=0 note=56 velocity=36 time=0
note_on channel=0 note=84 velocity=38 time=0
note_on channel=0 note=90 velocity=24 time=2
note_on channel=0 note=77 velocity=23 time=1
note_on channel=0 note=94 velocity=18 time=2
note_off channel=0 note=89 velocity=64 time=1
note_off channel=0 note=84 velocity=64 time=2
note_off channel=0 note=94 velocity=64 time=0
note_off channel=0 note=56 velocity=64 time=1
note_off channel=0 note=77 velocity=64 time=0
note_off channel=0 note=87 velocity=64 time=0
note_off channel=0 note=90 velocity=64 time=0
note_off channel=0 note=80 velocity=64 time=1
note_off channel=0 note=92 velocity=64 time=0
note_on channel=0 note=75 velocity=36 time=6
note_on channel=0 note=84 velocity=40 time=0
note_on channel=0 note=91 velocity=43 time=0
note_on channel=0 note=63 velocity=31 time=1
note_on channel=0 note=94 velocity=43 time=0
note_on channel=0 note=100 velocity=21 time=1
note_on channel=0 note=60 velocity=31 time=1
note_on channel=0 note=72 velocity=38 time=0
note_on channel=0 note=79 velocity=56 time=1
note_on channel=0 note=88 velocity=38 time=0
note_on channel=0 note=101 velocity=15 time=1
note_off channel=0 note=84 velocity=64 time=2
note_off channel=0 note=60 velocity=64 time=1
note_off channel=0 note=72 velocity=64 time=0
note_off channel=0 note=88 velocity=64 time=0
note_off channel=0 note=100 velocity=64 time=0
note_off channel=0 note=63 velocity=64 time=1
note_off channel=0 note=91 velocity=64 time=0
note_off channel=0 note=101 velocity=64 time=0
note_off channel=0 note=75 velocity=64 time=1
note_off channel=0 note=79 velocity=64 time=0
note_off channel=0 note=94 velocity=64 time=0
note_on channel=0 note=68 velocity=50 time=10
note_off channel=0 note=70 velocity=64 time=0
note_on channel=0 note=55 velocity=38 time=1
note_on channel=0 note=87 velocity=46 time=0
note_off channel=0 note=55 velocity=64 time=2
note_on channel=0 note=56 velocity=38 time=0
note_on channel=0 note=84 velocity=44 time=0
note_on channel=0 note=102 velocity=15 time=1
note_on channel=0 note=77 velocity=24 time=1
note_on channel=0 note=90 velocity=26 time=0
note_off channel=0 note=102 velocity=64 time=6
note_off channel=0 note=56 velocity=64 time=1
note_off channel=0 note=77 velocity=64 time=0
note_off channel=0 note=84 velocity=64 time=0
note_off channel=0 note=87 velocity=64 time=0
note_off channel=0 note=90 velocity=64 time=0
note_on channel=0 note=87 velocity=39 time=3
note_on channel=0 note=63 velocity=29 time=4
note_on channel=0 note=75 velocity=33 time=1
note_on channel=0 note=94 velocity=43 time=0
note_on channel=0 note=51 velocity=20 time=1
note_on channel=0 note=84 velocity=24 time=0
note_on channel=0 note=91 velocity=34 time=0
note_on channel=0 note=72 velocity=21 time=1
note_on channel=0 note=82 velocity=31 time=0
note_off channel=0 note=72 velocity=64 time=4
note_off channel=0 note=84 velocity=64 time=0
note_off channel=0 note=51 velocity=64 time=1
note_off channel=0 note=63 velocity=64 time=1
note_off channel=0 note=75 velocity=64 time=0
note_off channel=0 note=82 velocity=64 time=0
note_off channel=0 note=87 velocity=64 time=0
note_off channel=0 note=91 velocity=64 time=0
note_off channel=0 note=94 velocity=64 time=0
note_on channel=0 note=87 velocity=42 time=11
note_on channel=0 note=92 velocity=45 time=0
note_on channel=0 note=56 velocity=40 time=1
note_on channel=0 note=75 velocity=10 time=0
note_on channel=0 note=84 velocity=44 time=0
note_on channel=0 note=77 velocity=29 time=1
note_on channel=0 note=90 velocity=29 time=1
note_off channel=0 note=75 velocity=64 time=1
note_on channel=0 note=63 velocity=12 time=1
note_on channel=0 note=72 velocity=16 time=1
note_on channel=0 note=94 velocity=18 time=1
note_off channel=0 note=84 velocity=64 time=3
note_off channel=0 note=63 velocity=64 time=1
note_off channel=0 note=72 velocity=64 time=0
note_off channel=0 note=87 velocity=64 time=0
note_off channel=0 note=90 velocity=64 time=0
note_off channel=0 note=94 velocity=64 time=0
note_off channel=0 note=56 velocity=64 time=1
note_off channel=0 note=77 velocity=64 time=0
note_off channel=0 note=92 velocity=64 time=0
note_on channel=0 note=63 velocity=30 time=6
note_on channel=0 note=72 velocity=40 time=0
note_on channel=0 note=75 velocity=34 time=0
note_on channel=0 note=84 velocity=40 time=0
note_on channel=0 note=91 velocity=46 time=0
note_on channel=0 note=94 velocity=46 time=0
note_on channel=0 note=60 velocity=38 time=2
note_on channel=0 note=82 velocity=30 time=0
note_on channel=0 note=100 velocity=20 time=0
note_off channel=0 note=68 velocity=64 time=1
note_on channel=0 note=70 velocity=18 time=0
note_on channel=0 note=79 velocity=58 time=0
note_on channel=0 note=88 velocity=37 time=0
note_on channel=0 note=101 velocity=16 time=1
note_off channel=0 note=70 velocity=64 time=2
note_on channel=0 note=86 velocity=12 time=0
note_on channel=0 note=87 velocity=35 time=0
note_off channel=0 note=88 velocity=64 time=1
note_off channel=0 note=63 velocity=64 time=1
note_off channel=0 note=87 velocity=64 time=0
note_off channel=0 note=75 velocity=64 time=1
note_off channel=0 note=82 velocity=64 time=0
note_off channel=0 note=86 velocity=64 time=0
note_off channel=0 note=100 velocity=64 time=0
note_off channel=0 note=101 velocity=64 time=0
note_off channel=0 note=60 velocity=64 time=1
note_off channel=0 note=72 velocity=64 time=0
note_off channel=0 note=79 velocity=64 time=0
note_off channel=0 note=84 velocity=64 time=0
note_off channel=0 note=91 velocity=64 time=0
note_off channel=0 note=94 velocity=64 time=0
note_on channel=0 note=87 velocity=36 time=10
note_on channel=0 note=92 velocity=35 time=1
note_on channel=0 note=56 velocity=29 time=1
note_on channel=0 note=68 velocity=29 time=0
note_on channel=0 note=80 velocity=36 time=0
note_on channel=0 note=84 velocity=36 time=1
note_on channel=0 note=77 velocity=22 time=2
note_on channel=0 note=90 velocity=21 time=2
note_off channel=0 note=84 velocity=64 time=4
note_on channel=0 note=72 velocity=10 time=1
note_on channel=0 note=84 velocity=32 time=0
note_off channel=0 note=56 velocity=64 time=4
note_off channel=0 note=72 velocity=64 time=0
note_off channel=0 note=77 velocity=64 time=0
note_off channel=0 note=90 velocity=64 time=0
note_off channel=0 note=68 velocity=64 time=1
note_off channel=0 note=80 velocity=64 time=0
note_off channel=0 note=84 velocity=64 time=0
note_off channel=0 note=87 velocity=64 time=0
note_off channel=0 note=92 velocity=64 time=0
note_on channel=0 note=63 velocity=29 time=2
note_on channel=0 note=75 velocity=33 time=1
note_on channel=0 note=84 velocity=32 time=0
note_on channel=0 note=87 velocity=34 time=0
note_on channel=0 note=91 velocity=37 time=0
note_on channel=0 note=94 velocity=42 time=0
note_on channel=0 note=72 velocity=33 time=1
note_on channel=0 note=82 velocity=32 time=0
note_on channel=0 note=60 velocity=26 time=2
note_on channel=0 note=70 velocity=21 time=0
note_on channel=0 note=79 velocity=43 time=1
note_on channel=0 note=100 velocity=12 time=0
note_on channel=0 note=101 velocity=14 time=0
note_on channel=0 note=88 velocity=30 time=1
note_off channel=0 note=72 velocity=64 time=2
note_off channel=0 note=84 velocity=64 time=0
note_off channel=0 note=88 velocity=64 time=0
note_off channel=0 note=60 velocity=64 time=1
note_off channel=0 note=82 velocity=64 time=0
note_off channel=0 note=100 velocity=64 time=0
note_off channel=0 note=63 velocity=64 time=1
note_off channel=0 note=70 velocity=64 time=0
note_off channel=0 note=75 velocity=64 time=0
note_off channel=0 note=79 velocity=64 time=0
note_off channel=0 note=87 velocity=64 time=0
note_off channel=0 note=91 velocity=64 time=0
note_off channel=0 note=94 velocity=64 time=0
note_off channel=0 note=101 velocity=64 time=0
note_on channel=0 note=68 velocity=55 time=10
note_on channel=0 note=55 velocity=39 time=1
note_on channel=0 note=87 velocity=44 time=0
note_on channel=0 note=92 velocity=41 time=0
note_on channel=0 note=84 velocity=43 time=2
note_off channel=0 note=55 velocity=64 time=1
note_on channel=0 note=56 velocity=38 time=0
note_on channel=0 note=77 velocity=26 time=0
note_on channel=0 note=90 velocity=28 time=0
note_on channel=0 note=72 velocity=16 time=4
note_on channel=0 note=63 velocity=9 time=1
note_on channel=0 note=94 velocity=20 time=0
note_off channel=0 note=84 velocity=64 time=2
note_off channel=0 note=56 velocity=64 time=1
note_off channel=0 note=63 velocity=64 time=0
note_off channel=0 note=72 velocity=64 time=0
note_off channel=0 note=77 velocity=64 time=0
note_off channel=0 note=90 velocity=64 time=0
note_off channel=0 note=94 velocity=64 time=0
note_off channel=0 note=92 velocity=64 time=1
note_off channel=0 note=87 velocity=64 time=3
note_on channel=0 note=63 velocity=28 time=1
note_on channel=0 note=75 velocity=33 time=1
note_on channel=0 note=94 velocity=45 time=0
note_on channel=0 note=91 velocity=38 time=1
note_on channel=0 note=72 velocity=28 time=1
note_on channel=0 note=82 velocity=30 time=0
note_on channel=0 note=84 velocity=29 time=0
note_on channel=0 note=79 velocity=45 time=2
note_on channel=0 note=101 velocity=16 time=0
note_on channel=0 note=51 velocity=18 time=1
note_on channel=0 note=60 velocity=19 time=0
note_off channel=0 note=84 velocity=64 time=2
note_off channel=0 note=51 velocity=64 time=1
note_off channel=0 note=60 velocity=64 time=0
note_off channel=0 note=72 velocity=64 time=0
note_off channel=0 note=79 velocity=64 time=0
note_off channel=0 note=82 velocity=64 time=0
note_off channel=0 note=101 velocity=64 time=0
note_off channel=0 note=63 velocity=64 time=1
note_off channel=0 note=75 velocity=64 time=0
note_off channel=0 note=91 velocity=64 time=0
note_off channel=0 note=94 velocity=64 time=0
note_on channel=0 note=67 velocity=39 time=10
note_off channel=0 note=68 velocity=64 time=0
note_on channel=0 note=87 velocity=42 time=1
note_on channel=0 note=92 velocity=32 time=0
note_off channel=0 note=67 velocity=64 time=1
note_on channel=0 note=68 velocity=55 time=0
note_on channel=0 note=55 velocity=32 time=1
note_on channel=0 note=84 velocity=36 time=1
note_off channel=0 note=55 velocity=64 time=1
note_on channel=0 note=56 velocity=32 time=0
note_on channel=0 note=77 velocity=20 time=1
note_on channel=0 note=90 velocity=23 time=0
note_off channel=0 note=84 velocity=64 time=5
note_off channel=0 note=56 velocity=64 time=1
note_off channel=0 note=77 velocity=64 time=0
note_off channel=0 note=90 velocity=64 time=0
note_off channel=0 note=92 velocity=64 time=1
note_on channel=0 note=63 velocity=33 time=6
note_on channel=0 note=75 velocity=36 time=0
note_on channel=0 note=94 velocity=44 time=0
note_on channel=0 note=72 velocity=36 time=1
note_on channel=0 note=84 velocity=37 time=0
note_on channel=0 note=91 velocity=42 time=0
note_on channel=0 note=78 velocity=37 time=1
note_on channel=0 note=82 velocity=34 time=0
note_on channel=0 note=100 velocity=15 time=1
note_on channel=0 note=60 velocity=34 time=1
note_on channel=0 note=101 velocity=17 time=0
note_off channel=0 note=78 velocity=64 time=1
note_on channel=0 note=79 velocity=53 time=0
note_on channel=0 note=88 velocity=33 time=2
note_off channel=0 note=84 velocity=64 time=1
note_off channel=0 note=87 velocity=64 time=0
note_off channel=0 note=88 velocity=64 time=1
note_off channel=0 note=60 velocity=64 time=1
note_off channel=0 note=72 velocity=64 time=0
note_off channel=0 note=79 velocity=64 time=0
note_off channel=0 note=100 velocity=64 time=0
note_off channel=0 note=101 velocity=64 time=0
note_off channel=0 note=63 velocity=64 time=1
note_off channel=0 note=75 velocity=64 time=0
note_off channel=0 note=82 velocity=64 time=0
note_off channel=0 note=91 velocity=64 time=0
note_off channel=0 note=94 velocity=64 time=0
note_on channel=0 note=75 velocity=60 time=9
note_off channel=0 note=68 velocity=64 time=2
note_on channel=0 note=55 velocity=33 time=1
note_on channel=0 note=92 velocity=44 time=1
note_off channel=0 note=55 velocity=64 time=1
note_on channel=0 note=56 velocity=37 time=0
note_on channel=0 note=68 velocity=40 time=0
note_on channel=0 note=84 velocity=40 time=0
note_on channel=0 note=80 velocity=44 time=1
note_on channel=0 note=102 velocity=25 time=0
note_on channel=0 note=77 velocity=32 time=1
note_on channel=0 note=90 velocity=28 time=0
note_on channel=0 note=94 velocity=23 time=4
note_on channel=0 note=63 velocity=9 time=2
note_on channel=0 note=72 velocity=24 time=0
note_on channel=0 note=100 velocity=14 time=0
note_off channel=0 note=84 velocity=64 time=1
note_on channel=0 note=84 velocity=42 time=1
note_off channel=0 note=100 velocity=64 time=1
note_on channel=0 note=44 velocity=10 time=1
note_on channel=0 note=100 velocity=17 time=0
note_off channel=0 note=63 velocity=64 time=3
note_off channel=0 note=72 velocity=64 time=0
note_on channel=0 note=73 velocity=41 time=0
note_off channel=0 note=94 velocity=64 time=0
note_off channel=0 note=44 velocity=64 time=1
note_off channel=0 note=80 velocity=64 time=0
note_off channel=0 note=100 velocity=64 time=0
note_off channel=0 note=102 velocity=64 time=0
note_off channel=0 note=56 velocity=64 time=1
note_off channel=0 note=68 velocity=64 time=0
note_off channel=0 note=77 velocity=64 time=0
note_off channel=0 note=90 velocity=64 time=0
note_off channel=0 note=92 velocity=64 time=0
note_on channel=0 note=63 velocity=27 time=1
note_on channel=0 note=91 velocity=40 time=0
note_on channel=0 note=72 velocity=36 time=1
note_on channel=0 note=78 velocity=19 time=0
note_on channel=0 note=94 velocity=35 time=0
note_on channel=0 note=60 velocity=29 time=2
note_on channel=0 note=82 velocity=26 time=0
note_on channel=0 note=88 velocity=33 time=0
note_off channel=0 note=78 velocity=64 time=1
note_on channel=0 note=79 velocity=48 time=0
note_off channel=0 note=84 velocity=64 time=2
note_off channel=0 note=72 velocity=64 time=1
note_off channel=0 note=60 velocity=64 time=1
note_off channel=0 note=63 velocity=64 time=0
note_off channel=0 note=82 velocity=64 time=0
note_off channel=0 note=88 velocity=64 time=0
note_off channel=0 note=91 velocity=64 time=0
note_off channel=0 note=94 velocity=64 time=0
note_off channel=0 note=79 velocity=64 time=1
note_off channel=0 note=75 velocity=64 time=3
note_off channel=0 note=73 velocity=64 time=2
note_on channel=0 note=72 velocity=43 time=3
note_on channel=0 note=56 velocity=36 time=2
note_on channel=0 note=87 velocity=36 time=0
note_on channel=0 note=92 velocity=40 time=0
note_on channel=0 note=77 velocity=25 time=3
note_on channel=0 note=80 velocity=41 time=0
note_on channel=0 note=90 velocity=26 time=0
note_on channel=0 note=63 velocity=9 time=1
note_on channel=0 note=94 velocity=14 time=4
note_off channel=0 note=63 velocity=64 time=3
note_off channel=0 note=94 velocity=64 time=0
note_off channel=0 note=77 velocity=64 time=1
note_off channel=0 note=56 velocity=64 time=1
note_off channel=0 note=80 velocity=64 time=0
note_off channel=0 note=87 velocity=64 time=0
note_off channel=0 note=90 velocity=64 time=0
note_off channel=0 note=92 velocity=64 time=0
note_on channel=0 note=63 velocity=29 time=5
note_on channel=0 note=70 velocity=54 time=0
note_off channel=0 note=72 velocity=64 time=0
note_on channel=0 note=75 velocity=33 time=1
note_on channel=0 note=84 velocity=40 time=0
note_on channel=0 note=91 velocity=37 time=0
note_on channel=0 note=94 velocity=42 time=0
note_on channel=0 note=79 velocity=50 time=1
note_on channel=0 note=89 velocity=15 time=0
note_on channel=0 note=60 velocity=29 time=1
note_on channel=0 note=100 velocity=15 time=0
note_on channel=0 note=72 velocity=40 time=1
note_on channel=0 note=88 velocity=38 time=0
note_off channel=0 note=89 velocity=64 time=2
note_off channel=0 note=63 velocity=64 time=1
note_off channel=0 note=75 velocity=64 time=0
note_off channel=0 note=100 velocity=64 time=0
note_off channel=0 note=60 velocity=64 time=1
note_off channel=0 note=72 velocity=64 time=0
note_off channel=0 note=84 velocity=64 time=0
note_off channel=0 note=88 velocity=64 time=0
note_off channel=0 note=91 velocity=64 time=0
note_off channel=0 note=94 velocity=64 time=0
note_off channel=0 note=79 velocity=64 time=1
note_on channel=0 note=68 velocity=52 time=11
note_on channel=0 note=51 velocity=36 time=1
note_off channel=0 note=70 velocity=64 time=0
note_on channel=0 note=63 velocity=40 time=1
note_on channel=0 note=82 velocity=50 time=0
note_on channel=0 note=87 velocity=46 time=0
note_on channel=0 note=75 velocity=47 time=1
note_on channel=0 note=79 velocity=44 time=0
note_on channel=0 note=85 velocity=39 time=0
note_on channel=0 note=89 velocity=33 time=3
note_on channel=0 note=77 velocity=11 time=4
note_on channel=0 note=93 velocity=27 time=0
note_on channel=0 note=102 velocity=16 time=0
note_off channel=0 note=77 velocity=64 time=4
note_off channel=0 note=102 velocity=64 time=0
note_off channel=0 note=51 velocity=64 time=1
note_off channel=0 note=63 velocity=64 time=0
note_off channel=0 note=75 velocity=64 time=0
note_off channel=0 note=79 velocity=64 time=0
note_off channel=0 note=82 velocity=64 time=0
note_off channel=0 note=85 velocity=64 time=0
note_off channel=0 note=89 velocity=64 time=0
note_off channel=0 note=93 velocity=64 time=0
note_on channel=0 note=79 velocity=52 time=6
note_on channel=0 note=86 velocity=38 time=0
note_on channel=0 note=89 velocity=31 time=0
note_on channel=0 note=77 velocity=32 time=1
note_on channel=0 note=82 velocity=24 time=0
note_off channel=0 note=87 velocity=64 time=0
note_on channel=0 note=94 velocity=24 time=0
note_on channel=0 note=95 velocity=28 time=0
note_off channel=0 note=68 velocity=64 time=1
note_on channel=0 note=70 velocity=43 time=0
note_on channel=0 note=93 velocity=31 time=0
note_on channel=0 note=55 velocity=37 time=1
note_on channel=0 note=68 velocity=41 time=0
note_on channel=0 note=74 velocity=33 time=0
note_on channel=0 note=92 velocity=24 time=0
note_on channel=0 note=83 velocity=23 time=1
note_on channel=0 note=96 velocity=17 time=0
note_on channel=0 note=99 velocity=18 time=1
note_on channel=0 note=102 velocity=13 time=0
note_off channel=0 note=68 velocity=64 time=1
note_off channel=0 note=89 velocity=64 time=0
note_on channel=0 note=68 velocity=46 time=2
note_off channel=0 note=70 velocity=64 time=0
note_off channel=0 note=94 velocity=64 time=0
note_off channel=0 note=99 velocity=64 time=0
note_off channel=0 note=102 velocity=64 time=0
note_off channel=0 note=55 velocity=64 time=1
note_off channel=0 note=77 velocity=64 time=0
note_off channel=0 note=79 velocity=64 time=0
note_off channel=0 note=82 velocity=64 time=0
note_off channel=0 note=83 velocity=64 time=0
note_off channel=0 note=92 velocity=64 time=0
note_off channel=0 note=96 velocity=64 time=0
note_off channel=0 note=74 velocity=64 time=1
note_off channel=0 note=86 velocity=64 time=0
note_off channel=0 note=93 velocity=64 time=0
note_off channel=0 note=95 velocity=64 time=0
note_on channel=0 note=51 velocity=31 time=8
note_on channel=0 note=75 velocity=55 time=1
note_off channel=0 note=68 velocity=64 time=1
note_on channel=0 note=70 velocity=30 time=0
note_on channel=0 note=82 velocity=42 time=0
note_on channel=0 note=85 velocity=37 time=0
note_on channel=0 note=91 velocity=33 time=0
note_on channel=0 note=63 velocity=61 time=1
note_on channel=0 note=79 velocity=45 time=0
note_on channel=0 note=89 velocity=17 time=2
note_on channel=0 note=92 velocity=19 time=1
note_off channel=0 note=89 velocity=64 time=2
note_off channel=0 note=92 velocity=64 time=1
note_on channel=0 note=89 velocity=31 time=1
note_on channel=0 note=93 velocity=26 time=1
note_on channel=0 note=72 velocity=12 time=2
note_on channel=0 note=77 velocity=18 time=0
note_on channel=0 note=102 velocity=17 time=0
note_off channel=0 note=102 velocity=64 time=3
note_off channel=0 note=51 velocity=64 time=1
note_off channel=0 note=70 velocity=64 time=0
note_off channel=0 note=72 velocity=64 time=0
note_off channel=0 note=77 velocity=64 time=0
note_off channel=0 note=85 velocity=64 time=0
note_off channel=0 note=89 velocity=64 time=0
note_off channel=0 note=93 velocity=64 time=0
note_off channel=0 note=79 velocity=64 time=1
note_off channel=0 note=91 velocity=64 time=0
note_off channel=0 note=82 velocity=64 time=1
note_on channel=0 note=70 velocity=40 time=1
note_on channel=0 note=67 velocity=32 time=1
note_on channel=0 note=79 velocity=49 time=0
note_on channel=0 note=77 velocity=28 time=1
note_on channel=0 note=86 velocity=30 time=0
note_on channel=0 note=89 velocity=28 time=0
note_on channel=0 note=95 velocity=23 time=1
note_on channel=0 note=58 velocity=31 time=1
note_on channel=0 note=92 velocity=23 time=0
note_on channel=0 note=93 velocity=29 time=0
note_on channel=0 note=96 velocity=15 time=1
note_on channel=0 note=55 velocity=28 time=1
note_on channel=0 note=83 velocity=21 time=0
note_on channel=0 note=74 velocity=36 time=1
note_off channel=0 note=86 velocity=64 time=0
note_off channel=0 note=89 velocity=64 time=0
note_off channel=0 note=58 velocity=64 time=1
note_off channel=0 note=75 velocity=64 time=0
note_off channel=0 note=55 velocity=64 time=1
note_off channel=0 note=70 velocity=64 time=0
note_off channel=0 note=74 velocity=64 time=0
note_off channel=0 note=77 velocity=64 time=0
note_off channel=0 note=92 velocity=64 time=0
note_off channel=0 note=96 velocity=64 time=0
note_off channel=0 note=67 velocity=64 time=1
note_off channel=0 note=79 velocity=64 time=0
note_off channel=0 note=83 velocity=64 time=0
note_off channel=0 note=93 velocity=64 time=0
note_off channel=0 note=95 velocity=64 time=0
note_on channel=0 note=72 velocity=53 time=10
note_on channel=0 note=91 velocity=32 time=0
note_on channel=0 note=96 velocity=26 time=0
note_on channel=0 note=82 velocity=46 time=2
note_on channel=0 note=70 velocity=29 time=1
note_on channel=0 note=79 velocity=43 time=0
note_on channel=0 note=87 velocity=41 time=0
note_on channel=0 note=51 velocity=29 time=1
note_on channel=0 note=85 velocity=37 time=1
note_on channel=0 note=89 velocity=31 time=1
note_on channel=0 note=92 velocity=20 time=1
note_off channel=0 note=92 velocity=64 time=3
note_on channel=0 note=93 velocity=27 time=2
note_on channel=0 note=77 velocity=15 time=2
note_on channel=0 note=102 velocity=14 time=1
note_off channel=0 note=77 velocity=64 time=3
note_off channel=0 note=85 velocity=64 time=0
note_off channel=0 note=51 velocity=64 time=1
note_off channel=0 note=82 velocity=64 time=0
note_off channel=0 note=91 velocity=64 time=0
note_on channel=0 note=92 velocity=12 time=0
note_off channel=0 note=93 velocity=64 time=0
note_off channel=0 note=96 velocity=64 time=0
note_off channel=0 note=102 velocity=64 time=0
note_off channel=0 note=72 velocity=64 time=1
note_on channel=0 note=73 velocity=48 time=0
note_off channel=0 note=79 velocity=64 time=0
note_off channel=0 note=87 velocity=64 time=0
note_off channel=0 note=89 velocity=64 time=0
note_on channel=0 note=54 velocity=25 time=1
note_off channel=0 note=63 velocity=64 time=0
note_off channel=0 note=70 velocity=64 time=0
note_on channel=0 note=79 velocity=45 time=0
note_on channel=0 note=67 velocity=27 time=1
note_on channel=0 note=86 velocity=19 time=0
note_on channel=0 note=70 velocity=31 time=1
note_off channel=0 note=92 velocity=64 time=0
note_off channel=0 note=54 velocity=64 time=1
note_on channel=0 note=55 velocity=30 time=0
note_on channel=0 note=77 velocity=17 time=0
note_on channel=0 note=95 velocity=17 time=0
note_on channel=0 note=89 velocity=23 time=1
note_on channel=0 note=93 velocity=23 time=0
note_on channel=0 note=94 velocity=12 time=0
note_on channel=0 note=83 velocity=16 time=1
note_off channel=0 note=77 velocity=64 time=2
note_off channel=0 note=94 velocity=64 time=0
note_off channel=0 note=55 velocity=64 time=1
note_off channel=0 note=70 velocity=64 time=0
note_off channel=0 note=83 velocity=64 time=0
note_off channel=0 note=86 velocity=64 time=0
note_off channel=0 note=89 velocity=64 time=0
note_off channel=0 note=67 velocity=64 time=1
note_off channel=0 note=79 velocity=64 time=0
note_off channel=0 note=93 velocity=64 time=0
note_off channel=0 note=95 velocity=64 time=0
note_on channel=0 note=72 velocity=46 time=9
note_off channel=0 note=73 velocity=64 time=0
note_on channel=0 note=51 velocity=16 time=2
note_on channel=0 note=96 velocity=10 time=0
note_on channel=0 note=82 velocity=33 time=1
note_on channel=0 note=87 velocity=27 time=0
note_on channel=0 note=63 velocity=24 time=1
note_on channel=0 note=75 velocity=30 time=0
note_on channel=0 note=91 velocity=12 time=0
note_on channel=0 note=79 velocity=38 time=1
note_on channel=0 note=85 velocity=25 time=0
note_off channel=0 note=96 velocity=64 time=0
note_on channel=0 note=70 velocity=59 time=1
note_off channel=0 note=91 velocity=64 time=2
note_on channel=0 note=89 velocity=21 time=3
note_on channel=0 note=93 velocity=12 time=1
note_off channel=0 note=87 velocity=64 time=1
note_off channel=0 note=51 velocity=64 time=2
note_off channel=0 note=93 velocity=64 time=0
note_off channel=0 note=75 velocity=64 time=2
note_off channel=0 note=82 velocity=64 time=0
note_on channel=0 note=93 velocity=17 time=0
note_off channel=0 note=85 velocity=64 time=1
note_off channel=0 note=93 velocity=64 time=2
note_off channel=0 note=63 velocity=64 time=1
note_on channel=0 note=67 velocity=23 time=0
note_off channel=0 note=72 velocity=64 time=0
note_on channel=0 note=55 velocity=32 time=1
note_on channel=0 note=77 velocity=22 time=1
note_on channel=0 note=86 velocity=24 time=0
note_on channel=0 note=95 velocity=13 time=0
note_off channel=0 note=55 velocity=64 time=3
note_off channel=0 note=67 velocity=64 time=0
note_off channel=0 note=95 velocity=64 time=0
note_off channel=0 note=77 velocity=64 time=1
note_off channel=0 note=79 velocity=64 time=0
note_off channel=0 note=86 velocity=64 time=0
note_off channel=0 note=89 velocity=64 time=4
note_on channel=0 note=89 velocity=21 time=10
note_on channel=0 note=80 velocity=42 time=3
note_on channel=0 note=87 velocity=40 time=0
note_on channel=0 note=92 velocity=43 time=0
note_on channel=0 note=56 velocity=39 time=1
note_on channel=0 note=84 velocity=42 time=0
note_on channel=0 note=77 velocity=26 time=2
note_off channel=0 note=89 velocity=64 time=1
note_on channel=0 note=90 velocity=30 time=0
note_on channel=0 note=94 velocity=15 time=1
note_on channel=0 note=63 velocity=9 time=4
note_off channel=0 note=63 velocity=64 time=3
note_off channel=0 note=56 velocity=64 time=1
note_off channel=0 note=77 velocity=64 time=0
note_off channel=0 note=80 velocity=64 time=0
note_off channel=0 note=84 velocity=64 time=0
note_off channel=0 note=87 velocity=64 time=0
note_off channel=0 note=90 velocity=64 time=0
note_off channel=0 note=92 velocity=64 time=0
note_off channel=0 note=94 velocity=64 time=0
note_on channel=0 note=63 velocity=27 time=6
note_on channel=0 note=75 velocity=34 time=0
note_on channel=0 note=84 velocity=32 time=0
note_on channel=0 note=91 velocity=37 time=0
note_on channel=0 note=94 velocity=40 time=0
note_on channel=0 note=60 velocity=20 time=3
note_on channel=0 note=79 velocity=47 time=1
note_off channel=0 note=84 velocity=64 time=2
note_off channel=0 note=63 velocity=64 time=1
note_off channel=0 note=75 velocity=64 time=0
note_off channel=0 note=91 velocity=64 time=0
note_off channel=0 note=60 velocity=64 time=1
note_off channel=0 note=79 velocity=64 time=0
note_off channel=0 note=94 velocity=64 time=0
note_on channel=0 note=55 velocity=38 time=10
note_off channel=0 note=70 velocity=64 time=0
note_on channel=0 note=80 velocity=47 time=0
note_on channel=0 note=87 velocity=49 time=0
note_on channel=0 note=68 velocity=53 time=1
note_off channel=0 note=55 velocity=64 time=1
note_on channel=0 note=56 velocity=40 time=0
note_on channel=0 note=75 velocity=11 time=0
note_on channel=0 note=84 velocity=45 time=0
note_on channel=0 note=77 velocity=22 time=1
note_on channel=0 note=102 velocity=19 time=0
note_on channel=0 note=90 velocity=26 time=1
note_on channel=0 note=63 velocity=10 time=1
note_off channel=0 note=75 velocity=64 time=0
note_on channel=0 note=94 velocity=11 time=0
note_off channel=0 note=63 velocity=64 time=4
note_off channel=0 note=56 velocity=64 time=1
note_off channel=0 note=77 velocity=64 time=0
note_off channel=0 note=84 velocity=64 time=0
note_off channel=0 note=90 velocity=64 time=0
note_off channel=0 note=94 velocity=64 time=0
note_off channel=0 note=102 velocity=64 time=0
note_off channel=0 note=87 velocity=64 time=7
note_on channel=0 note=63 velocity=31 time=2
note_on channel=0 note=75 velocity=36 time=0
note_on channel=0 note=94 velocity=45 time=0
note_on channel=0 note=72 velocity=34 time=1
note_on channel=0 note=78 velocity=20 time=0
note_on channel=0 note=84 velocity=37 time=0
note_on channel=0 note=91 velocity=36 time=0
note_on channel=0 note=82 velocity=34 time=1
note_on channel=0 note=60 velocity=25 time=1
note_off channel=0 note=78 velocity=64 time=1
note_on channel=0 note=79 velocity=46 time=0
note_on channel=0 note=88 velocity=33 time=0
note_off channel=0 note=80 velocity=64 time=3
note_off channel=0 note=84 velocity=64 time=0
note_off channel=0 note=60 velocity=64 time=1
note_off channel=0 note=63 velocity=64 time=0
note_off channel=0 note=72 velocity=64 time=0
note_off channel=0 note=82 velocity=64 time=0
note_off channel=0 note=75 velocity=64 time=1
note_off channel=0 note=79 velocity=64 time=0
note_off channel=0 note=88 velocity=64 time=0
note_off channel=0 note=91 velocity=64 time=0
note_off channel=0 note=94 velocity=64 time=0
note_on channel=0 note=72 velocity=51 time=10
note_on channel=0 note=55 velocity=34 time=2
note_on channel=0 note=91 velocity=14 time=0
note_on channel=0 note=96 velocity=23 time=0
note_on channel=0 note=87 velocity=35 time=1
note_on channel=0 note=92 velocity=40 time=0
note_off channel=0 note=55 velocity=64 time=2
note_on channel=0 note=56 velocity=36 time=0
note_on channel=0 note=77 velocity=27 time=1
note_on channel=0 note=90 velocity=25 time=0
note_off channel=0 note=91 velocity=64 time=5
note_on channel=0 note=94 velocity=12 time=0
note_off channel=0 note=94 velocity=64 time=3
note_off channel=0 note=92 velocity=64 time=2
note_off channel=0 note=96 velocity=64 time=0
note_off channel=0 note=56 velocity=64 time=1
note_off channel=0 note=68 velocity=64 time=0
note_off channel=0 note=77 velocity=64 time=0
note_off channel=0 note=90 velocity=64 time=0
note_off channel=0 note=87 velocity=64 time=1
note_off channel=0 note=72 velocity=64 time=3
note_on channel=0 note=73 velocity=47 time=0
note_on channel=0 note=94 velocity=39 time=0
note_on channel=0 note=97 velocity=9 time=0
note_on channel=0 note=63 velocity=26 time=1
note_on channel=0 note=75 velocity=32 time=0
note_on channel=0 note=91 velocity=33 time=0
note_on channel=0 note=82 velocity=27 time=1
note_on channel=0 note=84 velocity=26 time=1
note_on channel=0 note=87 velocity=32 time=0
note_on channel=0 note=70 velocity=16 time=1
note_on channel=0 note=79 velocity=26 time=0
note_on channel=0 note=51 velocity=15 time=1
note_on channel=0 note=60 velocity=15 time=0
note_off channel=0 note=97 velocity=64 time=1
note_off channel=0 note=70 velocity=64 time=1
note_off channel=0 note=84 velocity=64 time=0
note_off channel=0 note=51 velocity=64 time=1
note_off channel=0 note=60 velocity=64 time=0
note_off channel=0 note=63 velocity=64 time=0
note_off channel=0 note=75 velocity=64 time=0
note_off channel=0 note=79 velocity=64 time=0
note_off channel=0 note=82 velocity=64 time=0
note_off channel=0 note=87 velocity=64 time=0
note_off channel=0 note=91 velocity=64 time=0
note_off channel=0 note=94 velocity=64 time=1
note_on channel=0 note=72 velocity=52 time=9
note_off channel=0 note=73 velocity=64 time=0
note_on channel=0 note=55 velocity=33 time=1
note_on channel=0 note=91 velocity=16 time=0
note_on channel=0 note=96 velocity=27 time=0
note_on channel=0 note=87 velocity=39 time=1
note_on channel=0 note=80 velocity=42 time=1
note_off channel=0 note=55 velocity=64 time=1
note_on channel=0 note=56 velocity=36 time=0
note_on channel=0 note=77 velocity=25 time=1
note_on channel=0 note=102 velocity=18 time=1
note_on channel=0 note=90 velocity=24 time=1
note_on channel=0 note=94 velocity=17 time=3
note_off channel=0 note=91 velocity=64 time=1
note_off channel=0 note=94 velocity=64 time=3
note_off channel=0 note=56 velocity=64 time=1
note_off channel=0 note=77 velocity=64 time=0
note_off channel=0 note=80 velocity=64 time=0
note_off channel=0 note=87 velocity=64 time=0
note_off channel=0 note=90 velocity=64 time=0
note_off channel=0 note=96 velocity=64 time=0
note_off channel=0 note=102 velocity=64 time=0
note_on channel=0 note=70 velocity=52 time=5
note_off channel=0 note=72 velocity=64 time=2
note_on channel=0 note=84 velocity=30 time=0
note_on channel=0 note=91 velocity=33 time=0
note_on channel=0 note=94 velocity=35 time=0
note_on channel=0 note=63 velocity=21 time=1
note_on channel=0 note=72 velocity=35 time=0
note_on channel=0 note=75 velocity=25 time=0
note_on channel=0 note=60 velocity=22 time=1
note_on channel=0 note=87 velocity=26 time=0
note_on channel=0 note=79 velocity=45 time=1
note_on channel=0 note=100 velocity=14 time=0
note_off channel=0 note=72 velocity=64 time=2
note_off channel=0 note=84 velocity=64 time=0
note_off channel=0 note=60 velocity=64 time=1
note_off channel=0 note=100 velocity=64 time=0
note_off channel=0 note=63 velocity=64 time=1
note_off channel=0 note=75 velocity=64 time=0
note_off channel=0 note=87 velocity=64 time=0
note_off channel=0 note=91 velocity=64 time=0
note_off channel=0 note=79 velocity=64 time=1
note_off channel=0 note=94 velocity=64 time=0
note_on channel=0 note=87 velocity=28 time=12
note_on channel=0 note=92 velocity=25 time=1
note_on channel=0 note=56 velocity=26 time=1
note_on channel=0 note=89 velocity=9 time=0
note_on channel=0 note=84 velocity=29 time=1
note_on channel=0 note=80 velocity=27 time=2
note_on channel=0 note=77 velocity=12 time=1
note_off channel=0 note=89 velocity=64 time=1
note_on channel=0 note=90 velocity=15 time=0
note_off channel=0 note=56 velocity=64 time=3
note_off channel=0 note=77 velocity=64 time=0
note_off channel=0 note=80 velocity=64 time=0
note_off channel=0 note=84 velocity=64 time=0
note_off channel=0 note=87 velocity=64 time=0
note_off channel=0 note=90 velocity=64 time=0
note_off channel=0 note=92 velocity=64 time=0
note_on channel=0 note=63 velocity=19 time=10
note_on channel=0 note=75 velocity=24 time=1
note_on channel=0 note=84 velocity=26 time=0
note_on channel=0 note=91 velocity=30 time=0
note_on channel=0 note=94 velocity=30 time=0
note_on channel=0 note=72 velocity=27 time=1
note_on channel=0 note=60 velocity=17 time=2
note_on channel=0 note=79 velocity=30 time=0
note_on channel=0 note=87 velocity=25 time=0
note_on channel=0 note=88 velocity=24 time=0
note_off channel=0 note=84 velocity=64 time=2
note_off channel=0 note=60 velocity=64 time=1
note_off channel=0 note=63 velocity=64 time=0
note_off channel=0 note=72 velocity=64 time=0
note_off channel=0 note=75 velocity=64 time=0
note_off channel=0 note=88 velocity=64 time=0
note_off channel=0 note=79 velocity=64 time=1
note_off channel=0 note=87 velocity=64 time=0
note_off channel=0 note=91 velocity=64 time=0
note_off channel=0 note=94 velocity=64 time=0
note_on channel=0 note=68 velocity=33 time=11
note_off channel=0 note=70 velocity=64 time=0
note_on channel=0 note=55 velocity=21 time=1
note_on channel=0 note=87 velocity=28 time=1
note_on channel=0 note=92 velocity=21 time=1
note_off channel=0 note=55 velocity=64 time=1
note_on channel=0 note=56 velocity=23 time=0
note_on channel=0 note=84 velocity=28 time=0
note_on channel=0 note=77 velocity=10 time=4
note_off channel=0 note=56 velocity=64 time=3
note_off channel=0 note=77 velocity=64 time=0
note_off channel=0 note=84 velocity=64 time=0
note_off channel=0 note=87 velocity=64 time=1
note_off channel=0 note=92 velocity=64 time=0
note_on channel=0 note=63 velocity=16 time=8
note_on channel=0 note=75 velocity=20 time=1
note_on channel=0 note=91 velocity=28 time=0
note_on channel=0 note=94 velocity=27 time=0
note_on channel=0 note=72 velocity=19 time=1
note_on channel=0 note=84 velocity=20 time=0
note_on channel=0 note=82 velocity=19 time=1
note_on channel=0 note=87 velocity=22 time=0
note_on channel=0 note=79 velocity=37 time=1
note_off channel=0 note=84 velocity=64 time=2
note_off channel=0 note=63 velocity=64 time=1
note_off channel=0 note=72 velocity=64 time=0
note_off channel=0 note=75 velocity=64 time=0
note_off channel=0 note=82 velocity=64 time=0
note_off channel=0 note=79 velocity=64 time=1
note_off channel=0 note=87 velocity=64 time=0
note_off channel=0 note=91 velocity=64 time=0
note_off channel=0 note=94 velocity=64 time=0
note_off channel=0 note=68 velocity=64 time=6
note_on channel=0 note=94 velocity=14 time=27
note_on channel=0 note=79 velocity=18 time=4
note_off channel=0 note=79 velocity=64 time=3
note_off channel=0 note=94 velocity=64 time=0
MetaMessage('end_of_track', time=0)
 
note_on channel=0 note=44 velocity=16 time=0
note_on channel=0 note=71 velocity=11 time=0
note_off channel=0 note=44 velocity=16 time=15
note_on channel=0 note=44 velocity=16 time=0
note_on channel=0 note=63 velocity=51 time=0
note_off channel=0 note=71 velocity=11 time=0
note_off channel=0 note=44 velocity=16 time=15
note_on channel=0 note=44 velocity=16 time=0
note_off channel=0 note=63 velocity=51 time=0
note_on channel=0 note=94 velocity=28 time=0
note_off channel=0 note=44 velocity=16 time=15
note_on channel=0 note=44 velocity=16 time=0
note_off channel=0 note=94 velocity=28 time=0
note_on channel=0 note=103 velocity=25 time=0
note_off channel=0 note=44 velocity=16 time=15
note_on channel=0 note=44 velocity=16 time=0
note_on channel=0 note=90 velocity=40 time=0
note_off channel=0 note=103 velocity=25 time=0
note_off channel=0 note=44 velocity=16 time=15
note_off channel=0 note=90 velocity=40 time=0
note_on channel=0 note=94 velocity=28 time=0
note_on channel=0 note=103 velocity=25 time=0
note_on channel=0 note=71 velocity=11 time=15
note_off channel=0 note=94 velocity=28 time=0
note_off channel=0 note=103 velocity=25 time=0
note_on channel=0 note=103 velocity=25 time=0
note_off channel=0 note=71 velocity=11 time=15
note_on channel=0 note=71 velocity=11 time=0
note_off channel=0 note=103 velocity=25 time=0
note_on channel=0 note=103 velocity=25 time=0
note_off channel=0 note=71 velocity=11 time=15
note_on channel=0 note=71 velocity=11 time=0
note_off channel=0 note=103 velocity=25 time=0
note_on channel=0 note=103 velocity=25 time=0
note_off channel=0 note=71 velocity=11 time=15
note_on channel=0 note=71 velocity=11 time=0
note_off channel=0 note=103 velocity=25 time=0
note_on channel=0 note=103 velocity=25 time=0
note_off channel=0 note=71 velocity=11 time=15
note_on channel=0 note=71 velocity=11 time=0
note_off channel=0 note=103 velocity=25 time=0
note_on channel=0 note=103 velocity=25 time=0
note_off channel=0 note=71 velocity=11 time=15
note_on channel=0 note=71 velocity=11 time=0
note_off channel=0 note=103 velocity=25 time=0
note_on channel=0 note=103 velocity=25 time=0
note_off channel=0 note=71 velocity=11 time=15
note_on channel=0 note=80 velocity=15 time=0
note_off channel=0 note=103 velocity=25 time=0
note_on channel=0 note=103 velocity=25 time=0
note_on channel=0 note=72 velocity=28 time=15
note_off channel=0 note=80 velocity=15 time=0
note_off channel=0 note=103 velocity=25 time=0
note_on channel=0 note=103 velocity=25 time=0
note_on channel=0 note=71 velocity=11 time=15
note_off channel=0 note=72 velocity=28 time=0
note_off channel=0 note=103 velocity=25 time=0
note_on channel=0 note=103 velocity=25 time=0
note_off channel=0 note=71 velocity=11 time=15
note_on channel=0 note=71 velocity=11 time=0
note_off channel=0 note=103 velocity=25 time=0
note_on channel=0 note=103 velocity=25 time=0
note_off channel=0 note=71 velocity=11 time=15
note_on channel=0 note=72 velocity=28 time=0
note_off channel=0 note=103 velocity=25 time=0
note_on channel=0 note=103 velocity=25 time=0
note_on channel=0 note=71 velocity=11 time=15
note_off channel=0 note=72 velocity=28 time=0
note_off channel=0 note=103 velocity=25 time=0
note_on channel=0 note=103 velocity=25 time=0
note_on channel=0 note=67 velocity=12 time=15
note_off channel=0 note=71 velocity=11 time=0
note_off channel=0 note=103 velocity=25 time=0
note_on channel=0 note=103 velocity=25 time=0
note_off channel=0 note=67 velocity=12 time=15
note_on channel=0 note=71 velocity=11 time=0
note_off channel=0 note=103 velocity=25 time=0
note_on channel=0 note=103 velocity=25 time=0
note_off channel=0 note=71 velocity=11 time=15
note_on channel=0 note=71 velocity=11 time=0
note_off channel=0 note=103 velocity=25 time=0
note_on channel=0 note=103 velocity=25 time=0
note_off channel=0 note=71 velocity=11 time=15
note_on channel=0 note=71 velocity=11 time=0
note_off channel=0 note=103 velocity=25 time=0
note_on channel=0 note=103 velocity=25 time=0
note_off channel=0 note=71 velocity=11 time=15
note_on channel=0 note=71 velocity=11 time=0
note_off channel=0 note=103 velocity=25 time=0
note_on channel=0 note=103 velocity=25 time=0
note_off channel=0 note=71 velocity=11 time=15
note_on channel=0 note=75 velocity=31 time=0
note_off channel=0 note=103 velocity=25 time=0
note_on channel=0 note=103 velocity=25 time=0
note_on channel=0 note=72 velocity=28 time=15
note_off channel=0 note=75 velocity=31 time=0
note_off channel=0 note=103 velocity=25 time=0
note_on channel=0 note=103 velocity=25 time=0
note_on channel=0 note=64 velocity=23 time=15
note_off channel=0 note=72 velocity=28 time=0
note_off channel=0 note=103 velocity=25 time=0
note_on channel=0 note=103 velocity=25 time=0
note_off channel=0 note=64 velocity=23 time=15
note_on channel=0 note=71 velocity=11 time=0
note_off channel=0 note=103 velocity=25 time=0
note_on channel=0 note=103 velocity=25 time=0
note_off channel=0 note=71 velocity=11 time=15
note_on channel=0 note=71 velocity=11 time=0
note_off channel=0 note=103 velocity=25 time=0
note_on channel=0 note=103 velocity=25 time=0
note_off channel=0 note=71 velocity=11 time=15
note_on channel=0 note=71 velocity=11 time=0
note_off channel=0 note=103 velocity=25 time=0
note_on channel=0 note=103 velocity=25 time=0
note_off channel=0 note=71 velocity=11 time=15
note_on channel=0 note=71 velocity=11 time=0
note_off channel=0 note=103 velocity=25 time=0
note_on channel=0 note=103 velocity=25 time=0
note_off channel=0 note=71 velocity=11 time=15
note_on channel=0 note=71 velocity=11 time=0
note_off channel=0 note=103 velocity=25 time=0
note_on channel=0 note=103 velocity=25 time=0
note_off channel=0 note=71 velocity=11 time=15
note_on channel=0 note=72 velocity=28 time=0
note_off channel=0 note=103 velocity=25 time=0
note_on channel=0 note=103 velocity=25 time=0
note_on channel=0 note=71 velocity=11 time=15
note_off channel=0 note=72 velocity=28 time=0
note_off channel=0 note=103 velocity=25 time=0
note_on channel=0 note=103 velocity=25 time=0
note_off channel=0 note=71 velocity=11 time=15
note_on channel=0 note=72 velocity=28 time=0
note_off channel=0 note=103 velocity=25 time=0
note_on channel=0 note=103 velocity=25 time=0
note_off channel=0 note=72 velocity=28 time=15
note_on channel=0 note=72 velocity=28 time=0
note_off channel=0 note=103 velocity=25 time=0
note_on channel=0 note=103 velocity=25 time=0
note_on channel=0 note=71 velocity=11 time=15
note_off channel=0 note=72 velocity=28 time=0
note_off channel=0 note=103 velocity=25 time=0
note_on channel=0 note=103 velocity=25 time=0
note_off channel=0 note=71 velocity=11 time=15
note_on channel=0 note=72 velocity=28 time=0
note_off channel=0 note=103 velocity=25 time=0
note_on channel=0 note=103 velocity=25 time=0
note_on channel=0 note=71 velocity=11 time=15
note_off channel=0 note=72 velocity=28 time=0
note_off channel=0 note=103 velocity=25 time=0
note_on channel=0 note=103 velocity=25 time=0
note_off channel=0 note=71 velocity=11 time=15
note_on channel=0 note=71 velocity=11 time=0
note_off channel=0 note=103 velocity=25 time=0
note_on channel=0 note=103 velocity=25 time=0
note_off channel=0 note=71 velocity=11 time=15
note_on channel=0 note=71 velocity=11 time=0
note_off channel=0 note=103 velocity=25 time=0
note_on channel=0 note=103 velocity=25 time=0
note_off channel=0 note=71 velocity=11 time=15
note_on channel=0 note=71 velocity=11 time=0
note_off channel=0 note=103 velocity=25 time=0
note_on channel=0 note=103 velocity=25 time=0
note_off channel=0 note=71 velocity=11 time=15
note_on channel=0 note=71 velocity=11 time=0
note_off channel=0 note=103 velocity=25 time=0
note_on channel=0 note=103 velocity=25 time=0
note_off channel=0 note=71 velocity=11 time=15
note_on channel=0 note=71 velocity=11 time=0
note_off channel=0 note=103 velocity=25 time=0
note_on channel=0 note=103 velocity=25 time=0
note_off channel=0 note=71 velocity=11 time=15
note_on channel=0 note=71 velocity=11 time=0
note_off channel=0 note=103 velocity=25 time=0
note_on channel=0 note=103 velocity=25 time=0
note_off channel=0 note=71 velocity=11 time=15
note_on channel=0 note=72 velocity=28 time=0
note_off channel=0 note=103 velocity=25 time=0
note_on channel=0 note=103 velocity=25 time=0
note_off channel=0 note=72 velocity=28 time=15
note_on channel=0 note=72 velocity=28 time=0
note_off channel=0 note=103 velocity=25 time=0
note_on channel=0 note=103 velocity=25 time=0
note_on channel=0 note=71 velocity=11 time=15
note_off channel=0 note=72 velocity=28 time=0
note_off channel=0 note=103 velocity=25 time=0
note_on channel=0 note=103 velocity=25 time=0
note_off channel=0 note=71 velocity=11 time=15
note_on channel=0 note=71 velocity=11 time=0
note_off channel=0 note=103 velocity=25 time=0
note_on channel=0 note=103 velocity=25 time=0
note_off channel=0 note=71 velocity=11 time=15
note_on channel=0 note=71 velocity=11 time=0
note_off channel=0 note=103 velocity=25 time=0
note_on channel=0 note=103 velocity=25 time=0
note_off channel=0 note=71 velocity=11 time=15
note_on channel=0 note=72 velocity=28 time=0
note_off channel=0 note=103 velocity=25 time=0
note_on channel=0 note=103 velocity=25 time=0
note_on channel=0 note=71 velocity=11 time=15
note_off channel=0 note=72 velocity=28 time=0
note_off channel=0 note=103 velocity=25 time=0
note_on channel=0 note=103 velocity=25 time=0
note_off channel=0 note=71 velocity=11 time=15
note_on channel=0 note=71 velocity=11 time=0
note_off channel=0 note=103 velocity=25 time=0
note_on channel=0 note=103 velocity=25 time=0
note_off channel=0 note=71 velocity=11 time=15
note_on channel=0 note=71 velocity=11 time=0
note_off channel=0 note=103 velocity=25 time=0
note_on channel=0 note=103 velocity=25 time=0
note_off channel=0 note=71 velocity=11 time=15
note_on channel=0 note=72 velocity=28 time=0
note_off channel=0 note=103 velocity=25 time=0
note_on channel=0 note=103 velocity=25 time=0
note_off channel=0 note=72 velocity=28 time=15
note_on channel=0 note=72 velocity=28 time=0
note_off channel=0 note=103 velocity=25 time=0
note_on channel=0 note=103 velocity=25 time=0
note_on channel=0 note=71 velocity=11 time=15
note_off channel=0 note=72 velocity=28 time=0
note_off channel=0 note=103 velocity=25 time=0
note_on channel=0 note=103 velocity=25 time=0
note_off channel=0 note=71 velocity=11 time=15
note_on channel=0 note=71 velocity=11 time=0
note_off channel=0 note=103 velocity=25 time=0
note_on channel=0 note=103 velocity=25 time=0
note_off channel=0 note=71 velocity=11 time=15
note_on channel=0 note=71 velocity=11 time=0
note_off channel=0 note=103 velocity=25 time=0
note_on channel=0 note=103 velocity=25 time=0
note_off channel=0 note=71 velocity=11 time=15
note_on channel=0 note=72 velocity=28 time=0
note_off channel=0 note=103 velocity=25 time=0
note_on channel=0 note=103 velocity=25 time=0
note_on channel=0 note=71 velocity=11 time=15
note_off channel=0 note=72 velocity=28 time=0
note_off channel=0 note=103 velocity=25 time=0
note_on channel=0 note=103 velocity=25 time=0
note_off channel=0 note=71 velocity=11 time=15
note_on channel=0 note=72 velocity=28 time=0
note_off channel=0 note=103 velocity=25 time=0
note_on channel=0 note=103 velocity=25 time=0
note_off channel=0 note=72 velocity=28 time=15
note_on channel=0 note=72 velocity=28 time=0
note_off channel=0 note=103 velocity=25 time=0
note_on channel=0 note=103 velocity=25 time=0
note_on channel=0 note=71 velocity=11 time=15
note_off channel=0 note=72 velocity=28 time=0
note_off channel=0 note=103 velocity=25 time=0
note_on channel=0 note=103 velocity=25 time=0
note_off channel=0 note=71 velocity=11 time=15
note_on channel=0 note=71 velocity=11 time=0
note_off channel=0 note=103 velocity=25 time=0
note_on channel=0 note=103 velocity=25 time=0
note_off channel=0 note=71 velocity=11 time=15
note_on channel=0 note=71 velocity=11 time=0
note_off channel=0 note=103 velocity=25 time=0
note_on channel=0 note=103 velocity=25 time=0
note_off channel=0 note=71 velocity=11 time=15
note_on channel=0 note=72 velocity=28 time=0
note_off channel=0 note=103 velocity=25 time=0
note_on channel=0 note=103 velocity=25 time=0
note_off channel=0 note=72 velocity=28 time=15
note_on channel=0 note=72 velocity=28 time=0
note_off channel=0 note=103 velocity=25 time=0
note_on channel=0 note=103 velocity=25 time=0
note_off channel=0 note=72 velocity=28 time=15
note_on channel=0 note=72 velocity=28 time=0
note_off channel=0 note=103 velocity=25 time=0
note_on channel=0 note=103 velocity=25 time=0
note_on channel=0 note=71 velocity=11 time=15
note_off channel=0 note=72 velocity=28 time=0
note_off channel=0 note=103 velocity=25 time=0
note_on channel=0 note=103 velocity=25 time=0
note_off channel=0 note=71 velocity=11 time=15
note_on channel=0 note=72 velocity=28 time=0
note_off channel=0 note=103 velocity=25 time=0
note_on channel=0 note=103 velocity=25 time=0
note_on channel=0 note=71 velocity=11 time=15
note_off channel=0 note=72 velocity=28 time=0
note_off channel=0 note=103 velocity=25 time=0
note_on channel=0 note=103 velocity=25 time=0
note_off channel=0 note=71 velocity=11 time=15
note_on channel=0 note=71 velocity=11 time=0
note_off channel=0 note=103 velocity=25 time=0
note_on channel=0 note=103 velocity=25 time=0
note_on channel=0 note=64 velocity=23 time=15
note_off channel=0 note=71 velocity=11 time=0
note_off channel=0 note=103 velocity=25 time=0
note_on channel=0 note=103 velocity=25 time=0
note_off channel=0 note=64 velocity=23 time=15
note_on channel=0 note=72 velocity=28 time=0
note_off channel=0 note=103 velocity=25 time=0
note_on channel=0 note=103 velocity=25 time=0
note_off channel=0 note=72 velocity=28 time=15
note_on channel=0 note=72 velocity=28 time=0
note_off channel=0 note=103 velocity=25 time=0
note_on channel=0 note=103 velocity=25 time=0
note_off channel=0 note=72 velocity=28 time=15
note_on channel=0 note=72 velocity=28 time=0
note_off channel=0 note=103 velocity=25 time=0
note_on channel=0 note=103 velocity=25 time=0
note_on channel=0 note=71 velocity=11 time=15
note_off channel=0 note=72 velocity=28 time=0
note_off channel=0 note=103 velocity=25 time=0
note_on channel=0 note=103 velocity=25 time=0
note_off channel=0 note=71 velocity=11 time=15
note_on channel=0 note=72 velocity=28 time=0
note_off channel=0 note=103 velocity=25 time=0
note_on channel=0 note=103 velocity=25 time=0
note_on channel=0 note=71 velocity=11 time=15
note_off channel=0 note=72 velocity=28 time=0
note_off channel=0 note=103 velocity=25 time=0
note_on channel=0 note=103 velocity=25 time=0
note_off channel=0 note=71 velocity=11 time=15
note_on channel=0 note=72 velocity=28 time=0
note_off channel=0 note=103 velocity=25 time=0
note_on channel=0 note=103 velocity=25 time=0
note_on channel=0 note=71 velocity=11 time=15
note_off channel=0 note=72 velocity=28 time=0
note_off channel=0 note=103 velocity=25 time=0
note_on channel=0 note=103 velocity=25 time=0
note_off channel=0 note=71 velocity=11 time=15
note_on channel=0 note=72 velocity=28 time=0
note_off channel=0 note=103 velocity=25 time=0
note_on channel=0 note=103 velocity=25 time=0
note_on channel=0 note=71 velocity=11 time=15
note_off channel=0 note=72 velocity=28 time=0
note_off channel=0 note=103 velocity=25 time=0
note_on channel=0 note=103 velocity=25 time=0
note_off channel=0 note=71 velocity=11 time=15
note_on channel=0 note=71 velocity=11 time=0
note_off channel=0 note=103 velocity=25 time=0
note_on channel=0 note=103 velocity=25 time=0
note_off channel=0 note=71 velocity=11 time=15
note_on channel=0 note=72 velocity=28 time=0
note_off channel=0 note=103 velocity=25 time=0
note_on channel=0 note=103 velocity=25 time=0
note_off channel=0 note=72 velocity=28 time=15
note_on channel=0 note=72 velocity=28 time=0
note_off channel=0 note=103 velocity=25 time=0
note_on channel=0 note=103 velocity=25 time=0
note_on channel=0 note=71 velocity=11 time=15
note_off channel=0 note=72 velocity=28 time=0
note_off channel=0 note=103 velocity=25 time=0
note_on channel=0 note=103 velocity=25 time=0
note_off channel=0 note=71 velocity=11 time=15
note_on channel=0 note=71 velocity=11 time=0
note_off channel=0 note=103 velocity=25 time=0
note_on channel=0 note=103 velocity=25 time=0
note_off channel=0 note=71 velocity=11 time=15
note_on channel=0 note=71 velocity=11 time=0
note_off channel=0 note=103 velocity=25 time=0
note_on channel=0 note=103 velocity=25 time=0
note_off channel=0 note=71 velocity=11 time=15
note_on channel=0 note=72 velocity=28 time=0
note_off channel=0 note=103 velocity=25 time=0
note_on channel=0 note=103 velocity=25 time=0
note_off channel=0 note=72 velocity=28 time=15
note_on channel=0 note=72 velocity=28 time=0
note_off channel=0 note=103 velocity=25 time=0
note_on channel=0 note=103 velocity=25 time=0
note_off channel=0 note=72 velocity=28 time=15
note_on channel=0 note=72 velocity=28 time=0
note_off channel=0 note=103 velocity=25 time=0
note_on channel=0 note=103 velocity=25 time=0
note_on channel=0 note=71 velocity=11 time=15
note_off channel=0 note=72 velocity=28 time=0
note_off channel=0 note=103 velocity=25 time=0
note_on channel=0 note=103 velocity=25 time=0
note_off channel=0 note=71 velocity=11 time=15
note_on channel=0 note=71 velocity=11 time=0
note_off channel=0 note=103 velocity=25 time=0
note_on channel=0 note=103 velocity=25 time=0
note_off channel=0 note=71 velocity=11 time=15
note_on channel=0 note=72 velocity=28 time=0
note_off channel=0 note=103 velocity=25 time=0
note_on channel=0 note=103 velocity=25 time=0
note_on channel=0 note=67 velocity=12 time=15
note_off channel=0 note=72 velocity=28 time=0
note_off channel=0 note=103 velocity=25 time=0
note_on channel=0 note=103 velocity=25 time=0
note_off channel=0 note=67 velocity=12 time=15
note_on channel=0 note=72 velocity=28 time=0
note_off channel=0 note=103 velocity=25 time=0
note_on channel=0 note=103 velocity=25 time=0
note_on channel=0 note=71 velocity=11 time=15
note_off channel=0 note=72 velocity=28 time=0
note_off channel=0 note=103 velocity=25 time=0
note_on channel=0 note=103 velocity=25 time=0
note_off channel=0 note=71 velocity=11 time=15
note_on channel=0 note=71 velocity=11 time=0
note_off channel=0 note=103 velocity=25 time=0
note_on channel=0 note=103 velocity=25 time=0
note_off channel=0 note=71 velocity=11 time=15
note_on channel=0 note=72 velocity=28 time=0
note_off channel=0 note=103 velocity=25 time=0
note_on channel=0 note=103 velocity=25 time=0
note_on channel=0 note=71 velocity=11 time=15
note_off channel=0 note=72 velocity=28 time=0
note_off channel=0 note=103 velocity=25 time=0
note_on channel=0 note=103 velocity=25 time=0
note_off channel=0 note=71 velocity=11 time=15
note_on channel=0 note=71 velocity=11 time=0
note_off channel=0 note=103 velocity=25 time=0
note_on channel=0 note=103 velocity=25 time=0
note_off channel=0 note=71 velocity=11 time=15
note_on channel=0 note=71 velocity=11 time=0
note_off channel=0 note=103 velocity=25 time=0
note_on channel=0 note=103 velocity=25 time=0
note_off channel=0 note=71 velocity=11 time=15
note_on channel=0 note=72 velocity=28 time=0
note_off channel=0 note=103 velocity=25 time=0
note_on channel=0 note=103 velocity=25 time=0
note_off channel=0 note=72 velocity=28 time=15
note_on channel=0 note=72 velocity=28 time=0
note_off channel=0 note=103 velocity=25 time=0
note_on channel=0 note=103 velocity=25 time=0
note_on channel=0 note=71 velocity=11 time=15
note_off channel=0 note=72 velocity=28 time=0
note_off channel=0 note=103 velocity=25 time=0
note_on channel=0 note=103 velocity=25 time=0
note_off channel=0 note=71 velocity=11 time=15
note_on channel=0 note=71 velocity=11 time=0
note_off channel=0 note=103 velocity=25 time=0
note_on channel=0 note=103 velocity=25 time=0
note_off channel=0 note=71 velocity=11 time=15
note_on channel=0 note=72 velocity=28 time=0
note_off channel=0 note=103 velocity=25 time=0
note_on channel=0 note=103 velocity=25 time=0
note_off channel=0 note=72 velocity=28 time=15
note_on channel=0 note=72 velocity=28 time=0
note_off channel=0 note=103 velocity=25 time=0
note_on channel=0 note=103 velocity=25 time=0
note_off channel=0 note=72 velocity=28 time=15
note_on channel=0 note=72 velocity=28 time=0
note_off channel=0 note=103 velocity=25 time=0
note_on channel=0 note=103 velocity=25 time=0
note_off channel=0 note=72 velocity=28 time=15
note_on channel=0 note=72 velocity=28 time=0
note_off channel=0 note=103 velocity=25 time=0
note_on channel=0 note=103 velocity=25 time=0
note_off channel=0 note=72 velocity=28 time=15
note_on channel=0 note=72 velocity=28 time=0
note_off channel=0 note=103 velocity=25 time=0
note_on channel=0 note=103 velocity=25 time=0
note_off channel=0 note=72 velocity=28 time=15
note_on channel=0 note=72 velocity=28 time=0
note_off channel=0 note=103 velocity=25 time=0
note_on channel=0 note=103 velocity=25 time=0
note_off channel=0 note=72 velocity=28 time=15
note_on channel=0 note=72 velocity=28 time=0
note_off channel=0 note=103 velocity=25 time=0
note_on channel=0 note=103 velocity=25 time=0
note_on channel=0 note=71 velocity=11 time=15
note_off channel=0 note=72 velocity=28 time=0
note_off channel=0 note=103 velocity=25 time=0
note_on channel=0 note=103 velocity=25 time=0
note_off channel=0 note=71 velocity=11 time=15
note_on channel=0 note=71 velocity=11 time=0
note_off channel=0 note=103 velocity=25 time=0
note_on channel=0 note=103 velocity=25 time=0
note_off channel=0 note=71 velocity=11 time=15
note_on channel=0 note=72 velocity=28 time=0
note_off channel=0 note=103 velocity=25 time=0
note_on channel=0 note=103 velocity=25 time=0
note_off channel=0 note=72 velocity=28 time=15
note_on channel=0 note=72 velocity=28 time=0
note_off channel=0 note=103 velocity=25 time=0
note_on channel=0 note=103 velocity=25 time=0
note_off channel=0 note=72 velocity=28 time=15
note_on channel=0 note=72 velocity=28 time=0
note_off channel=0 note=103 velocity=25 time=0
note_on channel=0 note=103 velocity=25 time=0
note_on channel=0 note=71 velocity=11 time=15
note_off channel=0 note=72 velocity=28 time=0
note_off channel=0 note=103 velocity=25 time=0
note_on channel=0 note=103 velocity=25 time=0
note_off channel=0 note=71 velocity=11 time=15
note_on channel=0 note=71 velocity=11 time=0
note_off channel=0 note=103 velocity=25 time=0
note_on channel=0 note=103 velocity=25 time=0
note_off channel=0 note=71 velocity=11 time=15
note_on channel=0 note=72 velocity=28 time=0
note_off channel=0 note=103 velocity=25 time=0
note_on channel=0 note=103 velocity=25 time=0
note_off channel=0 note=72 velocity=28 time=15
note_on channel=0 note=72 velocity=28 time=0
note_off channel=0 note=103 velocity=25 time=0
note_on channel=0 note=103 velocity=25 time=0
note_off channel=0 note=72 velocity=28 time=15
note_on channel=0 note=72 velocity=28 time=0
note_off channel=0 note=103 velocity=25 time=0
note_on channel=0 note=103 velocity=25 time=0
note_off channel=0 note=72 velocity=28 time=15
note_on channel=0 note=72 velocity=28 time=0
note_off channel=0 note=103 velocity=25 time=0
note_on channel=0 note=103 velocity=25 time=0
note_on channel=0 note=71 velocity=11 time=15
note_off channel=0 note=72 velocity=28 time=0
note_off channel=0 note=103 velocity=25 time=0
note_on channel=0 note=103 velocity=25 time=0
note_off channel=0 note=71 velocity=11 time=15
note_on channel=0 note=71 velocity=11 time=0
note_off channel=0 note=103 velocity=25 time=0
note_on channel=0 note=103 velocity=25 time=0
note_off channel=0 note=71 velocity=11 time=15
note_on channel=0 note=72 velocity=28 time=0
note_off channel=0 note=103 velocity=25 time=0
note_on channel=0 note=103 velocity=25 time=0
note_on channel=0 note=71 velocity=11 time=15
note_off channel=0 note=72 velocity=28 time=0
note_off channel=0 note=103 velocity=25 time=0
note_on channel=0 note=103 velocity=25 time=0
note_off channel=0 note=71 velocity=11 time=15
note_on channel=0 note=72 velocity=28 time=0
note_off channel=0 note=103 velocity=25 time=0
note_on channel=0 note=103 velocity=25 time=0
note_on channel=0 note=71 velocity=11 time=15
note_off channel=0 note=72 velocity=28 time=0
note_off channel=0 note=103 velocity=25 time=0
note_on channel=0 note=103 velocity=25 time=0
note_off channel=0 note=71 velocity=11 time=15
note_on channel=0 note=72 velocity=28 time=0
note_off channel=0 note=103 velocity=25 time=0
note_on channel=0 note=103 velocity=25 time=0
note_on channel=0 note=71 velocity=11 time=15
note_off channel=0 note=72 velocity=28 time=0
note_off channel=0 note=103 velocity=25 time=0
note_on channel=0 note=103 velocity=25 time=0
note_off channel=0 note=71 velocity=11 time=15
note_on channel=0 note=72 velocity=28 time=0
note_off channel=0 note=103 velocity=25 time=0
note_on channel=0 note=103 velocity=25 time=0
note_on channel=0 note=71 velocity=11 time=15
note_off channel=0 note=72 velocity=28 time=0
note_off channel=0 note=103 velocity=25 time=0
note_on channel=0 note=103 velocity=25 time=0
note_off channel=0 note=71 velocity=11 time=15
note_on channel=0 note=71 velocity=11 time=0
note_off channel=0 note=103 velocity=25 time=0
note_on channel=0 note=103 velocity=25 time=0
note_off channel=0 note=71 velocity=11 time=15
note_on channel=0 note=72 velocity=28 time=0
note_off channel=0 note=103 velocity=25 time=0
note_on channel=0 note=103 velocity=25 time=0
note_on channel=0 note=71 velocity=11 time=15
note_off channel=0 note=72 velocity=28 time=0
note_off channel=0 note=103 velocity=25 time=0
note_on channel=0 note=103 velocity=25 time=0
note_off channel=0 note=71 velocity=11 time=15
note_on channel=0 note=71 velocity=11 time=0
note_off channel=0 note=103 velocity=25 time=0
note_on channel=0 note=103 velocity=25 time=0
note_off channel=0 note=71 velocity=11 time=15
note_on channel=0 note=71 velocity=11 time=0
note_off channel=0 note=103 velocity=25 time=0
note_on channel=0 note=103 velocity=25 time=0
note_off channel=0 note=71 velocity=11 time=15
note_on channel=0 note=72 velocity=28 time=0
note_off channel=0 note=103 velocity=25 time=0
note_on channel=0 note=103 velocity=25 time=0
note_on channel=0 note=71 velocity=11 time=15
note_off channel=0 note=72 velocity=28 time=0
note_off channel=0 note=103 velocity=25 time=0
note_on channel=0 note=103 velocity=25 time=0
note_off channel=0 note=71 velocity=11 time=15
note_on channel=0 note=71 velocity=11 time=0
note_off channel=0 note=103 velocity=25 time=0
note_on channel=0 note=103 velocity=25 time=0
note_off channel=0 note=71 velocity=11 time=15
note_on channel=0 note=71 velocity=11 time=0
note_off channel=0 note=103 velocity=25 time=0
note_on channel=0 note=103 velocity=25 time=0
note_off channel=0 note=71 velocity=11 time=15
note_on channel=0 note=71 velocity=11 time=0
note_off channel=0 note=103 velocity=25 time=0
note_on channel=0 note=103 velocity=25 time=0
note_off channel=0 note=71 velocity=11 time=15
note_on channel=0 note=72 velocity=28 time=0
note_off channel=0 note=103 velocity=25 time=0
note_on channel=0 note=103 velocity=25 time=0
note_on channel=0 note=71 velocity=11 time=15
note_off channel=0 note=72 velocity=28 time=0
note_off channel=0 note=103 velocity=25 time=0
note_on channel=0 note=103 velocity=25 time=0
note_off channel=0 note=71 velocity=11 time=15
note_on channel=0 note=71 velocity=11 time=0
note_off channel=0 note=103 velocity=25 time=0
note_on channel=0 note=103 velocity=25 time=0
note_off channel=0 note=71 velocity=11 time=15
note_on channel=0 note=71 velocity=11 time=0
note_off channel=0 note=103 velocity=25 time=0
note_on channel=0 note=103 velocity=25 time=0
note_off channel=0 note=71 velocity=11 time=15
note_on channel=0 note=71 velocity=11 time=0
note_off channel=0 note=103 velocity=25 time=0
note_on channel=0 note=103 velocity=25 time=0
note_off channel=0 note=71 velocity=11 time=15
note_on channel=0 note=71 velocity=11 time=0
note_off channel=0 note=103 velocity=25 time=0
note_on channel=0 note=103 velocity=25 time=0
note_off channel=0 note=71 velocity=11 time=15
note_on channel=0 note=72 velocity=28 time=0
note_off channel=0 note=103 velocity=25 time=0
note_on channel=0 note=103 velocity=25 time=0
note_on channel=0 note=71 velocity=11 time=15
note_off channel=0 note=72 velocity=28 time=0
note_off channel=0 note=103 velocity=25 time=0
note_on channel=0 note=103 velocity=25 time=0
note_off channel=0 note=71 velocity=11 time=15
note_on channel=0 note=72 velocity=28 time=0
note_off channel=0 note=103 velocity=25 time=0
note_on channel=0 note=103 velocity=25 time=0
note_off channel=0 note=72 velocity=28 time=15
note_on channel=0 note=72 velocity=28 time=0
note_off channel=0 note=103 velocity=25 time=0
note_on channel=0 note=103 velocity=25 time=0
note_on channel=0 note=71 velocity=11 time=15
note_off channel=0 note=72 velocity=28 time=0
note_off channel=0 note=103 velocity=25 time=0
note_on channel=0 note=103 velocity=25 time=0
note_off channel=0 note=71 velocity=11 time=15
note_on channel=0 note=71 velocity=11 time=0
note_off channel=0 note=103 velocity=25 time=0
note_on channel=0 note=103 velocity=25 time=0
note_off channel=0 note=71 velocity=11 time=15
note_on channel=0 note=71 velocity=11 time=0
note_off channel=0 note=103 velocity=25 time=0
note_on channel=0 note=103 velocity=25 time=0
note_off channel=0 note=71 velocity=11 time=15
note_on channel=0 note=72 velocity=28 time=0
note_off channel=0 note=103 velocity=25 time=0
note_on channel=0 note=103 velocity=25 time=0
note_off channel=0 note=72 velocity=28 time=15
note_on channel=0 note=72 velocity=28 time=0
note_off channel=0 note=103 velocity=25 time=0
note_on channel=0 note=103 velocity=25 time=0
note_off channel=0 note=72 velocity=28 time=15
note_on channel=0 note=72 velocity=28 time=0
note_off channel=0 note=103 velocity=25 time=0
note_on channel=0 note=103 velocity=25 time=0
note_on channel=0 note=71 velocity=11 time=15
note_off channel=0 note=72 velocity=28 time=0
note_off channel=0 note=103 velocity=25 time=0
note_on channel=0 note=103 velocity=25 time=0
note_off channel=0 note=71 velocity=11 time=15
note_on channel=0 note=71 velocity=11 time=0
note_off channel=0 note=103 velocity=25 time=0
note_on channel=0 note=103 velocity=25 time=0
note_off channel=0 note=71 velocity=11 time=15
note_on channel=0 note=72 velocity=28 time=0
note_off channel=0 note=103 velocity=25 time=0
note_on channel=0 note=103 velocity=25 time=0
note_on channel=0 note=71 velocity=11 time=15
note_off channel=0 note=72 velocity=28 time=0
note_off channel=0 note=103 velocity=25 time=0
note_on channel=0 note=103 velocity=25 time=0
note_off channel=0 note=71 velocity=11 time=15
note_on channel=0 note=72 velocity=28 time=0
note_off channel=0 note=103 velocity=25 time=0
note_on channel=0 note=103 velocity=25 time=0
note_on channel=0 note=71 velocity=11 time=15
note_off channel=0 note=72 velocity=28 time=0
note_off channel=0 note=103 velocity=25 time=0
note_on channel=0 note=103 velocity=25 time=0
note_off channel=0 note=71 velocity=11 time=15
note_on channel=0 note=71 velocity=11 time=0
note_off channel=0 note=103 velocity=25 time=0
note_on channel=0 note=103 velocity=25 time=0
note_off channel=0 note=71 velocity=11 time=15
note_on channel=0 note=72 velocity=28 time=0
note_off channel=0 note=103 velocity=25 time=0
note_on channel=0 note=103 velocity=25 time=0
note_on channel=0 note=71 velocity=11 time=15
note_off channel=0 note=72 velocity=28 time=0
note_off channel=0 note=103 velocity=25 time=0
note_on channel=0 note=103 velocity=25 time=0
note_off channel=0 note=71 velocity=11 time=15
note_on channel=0 note=72 velocity=28 time=0
note_off channel=0 note=103 velocity=25 time=0
note_on channel=0 note=103 velocity=25 time=0
note_on channel=0 note=71 velocity=11 time=15
note_off channel=0 note=72 velocity=28 time=0
note_off channel=0 note=103 velocity=25 time=0
note_on channel=0 note=103 velocity=25 time=0
note_off channel=0 note=71 velocity=11 time=15
note_on channel=0 note=72 velocity=28 time=0
note_off channel=0 note=103 velocity=25 time=0
note_on channel=0 note=103 velocity=25 time=0
note_on channel=0 note=71 velocity=11 time=15
note_off channel=0 note=72 velocity=28 time=0
note_off channel=0 note=103 velocity=25 time=0
note_on channel=0 note=103 velocity=25 time=0
note_off channel=0 note=71 velocity=11 time=15
note_on channel=0 note=72 velocity=28 time=0
note_off channel=0 note=103 velocity=25 time=0
note_on channel=0 note=103 velocity=25 time=0
note_on channel=0 note=71 velocity=11 time=15
note_off channel=0 note=72 velocity=28 time=0
note_off channel=0 note=103 velocity=25 time=0
note_on channel=0 note=103 velocity=25 time=0
note_off channel=0 note=71 velocity=11 time=15
note_on channel=0 note=71 velocity=11 time=0
note_off channel=0 note=103 velocity=25 time=0
note_on channel=0 note=103 velocity=25 time=0
note_off channel=0 note=71 velocity=11 time=15
note_on channel=0 note=72 velocity=28 time=0
note_off channel=0 note=103 velocity=25 time=0
note_on channel=0 note=103 velocity=25 time=0
note_off channel=0 note=72 velocity=28 time=15
note_on channel=0 note=72 velocity=28 time=0
note_off channel=0 note=103 velocity=25 time=0
note_on channel=0 note=103 velocity=25 time=0
note_off channel=0 note=72 velocity=28 time=15
note_on channel=0 note=72 velocity=28 time=0
note_off channel=0 note=103 velocity=25 time=0
note_on channel=0 note=103 velocity=25 time=0
note_on channel=0 note=71 velocity=11 time=15
note_off channel=0 note=72 velocity=28 time=0
note_off channel=0 note=103 velocity=25 time=0
note_on channel=0 note=103 velocity=25 time=0
note_off channel=0 note=71 velocity=11 time=15
note_on channel=0 note=71 velocity=11 time=0
note_off channel=0 note=103 velocity=25 time=0
note_on channel=0 note=103 velocity=25 time=0
note_off channel=0 note=71 velocity=11 time=15
note_on channel=0 note=71 velocity=11 time=0
note_off channel=0 note=103 velocity=25 time=0
note_on channel=0 note=103 velocity=25 time=0
note_off channel=0 note=71 velocity=11 time=15
note_on channel=0 note=71 velocity=11 time=0
note_off channel=0 note=103 velocity=25 time=0
note_on channel=0 note=103 velocity=25 time=0
note_off channel=0 note=71 velocity=11 time=15
note_on channel=0 note=71 velocity=11 time=0
note_off channel=0 note=103 velocity=25 time=0
note_on channel=0 note=103 velocity=25 time=0
note_off channel=0 note=71 velocity=11 time=15
note_on channel=0 note=72 velocity=28 time=0
note_off channel=0 note=103 velocity=25 time=0
note_on channel=0 note=103 velocity=25 time=0
note_on channel=0 note=71 velocity=11 time=15
note_off channel=0 note=72 velocity=28 time=0
note_off channel=0 note=103 velocity=25 time=0
note_on channel=0 note=103 velocity=25 time=0
note_off channel=0 note=71 velocity=11 time=15
note_on channel=0 note=72 velocity=28 time=0
note_off channel=0 note=103 velocity=25 time=0
note_on channel=0 note=103 velocity=25 time=0
note_on channel=0 note=71 velocity=11 time=15
note_off channel=0 note=72 velocity=28 time=0
note_off channel=0 note=103 velocity=25 time=0
note_on channel=0 note=103 velocity=25 time=0
note_off channel=0 note=71 velocity=11 time=15
note_on channel=0 note=72 velocity=28 time=0
note_off channel=0 note=103 velocity=25 time=0
note_on channel=0 note=103 velocity=25 time=0
note_on channel=0 note=71 velocity=11 time=15
note_off channel=0 note=72 velocity=28 time=0
note_off channel=0 note=103 velocity=25 time=0
note_on channel=0 note=103 velocity=25 time=0
note_off channel=0 note=71 velocity=11 time=15
note_on channel=0 note=71 velocity=11 time=0
note_off channel=0 note=103 velocity=25 time=0
note_on channel=0 note=103 velocity=25 time=0
note_off channel=0 note=71 velocity=11 time=15
note_on channel=0 note=72 velocity=28 time=0
note_off channel=0 note=103 velocity=25 time=0
note_on channel=0 note=103 velocity=25 time=0
note_off channel=0 note=72 velocity=28 time=15
note_on channel=0 note=72 velocity=28 time=0
note_off channel=0 note=103 velocity=25 time=0
note_on channel=0 note=103 velocity=25 time=0
note_on channel=0 note=71 velocity=11 time=15
note_off channel=0 note=72 velocity=28 time=0
note_off channel=0 note=103 velocity=25 time=0
note_on channel=0 note=103 velocity=25 time=0
note_off channel=0 note=71 velocity=11 time=15
note_on channel=0 note=71 velocity=11 time=0
note_off channel=0 note=103 velocity=25 time=0
note_on channel=0 note=103 velocity=25 time=0
note_off channel=0 note=71 velocity=11 time=15
note_on channel=0 note=72 velocity=28 time=0
note_off channel=0 note=103 velocity=25 time=0
note_on channel=0 note=103 velocity=25 time=0
note_off channel=0 note=72 velocity=28 time=15
note_on channel=0 note=72 velocity=28 time=0
note_off channel=0 note=103 velocity=25 time=0
note_on channel=0 note=103 velocity=25 time=0
note_on channel=0 note=71 velocity=11 time=15
note_off channel=0 note=72 velocity=28 time=0
note_off channel=0 note=103 velocity=25 time=0
note_on channel=0 note=103 velocity=25 time=0
note_off channel=0 note=71 velocity=11 time=15
note_on channel=0 note=71 velocity=11 time=0
note_off channel=0 note=103 velocity=25 time=0
note_on channel=0 note=103 velocity=25 time=0
note_off channel=0 note=71 velocity=11 time=15
note_on channel=0 note=72 velocity=28 time=0
note_off channel=0 note=103 velocity=25 time=0
note_on channel=0 note=103 velocity=25 time=0
note_off channel=0 note=72 velocity=28 time=15
note_on channel=0 note=72 velocity=28 time=0
note_off channel=0 note=103 velocity=25 time=0
note_on channel=0 note=103 velocity=25 time=0
note_off channel=0 note=72 velocity=28 time=15
note_on channel=0 note=72 velocity=28 time=0
note_off channel=0 note=103 velocity=25 time=0
note_on channel=0 note=103 velocity=25 time=0
note_off channel=0 note=72 velocity=28 time=15
note_on channel=0 note=72 velocity=28 time=0
note_off channel=0 note=103 velocity=25 time=0
note_on channel=0 note=103 velocity=25 time=0
note_on channel=0 note=71 velocity=11 time=15
note_off channel=0 note=72 velocity=28 time=0
note_off channel=0 note=103 velocity=25 time=0
note_on channel=0 note=103 velocity=25 time=0
note_off channel=0 note=71 velocity=11 time=15
note_on channel=0 note=72 velocity=28 time=0
note_off channel=0 note=103 velocity=25 time=0
note_on channel=0 note=103 velocity=25 time=0
note_off channel=0 note=72 velocity=28 time=15
note_on channel=0 note=72 velocity=28 time=0
note_off channel=0 note=103 velocity=25 time=0
note_on channel=0 note=103 velocity=25 time=0
note_off channel=0 note=72 velocity=28 time=15
note_on channel=0 note=72 velocity=28 time=0
note_off channel=0 note=103 velocity=25 time=0
note_on channel=0 note=103 velocity=25 time=0
note_on channel=0 note=71 velocity=11 time=15
note_off channel=0 note=72 velocity=28 time=0
note_off channel=0 note=103 velocity=25 time=0
note_on channel=0 note=103 velocity=25 time=0
note_off channel=0 note=71 velocity=11 time=15
note_on channel=0 note=71 velocity=11 time=0
note_off channel=0 note=103 velocity=25 time=0
note_on channel=0 note=103 velocity=25 time=0
note_off channel=0 note=71 velocity=11 time=15
note_on channel=0 note=72 velocity=28 time=0
note_off channel=0 note=103 velocity=25 time=0
note_on channel=0 note=103 velocity=25 time=0
note_off channel=0 note=72 velocity=28 time=15
note_on channel=0 note=72 velocity=28 time=0
note_off channel=0 note=103 velocity=25 time=0
note_on channel=0 note=103 velocity=25 time=0
note_off channel=0 note=72 velocity=28 time=15
note_on channel=0 note=72 velocity=28 time=0
note_off channel=0 note=103 velocity=25 time=0
note_on channel=0 note=103 velocity=25 time=0
note_off channel=0 note=72 velocity=28 time=15
note_on channel=0 note=72 velocity=28 time=0
note_off channel=0 note=103 velocity=25 time=0
note_on channel=0 note=103 velocity=25 time=0
note_off channel=0 note=72 velocity=28 time=15
note_on channel=0 note=72 velocity=28 time=0
note_off channel=0 note=103 velocity=25 time=0
note_on channel=0 note=103 velocity=25 time=0
note_off channel=0 note=72 velocity=28 time=15
note_on channel=0 note=72 velocity=28 time=0
note_off channel=0 note=103 velocity=25 time=0
note_on channel=0 note=103 velocity=25 time=0
note_off channel=0 note=72 velocity=28 time=15
note_on channel=0 note=72 velocity=28 time=0
note_off channel=0 note=103 velocity=25 time=0
note_on channel=0 note=103 velocity=25 time=0
note_off channel=0 note=72 velocity=28 time=15
note_on channel=0 note=72 velocity=28 time=0
note_off channel=0 note=103 velocity=25 time=0
note_on channel=0 note=103 velocity=25 time=0
note_on channel=0 note=71 velocity=11 time=15
note_off channel=0 note=72 velocity=28 time=0
note_off channel=0 note=103 velocity=25 time=0
note_on channel=0 note=103 velocity=25 time=0
note_off channel=0 note=71 velocity=11 time=15
note_on channel=0 note=71 velocity=11 time=0
note_off channel=0 note=103 velocity=25 time=0
note_on channel=0 note=103 velocity=25 time=0
note_off channel=0 note=71 velocity=11 time=15
note_on channel=0 note=72 velocity=28 time=0
note_off channel=0 note=103 velocity=25 time=0
note_on channel=0 note=103 velocity=25 time=0
note_on channel=0 note=71 velocity=11 time=15
note_off channel=0 note=72 velocity=28 time=0
note_off channel=0 note=103 velocity=25 time=0
note_on channel=0 note=103 velocity=25 time=0
note_off channel=0 note=71 velocity=11 time=15
note_on channel=0 note=71 velocity=11 time=0
note_off channel=0 note=103 velocity=25 time=0
note_on channel=0 note=103 velocity=25 time=0
note_off channel=0 note=71 velocity=11 time=15
note_on channel=0 note=71 velocity=11 time=0
note_off channel=0 note=103 velocity=25 time=0
note_on channel=0 note=103 velocity=25 time=0
note_off channel=0 note=71 velocity=11 time=15
note_on channel=0 note=72 velocity=28 time=0
note_off channel=0 note=103 velocity=25 time=0
note_on channel=0 note=103 velocity=25 time=0
note_on channel=0 note=71 velocity=11 time=15
note_off channel=0 note=72 velocity=28 time=0
note_off channel=0 note=103 velocity=25 time=0
note_on channel=0 note=103 velocity=25 time=0
note_off channel=0 note=71 velocity=11 time=15
note_on channel=0 note=71 velocity=11 time=0
note_off channel=0 note=103 velocity=25 time=0
note_on channel=0 note=103 velocity=25 time=0
note_off channel=0 note=71 velocity=11 time=15
note_on channel=0 note=72 velocity=28 time=0
note_off channel=0 note=103 velocity=25 time=0
note_on channel=0 note=103 velocity=25 time=0
note_off channel=0 note=72 velocity=28 time=15
note_on channel=0 note=72 velocity=28 time=0
note_off channel=0 note=103 velocity=25 time=0
note_on channel=0 note=103 velocity=25 time=0
note_on channel=0 note=71 velocity=11 time=15
note_off channel=0 note=72 velocity=28 time=0
note_off channel=0 note=103 velocity=25 time=0
note_on channel=0 note=103 velocity=25 time=0
note_off channel=0 note=71 velocity=11 time=15
note_on channel=0 note=71 velocity=11 time=0
note_off channel=0 note=103 velocity=25 time=0
note_on channel=0 note=103 velocity=25 time=0
note_off channel=0 note=71 velocity=11 time=15
note_on channel=0 note=71 velocity=11 time=0
note_off channel=0 note=103 velocity=25 time=0
note_on channel=0 note=103 velocity=25 time=0
note_off channel=0 note=71 velocity=11 time=15
note_on channel=0 note=72 velocity=28 time=0
note_off channel=0 note=103 velocity=25 time=0
note_on channel=0 note=103 velocity=25 time=0
note_off channel=0 note=72 velocity=28 time=15
note_on channel=0 note=72 velocity=28 time=0
note_off channel=0 note=103 velocity=25 time=0
note_on channel=0 note=103 velocity=25 time=0
note_on channel=0 note=71 velocity=11 time=15
note_off channel=0 note=72 velocity=28 time=0
note_off channel=0 note=103 velocity=25 time=0
note_on channel=0 note=103 velocity=25 time=0
note_off channel=0 note=71 velocity=11 time=15
note_on channel=0 note=71 velocity=11 time=0
note_off channel=0 note=103 velocity=25 time=0
note_on channel=0 note=103 velocity=25 time=0
note_off channel=0 note=71 velocity=11 time=15
note_on channel=0 note=71 velocity=11 time=0
note_off channel=0 note=103 velocity=25 time=0
note_on channel=0 note=103 velocity=25 time=0
note_off channel=0 note=71 velocity=11 time=15
note_on channel=0 note=72 velocity=28 time=0
note_off channel=0 note=103 velocity=25 time=0
note_on channel=0 note=103 velocity=25 time=0
note_off channel=0 note=72 velocity=28 time=15
note_on channel=0 note=72 velocity=28 time=0
note_off channel=0 note=103 velocity=25 time=0
note_on channel=0 note=103 velocity=25 time=0
note_off channel=0 note=72 velocity=28 time=15
note_on channel=0 note=72 velocity=28 time=0
note_off channel=0 note=103 velocity=25 time=0
note_on channel=0 note=103 velocity=25 time=0
note_on channel=0 note=71 velocity=11 time=15
note_off channel=0 note=72 velocity=28 time=0
note_off channel=0 note=103 velocity=25 time=0
note_on channel=0 note=103 velocity=25 time=0
note_off channel=0 note=71 velocity=11 time=15
note_on channel=0 note=71 velocity=11 time=0
note_off channel=0 note=103 velocity=25 time=0
note_on channel=0 note=103 velocity=25 time=0
note_off channel=0 note=71 velocity=11 time=15
note_on channel=0 note=71 velocity=11 time=0
note_off channel=0 note=103 velocity=25 time=0
note_on channel=0 note=103 velocity=25 time=0
note_off channel=0 note=71 velocity=11 time=15
note_on channel=0 note=72 velocity=28 time=0
note_off channel=0 note=103 velocity=25 time=0
note_on channel=0 note=103 velocity=25 time=0
note_off channel=0 note=72 velocity=28 time=15
note_on channel=0 note=72 velocity=28 time=0
note_off channel=0 note=103 velocity=25 time=0
note_on channel=0 note=103 velocity=25 time=0
note_off channel=0 note=72 velocity=28 time=15
note_on channel=0 note=72 velocity=28 time=0
note_off channel=0 note=103 velocity=25 time=0
note_on channel=0 note=103 velocity=25 time=0
note_on channel=0 note=71 velocity=11 time=15
note_off channel=0 note=72 velocity=28 time=0
note_off channel=0 note=103 velocity=25 time=0
note_on channel=0 note=103 velocity=25 time=0
note_off channel=0 note=71 velocity=11 time=15
note_on channel=0 note=72 velocity=28 time=0
note_off channel=0 note=103 velocity=25 time=0
note_on channel=0 note=103 velocity=25 time=0
note_on channel=0 note=71 velocity=11 time=15
note_off channel=0 note=72 velocity=28 time=0
note_off channel=0 note=103 velocity=25 time=0
note_on channel=0 note=103 velocity=25 time=0
note_off channel=0 note=71 velocity=11 time=15
note_on channel=0 note=72 velocity=28 time=0
note_off channel=0 note=103 velocity=25 time=0
note_on channel=0 note=103 velocity=25 time=0
note_on channel=0 note=71 velocity=11 time=15
note_off channel=0 note=72 velocity=28 time=0
note_off channel=0 note=103 velocity=25 time=0
note_on channel=0 note=103 velocity=25 time=0
note_off channel=0 note=71 velocity=11 time=15
note_on channel=0 note=72 velocity=28 time=0
note_off channel=0 note=103 velocity=25 time=0
note_on channel=0 note=103 velocity=25 time=0
note_off channel=0 note=72 velocity=28 time=15
note_on channel=0 note=72 velocity=28 time=0
note_off channel=0 note=103 velocity=25 time=0
note_on channel=0 note=103 velocity=25 time=0
note_off channel=0 note=72 velocity=28 time=15
note_on channel=0 note=72 velocity=28 time=0
note_off channel=0 note=103 velocity=25 time=0
note_on channel=0 note=103 velocity=25 time=0
note_off channel=0 note=72 velocity=28 time=15
note_on channel=0 note=72 velocity=28 time=0
note_off channel=0 note=103 velocity=25 time=0
note_on channel=0 note=103 velocity=25 time=0
note_on channel=0 note=71 velocity=11 time=15
note_off channel=0 note=72 velocity=28 time=0
note_off channel=0 note=103 velocity=25 time=0
note_on channel=0 note=103 velocity=25 time=0
note_off channel=0 note=71 velocity=11 time=15
note_on channel=0 note=71 velocity=11 time=0
note_off channel=0 note=103 velocity=25 time=0
note_on channel=0 note=103 velocity=25 time=0
note_off channel=0 note=71 velocity=11 time=15
note_on channel=0 note=71 velocity=11 time=0
note_off channel=0 note=103 velocity=25 time=0
note_on channel=0 note=103 velocity=25 time=0
note_off channel=0 note=71 velocity=11 time=15
note_on channel=0 note=72 velocity=28 time=0
note_off channel=0 note=103 velocity=25 time=0
note_on channel=0 note=103 velocity=25 time=0
note_on channel=0 note=71 velocity=11 time=15
note_off channel=0 note=72 velocity=28 time=0
note_off channel=0 note=103 velocity=25 time=0
note_on channel=0 note=103 velocity=25 time=0
note_off channel=0 note=71 velocity=11 time=15
note_on channel=0 note=72 velocity=28 time=0
note_off channel=0 note=103 velocity=25 time=0
note_on channel=0 note=103 velocity=25 time=0
note_off channel=0 note=72 velocity=28 time=15
note_on channel=0 note=72 velocity=28 time=0
note_off channel=0 note=103 velocity=25 time=0
note_on channel=0 note=103 velocity=25 time=0
note_off channel=0 note=72 velocity=28 time=15
note_on channel=0 note=72 velocity=28 time=0
note_off channel=0 note=103 velocity=25 time=0
note_on channel=0 note=103 velocity=25 time=0
note_on channel=0 note=71 velocity=11 time=15
note_off channel=0 note=72 velocity=28 time=0
note_off channel=0 note=103 velocity=25 time=0
note_on channel=0 note=103 velocity=25 time=0
note_off channel=0 note=71 velocity=11 time=15
note_on channel=0 note=71 velocity=11 time=0
note_off channel=0 note=103 velocity=25 time=0
note_on channel=0 note=103 velocity=25 time=0
note_off channel=0 note=71 velocity=11 time=15
note_on channel=0 note=72 velocity=28 time=0
note_off channel=0 note=103 velocity=25 time=0
note_on channel=0 note=103 velocity=25 time=0
note_off channel=0 note=72 velocity=28 time=15
note_on channel=0 note=72 velocity=28 time=0
note_off channel=0 note=103 velocity=25 time=0
note_on channel=0 note=103 velocity=25 time=0
note_off channel=0 note=72 velocity=28 time=15
note_on channel=0 note=72 velocity=28 time=0
note_off channel=0 note=103 velocity=25 time=0
note_on channel=0 note=103 velocity=25 time=0
note_off channel=0 note=72 velocity=28 time=15
note_on channel=0 note=72 velocity=28 time=0
note_off channel=0 note=103 velocity=25 time=0
note_on channel=0 note=103 velocity=25 time=0
note_off channel=0 note=72 velocity=28 time=15
note_on channel=0 note=72 velocity=28 time=0
note_off channel=0 note=103 velocity=25 time=0
note_on channel=0 note=103 velocity=25 time=0
note_off channel=0 note=72 velocity=28 time=15
note_on channel=0 note=72 velocity=28 time=0
note_off channel=0 note=103 velocity=25 time=0
note_on channel=0 note=103 velocity=25 time=0
note_off channel=0 note=72 velocity=28 time=15
note_on channel=0 note=72 velocity=28 time=0
note_off channel=0 note=103 velocity=25 time=0
note_on channel=0 note=103 velocity=25 time=0
note_off channel=0 note=72 velocity=28 time=15
note_on channel=0 note=75 velocity=31 time=0
note_off channel=0 note=103 velocity=25 time=0
note_on channel=0 note=103 velocity=25 time=0
note_on channel=0 note=72 velocity=28 time=15
note_off channel=0 note=75 velocity=31 time=0
note_off channel=0 note=103 velocity=25 time=0
note_on channel=0 note=103 velocity=25 time=0
note_on channel=0 note=71 velocity=11 time=15
note_off channel=0 note=72 velocity=28 time=0
note_off channel=0 note=103 velocity=25 time=0
note_on channel=0 note=103 velocity=25 time=0
note_off channel=0 note=71 velocity=11 time=15
note_on channel=0 note=71 velocity=11 time=0
note_off channel=0 note=103 velocity=25 time=0
note_on channel=0 note=103 velocity=25 time=0
note_off channel=0 note=71 velocity=11 time=15
note_on channel=0 note=71 velocity=11 time=0
note_off channel=0 note=103 velocity=25 time=0
note_on channel=0 note=103 velocity=25 time=0
note_off channel=0 note=71 velocity=11 time=15
note_on channel=0 note=71 velocity=11 time=0
note_off channel=0 note=103 velocity=25 time=0
note_on channel=0 note=103 velocity=25 time=0
note_off channel=0 note=71 velocity=11 time=15
note_on channel=0 note=72 velocity=28 time=0
note_off channel=0 note=103 velocity=25 time=0
note_on channel=0 note=103 velocity=25 time=0
note_off channel=0 note=72 velocity=28 time=15
note_on channel=0 note=72 velocity=28 time=0
note_off channel=0 note=103 velocity=25 time=0
note_on channel=0 note=103 velocity=25 time=0
note_off channel=0 note=72 velocity=28 time=15
note_on channel=0 note=72 velocity=28 time=0
note_off channel=0 note=103 velocity=25 time=0
note_on channel=0 note=103 velocity=25 time=0
note_on channel=0 note=71 velocity=11 time=15
note_off channel=0 note=72 velocity=28 time=0
note_off channel=0 note=103 velocity=25 time=0
note_on channel=0 note=103 velocity=25 time=0
note_off channel=0 note=71 velocity=11 time=15
note_on channel=0 note=71 velocity=11 time=0
note_off channel=0 note=103 velocity=25 time=0
note_on channel=0 note=103 velocity=25 time=0
note_off channel=0 note=71 velocity=11 time=15
note_on channel=0 note=71 velocity=11 time=0
note_off channel=0 note=103 velocity=25 time=0
note_on channel=0 note=103 velocity=25 time=0
note_off channel=0 note=71 velocity=11 time=15
note_on channel=0 note=72 velocity=28 time=0
note_off channel=0 note=103 velocity=25 time=0
note_on channel=0 note=103 velocity=25 time=0
note_on channel=0 note=71 velocity=11 time=15
note_off channel=0 note=72 velocity=28 time=0
note_off channel=0 note=103 velocity=25 time=0
note_on channel=0 note=103 velocity=25 time=0
note_off channel=0 note=71 velocity=11 time=15
note_on channel=0 note=72 velocity=28 time=0
note_off channel=0 note=103 velocity=25 time=0
note_on channel=0 note=103 velocity=25 time=0
note_on channel=0 note=71 velocity=11 time=15
note_off channel=0 note=72 velocity=28 time=0
note_off channel=0 note=103 velocity=25 time=0
note_on channel=0 note=103 velocity=25 time=0
note_off channel=0 note=71 velocity=11 time=15
note_on channel=0 note=71 velocity=11 time=0
note_off channel=0 note=103 velocity=25 time=0
note_on channel=0 note=103 velocity=25 time=0
note_off channel=0 note=71 velocity=11 time=15
note_on channel=0 note=71 velocity=11 time=0
note_off channel=0 note=103 velocity=25 time=0
note_on channel=0 note=103 velocity=25 time=0
note_off channel=0 note=71 velocity=11 time=15
note_on channel=0 note=71 velocity=11 time=0
note_off channel=0 note=103 velocity=25 time=0
note_on channel=0 note=103 velocity=25 time=0
note_off channel=0 note=71 velocity=11 time=15
note_on channel=0 note=71 velocity=11 time=0
note_off channel=0 note=103 velocity=25 time=0
note_on channel=0 note=103 velocity=25 time=0
note_off channel=0 note=71 velocity=11 time=15
note_on channel=0 note=72 velocity=28 time=0
note_off channel=0 note=103 velocity=25 time=0
note_on channel=0 note=103 velocity=25 time=0
note_off channel=0 note=72 velocity=28 time=15
note_on channel=0 note=72 velocity=28 time=0
note_off channel=0 note=103 velocity=25 time=0
note_on channel=0 note=103 velocity=25 time=0
note_on channel=0 note=71 velocity=11 time=15
note_off channel=0 note=72 velocity=28 time=0
note_off channel=0 note=103 velocity=25 time=0
note_on channel=0 note=103 velocity=25 time=0
note_off channel=0 note=71 velocity=11 time=15
note_on channel=0 note=71 velocity=11 time=0
note_off channel=0 note=103 velocity=25 time=0
note_on channel=0 note=103 velocity=25 time=0
note_off channel=0 note=71 velocity=11 time=15
note_on channel=0 note=72 velocity=28 time=0
note_off channel=0 note=103 velocity=25 time=0
note_on channel=0 note=103 velocity=25 time=0
note_off channel=0 note=72 velocity=28 time=15
note_on channel=0 note=72 velocity=28 time=0
note_off channel=0 note=103 velocity=25 time=0
note_on channel=0 note=103 velocity=25 time=0
note_off channel=0 note=72 velocity=28 time=15
note_on channel=0 note=72 velocity=28 time=0
note_off channel=0 note=103 velocity=25 time=0
note_on channel=0 note=103 velocity=25 time=0
note_on channel=0 note=71 velocity=11 time=15
note_off channel=0 note=72 velocity=28 time=0
note_off channel=0 note=103 velocity=25 time=0
note_on channel=0 note=103 velocity=25 time=0
note_off channel=0 note=71 velocity=11 time=15
note_on channel=0 note=72 velocity=28 time=0
note_off channel=0 note=103 velocity=25 time=0
note_on channel=0 note=103 velocity=25 time=0
note_off channel=0 note=72 velocity=28 time=15
note_on channel=0 note=72 velocity=28 time=0
note_off channel=0 note=103 velocity=25 time=0
note_on channel=0 note=103 velocity=25 time=0
note_off channel=0 note=72 velocity=28 time=15
note_on channel=0 note=72 velocity=28 time=0
note_off channel=0 note=103 velocity=25 time=0
note_on channel=0 note=103 velocity=25 time=0
note_on channel=0 note=71 velocity=11 time=15
note_off channel=0 note=72 velocity=28 time=0
note_off channel=0 note=103 velocity=25 time=0
note_on channel=0 note=103 velocity=25 time=0
note_off channel=0 note=71 velocity=11 time=15
note_on channel=0 note=72 velocity=28 time=0
note_off channel=0 note=103 velocity=25 time=0
note_on channel=0 note=103 velocity=25 time=0
note_off channel=0 note=72 velocity=28 time=15
note_on channel=0 note=72 velocity=28 time=0
note_off channel=0 note=103 velocity=25 time=0
note_on channel=0 note=103 velocity=25 time=0
note_on channel=0 note=71 velocity=11 time=15
note_off channel=0 note=72 velocity=28 time=0
note_off channel=0 note=103 velocity=25 time=0
note_on channel=0 note=103 velocity=25 time=0
note_off channel=0 note=71 velocity=11 time=15
note_on channel=0 note=71 velocity=11 time=0
note_off channel=0 note=103 velocity=25 time=0
note_on channel=0 note=103 velocity=25 time=0
note_off channel=0 note=71 velocity=11 time=15
note_on channel=0 note=71 velocity=11 time=0
note_off channel=0 note=103 velocity=25 time=0
note_on channel=0 note=103 velocity=25 time=0
note_off channel=0 note=71 velocity=11 time=15
note_on channel=0 note=72 velocity=28 time=0
note_off channel=0 note=103 velocity=25 time=0
note_on channel=0 note=103 velocity=25 time=0
note_off channel=0 note=72 velocity=28 time=15
note_on channel=0 note=72 velocity=28 time=0
note_off channel=0 note=103 velocity=25 time=0
note_on channel=0 note=103 velocity=25 time=0
note_off channel=0 note=72 velocity=28 time=15
note_on channel=0 note=72 velocity=28 time=0
note_off channel=0 note=103 velocity=25 time=0
note_on channel=0 note=103 velocity=25 time=0
note_on channel=0 note=71 velocity=11 time=15
note_off channel=0 note=72 velocity=28 time=0
note_off channel=0 note=103 velocity=25 time=0
note_on channel=0 note=103 velocity=25 time=0
note_off channel=0 note=71 velocity=11 time=15
note_on channel=0 note=71 velocity=11 time=0
note_off channel=0 note=103 velocity=25 time=0
note_on channel=0 note=103 velocity=25 time=0
note_off channel=0 note=71 velocity=11 time=15
note_on channel=0 note=71 velocity=11 time=0
note_off channel=0 note=103 velocity=25 time=0
note_on channel=0 note=103 velocity=25 time=0
note_off channel=0 note=71 velocity=11 time=15
note_on channel=0 note=72 velocity=28 time=0
note_off channel=0 note=103 velocity=25 time=0
note_on channel=0 note=103 velocity=25 time=0
note_off channel=0 note=72 velocity=28 time=15
note_on channel=0 note=72 velocity=28 time=0
note_off channel=0 note=103 velocity=25 time=0
note_on channel=0 note=103 velocity=25 time=0
note_on channel=0 note=71 velocity=11 time=15
note_off channel=0 note=72 velocity=28 time=0
note_off channel=0 note=103 velocity=25 time=0
note_on channel=0 note=103 velocity=25 time=0
note_off channel=0 note=71 velocity=11 time=15
note_on channel=0 note=72 velocity=28 time=0
note_off channel=0 note=103 velocity=25 time=0
note_on channel=0 note=103 velocity=25 time=0
note_on channel=0 note=71 velocity=11 time=15
note_off channel=0 note=72 velocity=28 time=0
note_off channel=0 note=103 velocity=25 time=0
note_on channel=0 note=103 velocity=25 time=0
note_off channel=0 note=71 velocity=11 time=15
note_on channel=0 note=71 velocity=11 time=0
note_off channel=0 note=103 velocity=25 time=0
note_on channel=0 note=103 velocity=25 time=0
note_off channel=0 note=71 velocity=11 time=15
note_on channel=0 note=71 velocity=11 time=0
note_off channel=0 note=103 velocity=25 time=0
note_on channel=0 note=103 velocity=25 time=0
note_off channel=0 note=71 velocity=11 time=15
note_on channel=0 note=71 velocity=11 time=0
note_off channel=0 note=103 velocity=25 time=0
note_on channel=0 note=103 velocity=25 time=0
note_off channel=0 note=71 velocity=11 time=15
note_on channel=0 note=71 velocity=11 time=0
note_off channel=0 note=103 velocity=25 time=0
note_on channel=0 note=103 velocity=25 time=0
note_off channel=0 note=71 velocity=11 time=15
note_on channel=0 note=72 velocity=28 time=0
note_off channel=0 note=103 velocity=25 time=0
note_on channel=0 note=103 velocity=25 time=0
note_on channel=0 note=71 velocity=11 time=15
note_off channel=0 note=72 velocity=28 time=0
note_off channel=0 note=103 velocity=25 time=0
note_on channel=0 note=103 velocity=25 time=0
note_off channel=0 note=71 velocity=11 time=15
note_on channel=0 note=71 velocity=11 time=0
note_off channel=0 note=103 velocity=25 time=0
note_on channel=0 note=103 velocity=25 time=0
note_off channel=0 note=71 velocity=11 time=15
note_on channel=0 note=72 velocity=28 time=0
note_off channel=0 note=103 velocity=25 time=0
note_on channel=0 note=103 velocity=25 time=0
note_on channel=0 note=71 velocity=11 time=15
note_off channel=0 note=72 velocity=28 time=0
note_off channel=0 note=103 velocity=25 time=0
note_on channel=0 note=103 velocity=25 time=0
note_off channel=0 note=71 velocity=11 time=15
note_on channel=0 note=71 velocity=11 time=0
note_off channel=0 note=103 velocity=25 time=0
note_on channel=0 note=103 velocity=25 time=0
note_off channel=0 note=71 velocity=11 time=15
note_on channel=0 note=71 velocity=11 time=0
note_off channel=0 note=103 velocity=25 time=0
note_on channel=0 note=103 velocity=25 time=0
note_off channel=0 note=71 velocity=11 time=15
note_on channel=0 note=72 velocity=28 time=0
note_off channel=0 note=103 velocity=25 time=0
note_on channel=0 note=103 velocity=25 time=0
note_on channel=0 note=71 velocity=11 time=15
note_off channel=0 note=72 velocity=28 time=0
note_off channel=0 note=103 velocity=25 time=0
note_on channel=0 note=103 velocity=25 time=0
note_off channel=0 note=71 velocity=11 time=15
note_on channel=0 note=72 velocity=28 time=0
note_off channel=0 note=103 velocity=25 time=0
note_on channel=0 note=103 velocity=25 time=0
note_on channel=0 note=71 velocity=11 time=15
note_off channel=0 note=72 velocity=28 time=0
note_off channel=0 note=103 velocity=25 time=0
note_on channel=0 note=103 velocity=25 time=0
note_off channel=0 note=71 velocity=11 time=15
note_on channel=0 note=72 velocity=28 time=0
note_off channel=0 note=103 velocity=25 time=0
note_on channel=0 note=103 velocity=25 time=0
note_off channel=0 note=72 velocity=28 time=15
note_on channel=0 note=72 velocity=28 time=0
note_off channel=0 note=103 velocity=25 time=0
note_on channel=0 note=103 velocity=25 time=0
note_off channel=0 note=72 velocity=28 time=15
note_on channel=0 note=72 velocity=28 time=0
note_off channel=0 note=103 velocity=25 time=0
note_on channel=0 note=103 velocity=25 time=0
note_on channel=0 note=71 velocity=11 time=15
note_off channel=0 note=72 velocity=28 time=0
note_off channel=0 note=103 velocity=25 time=0
note_on channel=0 note=103 velocity=25 time=0
note_off channel=0 note=71 velocity=11 time=15
note_on channel=0 note=71 velocity=11 time=0
note_off channel=0 note=103 velocity=25 time=0
note_on channel=0 note=103 velocity=25 time=0
note_off channel=0 note=71 velocity=11 time=15
note_on channel=0 note=71 velocity=11 time=0
note_off channel=0 note=103 velocity=25 time=0
note_on channel=0 note=103 velocity=25 time=0
note_off channel=0 note=71 velocity=11 time=15
note_on channel=0 note=72 velocity=28 time=0
note_off channel=0 note=103 velocity=25 time=0
note_on channel=0 note=103 velocity=25 time=0
note_on channel=0 note=71 velocity=11 time=15
note_off channel=0 note=72 velocity=28 time=0
note_off channel=0 note=103 velocity=25 time=0
note_on channel=0 note=103 velocity=25 time=0
note_off channel=0 note=71 velocity=11 time=15
note_on channel=0 note=72 velocity=28 time=0
note_off channel=0 note=103 velocity=25 time=0
note_on channel=0 note=103 velocity=25 time=0
note_on channel=0 note=71 velocity=11 time=15
note_off channel=0 note=72 velocity=28 time=0
note_off channel=0 note=103 velocity=25 time=0
note_on channel=0 note=103 velocity=25 time=0
note_off channel=0 note=71 velocity=11 time=15
note_on channel=0 note=71 velocity=11 time=0
note_off channel=0 note=103 velocity=25 time=0
note_on channel=0 note=103 velocity=25 time=0
note_off channel=0 note=71 velocity=11 time=15
note_on channel=0 note=71 velocity=11 time=0
note_off channel=0 note=103 velocity=25 time=0
note_on channel=0 note=103 velocity=25 time=0
note_off channel=0 note=71 velocity=11 time=15
note_on channel=0 note=72 velocity=28 time=0
note_off channel=0 note=103 velocity=25 time=0
note_on channel=0 note=103 velocity=25 time=0
note_on channel=0 note=71 velocity=11 time=15
note_off channel=0 note=72 velocity=28 time=0
note_off channel=0 note=103 velocity=25 time=0
note_on channel=0 note=103 velocity=25 time=0
note_off channel=0 note=71 velocity=11 time=15
note_on channel=0 note=71 velocity=11 time=0
note_off channel=0 note=103 velocity=25 time=0
note_on channel=0 note=103 velocity=25 time=0
note_off channel=0 note=71 velocity=11 time=15
note_on channel=0 note=72 velocity=28 time=0
note_off channel=0 note=103 velocity=25 time=0
note_on channel=0 note=103 velocity=25 time=0
note_off channel=0 note=72 velocity=28 time=15
note_on channel=0 note=72 velocity=28 time=0
note_off channel=0 note=103 velocity=25 time=0
note_on channel=0 note=103 velocity=25 time=0
note_off channel=0 note=72 velocity=28 time=15
note_on channel=0 note=72 velocity=28 time=0
note_off channel=0 note=103 velocity=25 time=0
note_on channel=0 note=103 velocity=25 time=0
note_off channel=0 note=72 velocity=28 time=15
note_on channel=0 note=72 velocity=28 time=0
note_off channel=0 note=103 velocity=25 time=0
note_on channel=0 note=103 velocity=25 time=0
note_off channel=0 note=72 velocity=28 time=15
note_on channel=0 note=72 velocity=28 time=0
note_off channel=0 note=103 velocity=25 time=0
note_on channel=0 note=103 velocity=25 time=0
note_on channel=0 note=71 velocity=11 time=15
note_off channel=0 note=72 velocity=28 time=0
note_off channel=0 note=103 velocity=25 time=0
note_on channel=0 note=103 velocity=25 time=0
note_off channel=0 note=71 velocity=11 time=15
note_on channel=0 note=72 velocity=28 time=0
note_off channel=0 note=103 velocity=25 time=0
note_on channel=0 note=103 velocity=25 time=0
note_off channel=0 note=72 velocity=28 time=15
note_on channel=0 note=72 velocity=28 time=0
note_off channel=0 note=103 velocity=25 time=0
note_on channel=0 note=103 velocity=25 time=0
note_off channel=0 note=72 velocity=28 time=15
note_on channel=0 note=72 velocity=28 time=0
note_off channel=0 note=103 velocity=25 time=0
note_on channel=0 note=103 velocity=25 time=0
note_on channel=0 note=71 velocity=11 time=15
note_off channel=0 note=72 velocity=28 time=0
note_off channel=0 note=103 velocity=25 time=0
note_on channel=0 note=103 velocity=25 time=0
note_off channel=0 note=71 velocity=11 time=15
note_on channel=0 note=72 velocity=28 time=0
note_off channel=0 note=103 velocity=25 time=0
note_on channel=0 note=103 velocity=25 time=0
note_off channel=0 note=72 velocity=28 time=15
note_on channel=0 note=72 velocity=28 time=0
note_off channel=0 note=103 velocity=25 time=0
note_on channel=0 note=103 velocity=25 time=0
note_off channel=0 note=72 velocity=28 time=15
note_on channel=0 note=72 velocity=28 time=0
note_off channel=0 note=103 velocity=25 time=0
note_on channel=0 note=103 velocity=25 time=0
note_on channel=0 note=71 velocity=11 time=15
note_off channel=0 note=72 velocity=28 time=0
note_off channel=0 note=103 velocity=25 time=0
note_on channel=0 note=103 velocity=25 time=0
note_off channel=0 note=71 velocity=11 time=15
note_on channel=0 note=71 velocity=11 time=0
note_off channel=0 note=103 velocity=25 time=0
note_on channel=0 note=103 velocity=25 time=0
note_off channel=0 note=71 velocity=11 time=15
note_on channel=0 note=71 velocity=11 time=0
note_off channel=0 note=103 velocity=25 time=0
note_on channel=0 note=103 velocity=25 time=0
note_off channel=0 note=71 velocity=11 time=15
note_on channel=0 note=72 velocity=28 time=0
note_off channel=0 note=103 velocity=25 time=0
note_on channel=0 note=103 velocity=25 time=0
note_off channel=0 note=72 velocity=28 time=15
note_on channel=0 note=72 velocity=28 time=0
note_off channel=0 note=103 velocity=25 time=0
note_on channel=0 note=103 velocity=25 time=0
note_on channel=0 note=71 velocity=11 time=15
note_off channel=0 note=72 velocity=28 time=0
note_off channel=0 note=103 velocity=25 time=0
note_on channel=0 note=103 velocity=25 time=0
note_off channel=0 note=71 velocity=11 time=15
note_on channel=0 note=72 velocity=28 time=0
note_off channel=0 note=103 velocity=25 time=0
note_on channel=0 note=103 velocity=25 time=0
note_off channel=0 note=72 velocity=28 time=15
note_on channel=0 note=72 velocity=28 time=0
note_off channel=0 note=103 velocity=25 time=0
note_on channel=0 note=103 velocity=25 time=0
note_off channel=0 note=72 velocity=28 time=15
note_on channel=0 note=72 velocity=28 time=0
note_off channel=0 note=103 velocity=25 time=0
note_on channel=0 note=103 velocity=25 time=0
note_off channel=0 note=72 velocity=28 time=15
note_on channel=0 note=72 velocity=28 time=0
note_off channel=0 note=103 velocity=25 time=0
note_on channel=0 note=103 velocity=25 time=0
note_off channel=0 note=72 velocity=28 time=15
note_on channel=0 note=72 velocity=28 time=0
note_off channel=0 note=103 velocity=25 time=0
note_on channel=0 note=103 velocity=25 time=0
note_on channel=0 note=71 velocity=11 time=15
note_off channel=0 note=72 velocity=28 time=0
note_off channel=0 note=103 velocity=25 time=0
note_on channel=0 note=103 velocity=25 time=0
note_off channel=0 note=71 velocity=11 time=15
note_on channel=0 note=72 velocity=28 time=0
note_off channel=0 note=103 velocity=25 time=0
note_on channel=0 note=103 velocity=25 time=0
note_off channel=0 note=72 velocity=28 time=15
note_on channel=0 note=72 velocity=28 time=0
note_off channel=0 note=103 velocity=25 time=0
note_on channel=0 note=103 velocity=25 time=0
note_on channel=0 note=71 velocity=11 time=15
note_off channel=0 note=72 velocity=28 time=0
note_off channel=0 note=103 velocity=25 time=0
note_on channel=0 note=103 velocity=25 time=0
note_off channel=0 note=71 velocity=11 time=15
note_on channel=0 note=72 velocity=28 time=0
note_off channel=0 note=103 velocity=25 time=0
note_on channel=0 note=103 velocity=25 time=0
note_off channel=0 note=72 velocity=28 time=15
note_on channel=0 note=72 velocity=28 time=0
note_off channel=0 note=103 velocity=25 time=0
note_on channel=0 note=103 velocity=25 time=0
note_off channel=0 note=72 velocity=28 time=15
note_on channel=0 note=72 velocity=28 time=0
note_off channel=0 note=103 velocity=25 time=0
note_on channel=0 note=103 velocity=25 time=0
note_off channel=0 note=72 velocity=28 time=15
note_on channel=0 note=72 velocity=28 time=0
note_off channel=0 note=103 velocity=25 time=0
note_on channel=0 note=103 velocity=25 time=0
note_off channel=0 note=72 velocity=28 time=15
note_on channel=0 note=72 velocity=28 time=0
note_off channel=0 note=103 velocity=25 time=0
note_on channel=0 note=103 velocity=25 time=0
note_on channel=0 note=71 velocity=11 time=15
note_off channel=0 note=72 velocity=28 time=0
note_off channel=0 note=103 velocity=25 time=0
note_on channel=0 note=103 velocity=25 time=0
note_off channel=0 note=71 velocity=11 time=15
note_on channel=0 note=72 velocity=28 time=0
note_off channel=0 note=103 velocity=25 time=0
note_on channel=0 note=103 velocity=25 time=0
note_off channel=0 note=72 velocity=28 time=15
note_on channel=0 note=72 velocity=28 time=0
note_off channel=0 note=103 velocity=25 time=0
note_on channel=0 note=103 velocity=25 time=0
note_off channel=0 note=72 velocity=28 time=15
note_on channel=0 note=72 velocity=28 time=0
note_off channel=0 note=103 velocity=25 time=0
note_on channel=0 note=103 velocity=25 time=0
note_on channel=0 note=71 velocity=11 time=15
note_off channel=0 note=72 velocity=28 time=0
note_off channel=0 note=103 velocity=25 time=0
note_on channel=0 note=103 velocity=25 time=0
note_off channel=0 note=71 velocity=11 time=15
note_on channel=0 note=71 velocity=11 time=0
note_off channel=0 note=103 velocity=25 time=0
note_on channel=0 note=103 velocity=25 time=0
note_off channel=0 note=71 velocity=11 time=15
note_on channel=0 note=71 velocity=11 time=0
note_off channel=0 note=103 velocity=25 time=0
note_on channel=0 note=103 velocity=25 time=0
note_off channel=0 note=71 velocity=11 time=15
note_on channel=0 note=71 velocity=11 time=0
note_off channel=0 note=103 velocity=25 time=0
note_on channel=0 note=103 velocity=25 time=0
note_off channel=0 note=71 velocity=11 time=15
note_on channel=0 note=72 velocity=28 time=0
note_off channel=0 note=103 velocity=25 time=0
note_on channel=0 note=103 velocity=25 time=0
note_off channel=0 note=72 velocity=28 time=15
note_on channel=0 note=72 velocity=28 time=0
note_off channel=0 note=103 velocity=25 time=0
note_on channel=0 note=103 velocity=25 time=0
note_off channel=0 note=72 velocity=28 time=15
note_on channel=0 note=72 velocity=28 time=0
note_off channel=0 note=103 velocity=25 time=0
note_on channel=0 note=103 velocity=25 time=0
note_on channel=0 note=71 velocity=11 time=15
note_off channel=0 note=72 velocity=28 time=0
note_off channel=0 note=103 velocity=25 time=0
note_on channel=0 note=103 velocity=25 time=0
note_off channel=0 note=71 velocity=11 time=15
note_on channel=0 note=72 velocity=28 time=0
note_off channel=0 note=103 velocity=25 time=0
note_on channel=0 note=103 velocity=25 time=0
note_on channel=0 note=71 velocity=11 time=15
note_off channel=0 note=72 velocity=28 time=0
note_off channel=0 note=103 velocity=25 time=0
note_on channel=0 note=103 velocity=25 time=0
note_off channel=0 note=71 velocity=11 time=15
note_on channel=0 note=71 velocity=11 time=0
note_off channel=0 note=103 velocity=25 time=0
note_on channel=0 note=103 velocity=25 time=0
note_off channel=0 note=71 velocity=11 time=15
note_on channel=0 note=72 velocity=28 time=0
note_off channel=0 note=103 velocity=25 time=0
note_on channel=0 note=103 velocity=25 time=0
note_off channel=0 note=72 velocity=28 time=15
note_on channel=0 note=72 velocity=28 time=0
note_off channel=0 note=103 velocity=25 time=0
note_on channel=0 note=103 velocity=25 time=0
note_off channel=0 note=72 velocity=28 time=15
note_on channel=0 note=72 velocity=28 time=0
note_off channel=0 note=103 velocity=25 time=0
note_on channel=0 note=103 velocity=25 time=0
note_off channel=0 note=72 velocity=28 time=15
note_on channel=0 note=72 velocity=28 time=0
note_off channel=0 note=103 velocity=25 time=0
note_on channel=0 note=103 velocity=25 time=0
note_off channel=0 note=72 velocity=28 time=15
note_on channel=0 note=72 velocity=28 time=0
note_off channel=0 note=103 velocity=25 time=0
note_on channel=0 note=103 velocity=25 time=0
note_off channel=0 note=72 velocity=28 time=15
note_on channel=0 note=72 velocity=28 time=0
note_off channel=0 note=103 velocity=25 time=0
note_on channel=0 note=103 velocity=25 time=0
note_off channel=0 note=72 velocity=28 time=15
note_on channel=0 note=72 velocity=28 time=0
note_off channel=0 note=103 velocity=25 time=0
note_on channel=0 note=103 velocity=25 time=0
note_on channel=0 note=71 velocity=11 time=15
note_off channel=0 note=72 velocity=28 time=0
note_off channel=0 note=103 velocity=25 time=0
note_on channel=0 note=103 velocity=25 time=0
note_off channel=0 note=71 velocity=11 time=15
note_on channel=0 note=72 velocity=28 time=0
note_off channel=0 note=103 velocity=25 time=0
note_on channel=0 note=103 velocity=25 time=0
note_on channel=0 note=71 velocity=11 time=15
note_off channel=0 note=72 velocity=28 time=0
note_off channel=0 note=103 velocity=25 time=0
note_on channel=0 note=103 velocity=25 time=0
note_off channel=0 note=71 velocity=11 time=15
note_on channel=0 note=72 velocity=28 time=0
note_off channel=0 note=103 velocity=25 time=0
note_on channel=0 note=103 velocity=25 time=0
note_off channel=0 note=72 velocity=28 time=15
note_on channel=0 note=72 velocity=28 time=0
note_off channel=0 note=103 velocity=25 time=0
note_on channel=0 note=103 velocity=25 time=0
note_off channel=0 note=72 velocity=28 time=15
note_on channel=0 note=72 velocity=28 time=0
note_off channel=0 note=103 velocity=25 time=0
note_on channel=0 note=103 velocity=25 time=0
note_off channel=0 note=72 velocity=28 time=15
note_on channel=0 note=72 velocity=28 time=0
note_off channel=0 note=103 velocity=25 time=0
note_on channel=0 note=103 velocity=25 time=0
note_on channel=0 note=71 velocity=11 time=15
note_off channel=0 note=72 velocity=28 time=0
note_off channel=0 note=103 velocity=25 time=0
note_on channel=0 note=103 velocity=25 time=0
note_off channel=0 note=71 velocity=11 time=15
note_on channel=0 note=71 velocity=11 time=0
note_off channel=0 note=103 velocity=25 time=0
note_on channel=0 note=103 velocity=25 time=0
note_off channel=0 note=71 velocity=11 time=15
note_on channel=0 note=72 velocity=28 time=0
note_off channel=0 note=103 velocity=25 time=0
note_on channel=0 note=103 velocity=25 time=0
note_off channel=0 note=72 velocity=28 time=15
note_on channel=0 note=72 velocity=28 time=0
note_off channel=0 note=103 velocity=25 time=0
note_on channel=0 note=103 velocity=25 time=0
note_off channel=0 note=72 velocity=28 time=15
note_on channel=0 note=72 velocity=28 time=0
note_off channel=0 note=103 velocity=25 time=0
note_on channel=0 note=103 velocity=25 time=0
note_off channel=0 note=72 velocity=28 time=15
note_on channel=0 note=72 velocity=28 time=0
note_off channel=0 note=103 velocity=25 time=0
note_on channel=0 note=103 velocity=25 time=0
note_off channel=0 note=72 velocity=28 time=15
note_on channel=0 note=72 velocity=28 time=0
note_off channel=0 note=103 velocity=25 time=0
note_on channel=0 note=103 velocity=25 time=0
note_on channel=0 note=71 velocity=11 time=15
note_off channel=0 note=72 velocity=28 time=0
note_off channel=0 note=103 velocity=25 time=0
note_on channel=0 note=103 velocity=25 time=0
note_off channel=0 note=71 velocity=11 time=15
note_on channel=0 note=72 velocity=28 time=0
note_off channel=0 note=103 velocity=25 time=0
note_on channel=0 note=103 velocity=25 time=0
note_on channel=0 note=71 velocity=11 time=15
note_off channel=0 note=72 velocity=28 time=0
note_off channel=0 note=103 velocity=25 time=0
note_on channel=0 note=103 velocity=25 time=0
note_off channel=0 note=71 velocity=11 time=15
note_on channel=0 note=72 velocity=28 time=0
note_off channel=0 note=103 velocity=25 time=0
note_on channel=0 note=103 velocity=25 time=0
note_on channel=0 note=71 velocity=11 time=15
note_off channel=0 note=72 velocity=28 time=0
note_off channel=0 note=103 velocity=25 time=0
note_on channel=0 note=103 velocity=25 time=0
note_off channel=0 note=71 velocity=11 time=15
note_on channel=0 note=72 velocity=28 time=0
note_off channel=0 note=103 velocity=25 time=0
note_on channel=0 note=103 velocity=25 time=0
note_on channel=0 note=71 velocity=11 time=15
note_off channel=0 note=72 velocity=28 time=0
note_off channel=0 note=103 velocity=25 time=0
note_on channel=0 note=103 velocity=25 time=0
note_off channel=0 note=71 velocity=11 time=15
note_on channel=0 note=72 velocity=28 time=0
note_off channel=0 note=103 velocity=25 time=0
note_on channel=0 note=103 velocity=25 time=0
note_off channel=0 note=72 velocity=28 time=15
note_on channel=0 note=72 velocity=28 time=0
note_off channel=0 note=103 velocity=25 time=0
note_on channel=0 note=103 velocity=25 time=0
note_off channel=0 note=72 velocity=28 time=15
note_on channel=0 note=72 velocity=28 time=0
note_off channel=0 note=103 velocity=25 time=0
note_on channel=0 note=103 velocity=25 time=0
note_off channel=0 note=72 velocity=28 time=15
note_on channel=0 note=72 velocity=28 time=0
note_off channel=0 note=103 velocity=25 time=0
note_on channel=0 note=103 velocity=25 time=0
note_off channel=0 note=72 velocity=28 time=15
note_on channel=0 note=72 velocity=28 time=0
note_off channel=0 note=103 velocity=25 time=0
note_on channel=0 note=103 velocity=25 time=0
note_off channel=0 note=72 velocity=28 time=15
note_on channel=0 note=72 velocity=28 time=0
note_off channel=0 note=103 velocity=25 time=0
note_on channel=0 note=103 velocity=25 time=0
note_on channel=0 note=71 velocity=11 time=15
note_off channel=0 note=72 velocity=28 time=0
note_off channel=0 note=103 velocity=25 time=0
note_on channel=0 note=103 velocity=25 time=0
note_off channel=0 note=71 velocity=11 time=15
note_on channel=0 note=72 velocity=28 time=0
note_off channel=0 note=103 velocity=25 time=0
note_on channel=0 note=103 velocity=25 time=0
note_off channel=0 note=72 velocity=28 time=15
note_on channel=0 note=72 velocity=28 time=0
note_off channel=0 note=103 velocity=25 time=0
note_on channel=0 note=103 velocity=25 time=0
note_on channel=0 note=71 velocity=11 time=15
note_off channel=0 note=72 velocity=28 time=0
note_off channel=0 note=103 velocity=25 time=0
note_on channel=0 note=103 velocity=25 time=0
note_off channel=0 note=71 velocity=11 time=15
note_on channel=0 note=72 velocity=28 time=0
note_off channel=0 note=103 velocity=25 time=0
note_on channel=0 note=103 velocity=25 time=0
note_off channel=0 note=72 velocity=28 time=15
note_on channel=0 note=72 velocity=28 time=0
note_off channel=0 note=103 velocity=25 time=0
note_on channel=0 note=103 velocity=25 time=0
note_off channel=0 note=72 velocity=28 time=15
note_on channel=0 note=72 velocity=28 time=0
note_off channel=0 note=103 velocity=25 time=0
note_on channel=0 note=103 velocity=25 time=0
note_off channel=0 note=72 velocity=28 time=15
note_off channel=0 note=103 velocity=25 time=0
note_on channel=0 note=103 velocity=25 time=0
note_on channel=0 note=103 velocity=25 time=0
note_on channel=0 note=71 velocity=11 time=15
note_off channel=0 note=103 velocity=25 time=0
note_off channel=0 note=103 velocity=25 time=0
note_on channel=0 note=103 velocity=25 time=0
note_off channel=0 note=71 velocity=11 time=15
note_on channel=0 note=72 velocity=28 time=0
note_off channel=0 note=103 velocity=25 time=0
note_on channel=0 note=103 velocity=25 time=0
note_off channel=0 note=72 velocity=28 time=15
note_on channel=0 note=72 velocity=28 time=0
note_off channel=0 note=103 velocity=25 time=0
note_on channel=0 note=103 velocity=25 time=0
note_off channel=0 note=72 velocity=28 time=15
note_on channel=0 note=72 velocity=28 time=0
note_off channel=0 note=103 velocity=25 time=0
note_on channel=0 note=103 velocity=25 time=0
note_off channel=0 note=72 velocity=28 time=15
note_on channel=0 note=72 velocity=28 time=0
note_off channel=0 note=103 velocity=25 time=0
note_on channel=0 note=103 velocity=25 time=0
note_off channel=0 note=72 velocity=28 time=15
note_on channel=0 note=72 velocity=28 time=0
note_off channel=0 note=103 velocity=25 time=0
note_on channel=0 note=103 velocity=25 time=0
note_on channel=0 note=71 velocity=11 time=15
note_off channel=0 note=72 velocity=28 time=0
note_off channel=0 note=103 velocity=25 time=0
note_on channel=0 note=103 velocity=25 time=0
note_off channel=0 note=71 velocity=11 time=15
note_on channel=0 note=71 velocity=11 time=0
note_off channel=0 note=103 velocity=25 time=0
note_on channel=0 note=103 velocity=25 time=0
note_off channel=0 note=71 velocity=11 time=15
note_on channel=0 note=72 velocity=28 time=0
note_off channel=0 note=103 velocity=25 time=0
note_on channel=0 note=103 velocity=25 time=0
note_on channel=0 note=71 velocity=11 time=15
note_off channel=0 note=72 velocity=28 time=0
note_off channel=0 note=103 velocity=25 time=0
note_on channel=0 note=103 velocity=25 time=0
note_off channel=0 note=71 velocity=11 time=15
note_on channel=0 note=72 velocity=28 time=0
note_off channel=0 note=103 velocity=25 time=0
note_on channel=0 note=103 velocity=25 time=0
note_on channel=0 note=71 velocity=11 time=15
note_off channel=0 note=72 velocity=28 time=0
note_off channel=0 note=103 velocity=25 time=0
note_on channel=0 note=103 velocity=25 time=0
note_off channel=0 note=71 velocity=11 time=15
note_on channel=0 note=71 velocity=11 time=0
note_off channel=0 note=103 velocity=25 time=0
note_on channel=0 note=103 velocity=25 time=0
note_off channel=0 note=71 velocity=11 time=15
note_on channel=0 note=71 velocity=11 time=0
note_off channel=0 note=103 velocity=25 time=0
note_on channel=0 note=103 velocity=25 time=0
note_off channel=0 note=71 velocity=11 time=15
note_on channel=0 note=71 velocity=11 time=0
note_off channel=0 note=103 velocity=25 time=0
note_on channel=0 note=103 velocity=25 time=0
note_off channel=0 note=71 velocity=11 time=15
note_on channel=0 note=71 velocity=11 time=0
note_off channel=0 note=103 velocity=25 time=0
note_on channel=0 note=103 velocity=25 time=0
note_off channel=0 note=71 velocity=11 time=15
note_on channel=0 note=72 velocity=28 time=0
note_off channel=0 note=103 velocity=25 time=0
note_on channel=0 note=103 velocity=25 time=0
note_off channel=0 note=72 velocity=28 time=15
note_on channel=0 note=72 velocity=28 time=0
note_off channel=0 note=103 velocity=25 time=0
note_on channel=0 note=103 velocity=25 time=0
note_on channel=0 note=71 velocity=11 time=15
note_off channel=0 note=72 velocity=28 time=0
note_off channel=0 note=103 velocity=25 time=0
note_on channel=0 note=103 velocity=25 time=0
note_off channel=0 note=71 velocity=11 time=15
note_on channel=0 note=72 velocity=28 time=0
note_off channel=0 note=103 velocity=25 time=0
note_on channel=0 note=103 velocity=25 time=0
note_off channel=0 note=72 velocity=28 time=15
note_on channel=0 note=72 velocity=28 time=0
note_off channel=0 note=103 velocity=25 time=0
note_on channel=0 note=103 velocity=25 time=0
note_on channel=0 note=71 velocity=11 time=15
note_off channel=0 note=72 velocity=28 time=0
note_off channel=0 note=103 velocity=25 time=0
note_on channel=0 note=103 velocity=25 time=0
note_off channel=0 note=71 velocity=11 time=15
note_on channel=0 note=72 velocity=28 time=0
note_off channel=0 note=103 velocity=25 time=0
note_on channel=0 note=103 velocity=25 time=0
note_off channel=0 note=72 velocity=28 time=15
note_on channel=0 note=72 velocity=28 time=0
note_off channel=0 note=103 velocity=25 time=0
note_on channel=0 note=103 velocity=25 time=0
note_off channel=0 note=72 velocity=28 time=15
note_on channel=0 note=72 velocity=28 time=0
note_off channel=0 note=103 velocity=25 time=0
note_on channel=0 note=103 velocity=25 time=0
note_off channel=0 note=72 velocity=28 time=15
note_on channel=0 note=72 velocity=28 time=0
note_off channel=0 note=103 velocity=25 time=0
note_on channel=0 note=103 velocity=25 time=0
note_on channel=0 note=71 velocity=11 time=15
note_off channel=0 note=72 velocity=28 time=0
note_off channel=0 note=103 velocity=25 time=0
note_on channel=0 note=103 velocity=25 time=0
note_off channel=0 note=71 velocity=11 time=15
note_on channel=0 note=71 velocity=11 time=0
note_off channel=0 note=103 velocity=25 time=0
note_on channel=0 note=103 velocity=25 time=0
note_off channel=0 note=71 velocity=11 time=15
note_on channel=0 note=72 velocity=28 time=0
note_off channel=0 note=103 velocity=25 time=0
note_on channel=0 note=103 velocity=25 time=0
note_off channel=0 note=72 velocity=28 time=15
note_on channel=0 note=72 velocity=28 time=0
note_off channel=0 note=103 velocity=25 time=0
note_on channel=0 note=103 velocity=25 time=0
note_on channel=0 note=71 velocity=11 time=15
note_off channel=0 note=72 velocity=28 time=0
note_off channel=0 note=103 velocity=25 time=0
note_on channel=0 note=103 velocity=25 time=0
note_off channel=0 note=71 velocity=11 time=15
note_on channel=0 note=72 velocity=28 time=0
note_off channel=0 note=103 velocity=25 time=0
note_on channel=0 note=103 velocity=25 time=0
note_off channel=0 note=72 velocity=28 time=15
note_on channel=0 note=72 velocity=28 time=0
note_off channel=0 note=103 velocity=25 time=0
note_on channel=0 note=103 velocity=25 time=0
note_on channel=0 note=71 velocity=11 time=15
note_off channel=0 note=72 velocity=28 time=0
note_off channel=0 note=103 velocity=25 time=0
note_on channel=0 note=103 velocity=25 time=0
note_off channel=0 note=71 velocity=11 time=15
note_on channel=0 note=72 velocity=28 time=0
note_off channel=0 note=103 velocity=25 time=0
note_on channel=0 note=103 velocity=25 time=0
note_on channel=0 note=71 velocity=11 time=15
note_off channel=0 note=72 velocity=28 time=0
note_off channel=0 note=103 velocity=25 time=0
note_on channel=0 note=103 velocity=25 time=0
note_off channel=0 note=71 velocity=11 time=15
note_on channel=0 note=72 velocity=28 time=0
note_off channel=0 note=103 velocity=25 time=0
note_on channel=0 note=103 velocity=25 time=0
note_on channel=0 note=71 velocity=11 time=15
note_off channel=0 note=72 velocity=28 time=0
note_off channel=0 note=103 velocity=25 time=0
note_on channel=0 note=103 velocity=25 time=0
note_off channel=0 note=71 velocity=11 time=15
note_on channel=0 note=72 velocity=28 time=0
note_off channel=0 note=103 velocity=25 time=0
note_on channel=0 note=103 velocity=25 time=0
note_off channel=0 note=72 velocity=28 time=15
note_on channel=0 note=72 velocity=28 time=0
note_off channel=0 note=103 velocity=25 time=0
note_on channel=0 note=103 velocity=25 time=0
note_off channel=0 note=72 velocity=28 time=15
note_on channel=0 note=72 velocity=28 time=0
note_off channel=0 note=103 velocity=25 time=0
note_on channel=0 note=103 velocity=25 time=0
note_on channel=0 note=71 velocity=11 time=15
note_off channel=0 note=72 velocity=28 time=0
note_off channel=0 note=103 velocity=25 time=0
note_on channel=0 note=103 velocity=25 time=0
note_off channel=0 note=71 velocity=11 time=15
note_on channel=0 note=72 velocity=28 time=0
note_off channel=0 note=103 velocity=25 time=0
note_on channel=0 note=103 velocity=25 time=0
note_on channel=0 note=71 velocity=11 time=15
note_off channel=0 note=72 velocity=28 time=0
note_off channel=0 note=103 velocity=25 time=0
note_on channel=0 note=103 velocity=25 time=0
note_off channel=0 note=71 velocity=11 time=15
note_on channel=0 note=71 velocity=11 time=0
note_off channel=0 note=103 velocity=25 time=0
note_on channel=0 note=103 velocity=25 time=0
note_off channel=0 note=71 velocity=11 time=15
note_on channel=0 note=72 velocity=28 time=0
note_off channel=0 note=103 velocity=25 time=0
note_on channel=0 note=103 velocity=25 time=0
note_off channel=0 note=72 velocity=28 time=15
note_on channel=0 note=72 velocity=28 time=0
note_off channel=0 note=103 velocity=25 time=0
note_on channel=0 note=103 velocity=25 time=0
note_off channel=0 note=72 velocity=28 time=15
note_on channel=0 note=72 velocity=28 time=0
note_off channel=0 note=103 velocity=25 time=0
note_on channel=0 note=103 velocity=25 time=0
note_on channel=0 note=71 velocity=11 time=15
note_off channel=0 note=72 velocity=28 time=0
note_off channel=0 note=103 velocity=25 time=0
note_on channel=0 note=103 velocity=25 time=0
note_off channel=0 note=71 velocity=11 time=15
note_on channel=0 note=72 velocity=28 time=0
note_off channel=0 note=103 velocity=25 time=0
note_on channel=0 note=103 velocity=25 time=0
note_on channel=0 note=71 velocity=11 time=15
note_off channel=0 note=72 velocity=28 time=0
note_off channel=0 note=103 velocity=25 time=0
note_on channel=0 note=103 velocity=25 time=0
note_off channel=0 note=71 velocity=11 time=15
note_on channel=0 note=71 velocity=11 time=0
note_off channel=0 note=103 velocity=25 time=0
note_on channel=0 note=103 velocity=25 time=0
note_off channel=0 note=71 velocity=11 time=15
note_on channel=0 note=71 velocity=11 time=0
note_off channel=0 note=103 velocity=25 time=0
note_on channel=0 note=103 velocity=25 time=0
note_off channel=0 note=71 velocity=11 time=15
note_on channel=0 note=72 velocity=28 time=0
note_off channel=0 note=103 velocity=25 time=0
note_on channel=0 note=103 velocity=25 time=0
note_off channel=0 note=72 velocity=28 time=15
note_on channel=0 note=72 velocity=28 time=0
note_off channel=0 note=103 velocity=25 time=0
note_on channel=0 note=103 velocity=25 time=0
note_off channel=0 note=72 velocity=28 time=15
note_on channel=0 note=72 velocity=28 time=0
note_off channel=0 note=103 velocity=25 time=0
note_on channel=0 note=103 velocity=25 time=0
note_on channel=0 note=71 velocity=11 time=15
note_off channel=0 note=72 velocity=28 time=0
note_off channel=0 note=103 velocity=25 time=0
note_on channel=0 note=103 velocity=25 time=0
note_off channel=0 note=71 velocity=11 time=15
note_on channel=0 note=71 velocity=11 time=0
note_off channel=0 note=103 velocity=25 time=0
note_on channel=0 note=103 velocity=25 time=0
note_off channel=0 note=71 velocity=11 time=15
note_on channel=0 note=71 velocity=11 time=0
note_off channel=0 note=103 velocity=25 time=0
note_on channel=0 note=103 velocity=25 time=0
note_off channel=0 note=71 velocity=11 time=15
note_on channel=0 note=72 velocity=28 time=0
note_off channel=0 note=103 velocity=25 time=0
note_on channel=0 note=103 velocity=25 time=0
note_off channel=0 note=72 velocity=28 time=15
note_on channel=0 note=72 velocity=28 time=0
note_off channel=0 note=103 velocity=25 time=0
note_on channel=0 note=103 velocity=25 time=0
note_off channel=0 note=72 velocity=28 time=15
note_on channel=0 note=72 velocity=28 time=0
note_off channel=0 note=103 velocity=25 time=0
note_on channel=0 note=103 velocity=25 time=0
note_off channel=0 note=72 velocity=28 time=15
note_on channel=0 note=72 velocity=28 time=0
note_off channel=0 note=103 velocity=25 time=0
note_on channel=0 note=103 velocity=25 time=0
note_off channel=0 note=72 velocity=28 time=15
note_on channel=0 note=72 velocity=28 time=0
note_off channel=0 note=103 velocity=25 time=0
note_on channel=0 note=103 velocity=25 time=0
note_off channel=0 note=72 velocity=28 time=15
note_on channel=0 note=72 velocity=28 time=0
note_off channel=0 note=103 velocity=25 time=0
note_on channel=0 note=103 velocity=25 time=0
note_off channel=0 note=72 velocity=28 time=15
note_on channel=0 note=72 velocity=28 time=0
note_off channel=0 note=103 velocity=25 time=0
note_on channel=0 note=103 velocity=25 time=0
note_off channel=0 note=72 velocity=28 time=15
note_on channel=0 note=72 velocity=28 time=0
note_off channel=0 note=103 velocity=25 time=0
note_on channel=0 note=103 velocity=25 time=0
note_off channel=0 note=72 velocity=28 time=15
note_on channel=0 note=72 velocity=28 time=0
note_off channel=0 note=103 velocity=25 time=0
note_on channel=0 note=103 velocity=25 time=0
note_on channel=0 note=71 velocity=11 time=15
note_off channel=0 note=72 velocity=28 time=0
note_off channel=0 note=103 velocity=25 time=0
note_on channel=0 note=103 velocity=25 time=0
note_off channel=0 note=71 velocity=11 time=15
note_on channel=0 note=71 velocity=11 time=0
note_off channel=0 note=103 velocity=25 time=0
note_on channel=0 note=103 velocity=25 time=0
note_off channel=0 note=71 velocity=11 time=15
note_on channel=0 note=71 velocity=11 time=0
note_off channel=0 note=103 velocity=25 time=0
note_on channel=0 note=103 velocity=25 time=0
note_off channel=0 note=71 velocity=11 time=15
note_on channel=0 note=71 velocity=11 time=0
note_off channel=0 note=103 velocity=25 time=0
note_on channel=0 note=103 velocity=25 time=0
note_off channel=0 note=71 velocity=11 time=15
note_on channel=0 note=72 velocity=28 time=0
note_off channel=0 note=103 velocity=25 time=0
note_on channel=0 note=103 velocity=25 time=0
note_off channel=0 note=72 velocity=28 time=15
note_on channel=0 note=72 velocity=28 time=0
note_off channel=0 note=103 velocity=25 time=0
note_on channel=0 note=103 velocity=25 time=0
note_off channel=0 note=72 velocity=28 time=15
note_on channel=0 note=72 velocity=28 time=0
note_off channel=0 note=103 velocity=25 time=0
note_on channel=0 note=103 velocity=25 time=0
note_off channel=0 note=72 velocity=28 time=15
note_on channel=0 note=72 velocity=28 time=0
note_off channel=0 note=103 velocity=25 time=0
note_on channel=0 note=103 velocity=25 time=0
note_on channel=0 note=71 velocity=11 time=15
note_off channel=0 note=72 velocity=28 time=0
note_off channel=0 note=103 velocity=25 time=0
note_on channel=0 note=103 velocity=25 time=0
note_off channel=0 note=71 velocity=11 time=15
note_on channel=0 note=72 velocity=28 time=0
note_off channel=0 note=103 velocity=25 time=0
note_on channel=0 note=103 velocity=25 time=0
note_off channel=0 note=72 velocity=28 time=15
note_on channel=0 note=72 velocity=28 time=0
note_off channel=0 note=103 velocity=25 time=0
note_on channel=0 note=103 velocity=25 time=0
note_off channel=0 note=72 velocity=28 time=15
note_on channel=0 note=72 velocity=28 time=0
note_off channel=0 note=103 velocity=25 time=0
note_on channel=0 note=103 velocity=25 time=0
note_on channel=0 note=71 velocity=11 time=15
note_off channel=0 note=72 velocity=28 time=0
note_off channel=0 note=103 velocity=25 time=0
note_on channel=0 note=103 velocity=25 time=0
note_off channel=0 note=71 velocity=11 time=15
note_on channel=0 note=71 velocity=11 time=0
note_off channel=0 note=103 velocity=25 time=0
note_on channel=0 note=103 velocity=25 time=0
note_off channel=0 note=71 velocity=11 time=15
note_on channel=0 note=72 velocity=28 time=0
note_off channel=0 note=103 velocity=25 time=0
note_on channel=0 note=103 velocity=25 time=0
note_off channel=0 note=72 velocity=28 time=15
note_on channel=0 note=72 velocity=28 time=0
note_off channel=0 note=103 velocity=25 time=0
note_on channel=0 note=103 velocity=25 time=0
note_on channel=0 note=71 velocity=11 time=15
note_off channel=0 note=72 velocity=28 time=0
note_off channel=0 note=103 velocity=25 time=0
note_on channel=0 note=103 velocity=25 time=0
note_off channel=0 note=71 velocity=11 time=15
note_on channel=0 note=72 velocity=28 time=0
note_off channel=0 note=103 velocity=25 time=0
note_on channel=0 note=103 velocity=25 time=0
note_off channel=0 note=72 velocity=28 time=15
note_on channel=0 note=72 velocity=28 time=0
note_off channel=0 note=103 velocity=25 time=0
note_on channel=0 note=103 velocity=25 time=0
note_off channel=0 note=72 velocity=28 time=15
note_on channel=0 note=72 velocity=28 time=0
note_off channel=0 note=103 velocity=25 time=0
note_on channel=0 note=103 velocity=25 time=0
note_off channel=0 note=72 velocity=28 time=15
note_on channel=0 note=72 velocity=28 time=0
note_off channel=0 note=103 velocity=25 time=0
note_on channel=0 note=103 velocity=25 time=0
note_on channel=0 note=71 velocity=11 time=15
note_off channel=0 note=72 velocity=28 time=0
note_off channel=0 note=103 velocity=25 time=0
note_on channel=0 note=103 velocity=25 time=0
note_off channel=0 note=71 velocity=11 time=15
note_on channel=0 note=72 velocity=28 time=0
note_off channel=0 note=103 velocity=25 time=0
note_on channel=0 note=103 velocity=25 time=0
note_on channel=0 note=71 velocity=11 time=15
note_off channel=0 note=72 velocity=28 time=0
note_off channel=0 note=103 velocity=25 time=0
note_on channel=0 note=103 velocity=25 time=0
note_off channel=0 note=71 velocity=11 time=15
note_on channel=0 note=72 velocity=28 time=0
note_off channel=0 note=103 velocity=25 time=0
note_on channel=0 note=103 velocity=25 time=0
note_on channel=0 note=71 velocity=11 time=15
note_off channel=0 note=72 velocity=28 time=0
note_off channel=0 note=103 velocity=25 time=0
note_on channel=0 note=103 velocity=25 time=0
note_off channel=0 note=71 velocity=11 time=15
note_on channel=0 note=72 velocity=28 time=0
note_off channel=0 note=103 velocity=25 time=0
note_on channel=0 note=103 velocity=25 time=0
note_off channel=0 note=72 velocity=28 time=15
note_on channel=0 note=72 velocity=28 time=0
note_off channel=0 note=103 velocity=25 time=0
note_on channel=0 note=103 velocity=25 time=0
note_off channel=0 note=72 velocity=28 time=15
note_on channel=0 note=72 velocity=28 time=0
note_off channel=0 note=103 velocity=25 time=0
note_on channel=0 note=103 velocity=25 time=0
note_on channel=0 note=71 velocity=11 time=15
note_off channel=0 note=72 velocity=28 time=0
note_off channel=0 note=103 velocity=25 time=0
note_on channel=0 note=103 velocity=25 time=0
note_off channel=0 note=71 velocity=11 time=15
note_on channel=0 note=72 velocity=28 time=0
note_off channel=0 note=103 velocity=25 time=0
note_on channel=0 note=103 velocity=25 time=0
note_off channel=0 note=72 velocity=28 time=15
note_on channel=0 note=72 velocity=28 time=0
note_off channel=0 note=103 velocity=25 time=0
note_on channel=0 note=103 velocity=25 time=0
note_off channel=0 note=72 velocity=28 time=15
note_on channel=0 note=72 velocity=28 time=0
note_off channel=0 note=103 velocity=25 time=0
note_on channel=0 note=103 velocity=25 time=0
note_off channel=0 note=72 velocity=28 time=15
note_on channel=0 note=72 velocity=28 time=0
note_off channel=0 note=103 velocity=25 time=0
note_on channel=0 note=103 velocity=25 time=0
note_off channel=0 note=72 velocity=28 time=15
note_on channel=0 note=72 velocity=28 time=0
note_off channel=0 note=103 velocity=25 time=0
note_on channel=0 note=103 velocity=25 time=0
note_on channel=0 note=71 velocity=11 time=15
note_off channel=0 note=72 velocity=28 time=0
note_off channel=0 note=103 velocity=25 time=0
note_on channel=0 note=103 velocity=25 time=0
note_off channel=0 note=71 velocity=11 time=15
note_on channel=0 note=72 velocity=28 time=0
note_off channel=0 note=103 velocity=25 time=0
note_on channel=0 note=103 velocity=25 time=0
note_off channel=0 note=72 velocity=28 time=15
note_on channel=0 note=72 velocity=28 time=0
note_off channel=0 note=103 velocity=25 time=0
note_on channel=0 note=103 velocity=25 time=0
note_on channel=0 note=71 velocity=11 time=15
note_off channel=0 note=72 velocity=28 time=0
note_off channel=0 note=103 velocity=25 time=0
note_on channel=0 note=103 velocity=25 time=0
note_off channel=0 note=71 velocity=11 time=15
note_on channel=0 note=71 velocity=11 time=0
note_off channel=0 note=103 velocity=25 time=0
note_on channel=0 note=103 velocity=25 time=0
note_off channel=0 note=71 velocity=11 time=15
note_on channel=0 note=71 velocity=11 time=0
note_off channel=0 note=103 velocity=25 time=0
note_on channel=0 note=103 velocity=25 time=0
note_off channel=0 note=71 velocity=11 time=15
note_on channel=0 note=71 velocity=11 time=0
note_off channel=0 note=103 velocity=25 time=0
note_on channel=0 note=103 velocity=25 time=0
note_off channel=0 note=71 velocity=11 time=15
note_on channel=0 note=72 velocity=28 time=0
note_off channel=0 note=103 velocity=25 time=0
note_on channel=0 note=103 velocity=25 time=0
note_off channel=0 note=72 velocity=28 time=15
note_on channel=0 note=72 velocity=28 time=0
note_off channel=0 note=103 velocity=25 time=0
note_on channel=0 note=103 velocity=25 time=0
note_off channel=0 note=72 velocity=28 time=15
note_on channel=0 note=72 velocity=28 time=0
note_off channel=0 note=103 velocity=25 time=0
note_on channel=0 note=103 velocity=25 time=0
note_off channel=0 note=72 velocity=28 time=15
note_on channel=0 note=72 velocity=28 time=0
note_off channel=0 note=103 velocity=25 time=0
note_on channel=0 note=103 velocity=25 time=0
note_on channel=0 note=71 velocity=11 time=15
note_off channel=0 note=72 velocity=28 time=0
note_off channel=0 note=103 velocity=25 time=0
note_on channel=0 note=103 velocity=25 time=0
note_off channel=0 note=71 velocity=11 time=15
note_on channel=0 note=72 velocity=28 time=0
note_off channel=0 note=103 velocity=25 time=0
note_on channel=0 note=103 velocity=25 time=0
note_on channel=0 note=71 velocity=11 time=15
note_off channel=0 note=72 velocity=28 time=0
note_off channel=0 note=103 velocity=25 time=0
note_on channel=0 note=103 velocity=25 time=0
note_off channel=0 note=71 velocity=11 time=15
note_on channel=0 note=71 velocity=11 time=0
note_off channel=0 note=103 velocity=25 time=0
note_on channel=0 note=103 velocity=25 time=0
note_off channel=0 note=71 velocity=11 time=15
note_on channel=0 note=72 velocity=28 time=0
note_off channel=0 note=103 velocity=25 time=0
note_on channel=0 note=103 velocity=25 time=0
note_off channel=0 note=72 velocity=28 time=15
note_on channel=0 note=72 velocity=28 time=0
note_off channel=0 note=103 velocity=25 time=0
note_on channel=0 note=103 velocity=25 time=0
note_on channel=0 note=71 velocity=11 time=15
note_off channel=0 note=72 velocity=28 time=0
note_off channel=0 note=103 velocity=25 time=0
note_on channel=0 note=103 velocity=25 time=0
note_off channel=0 note=71 velocity=11 time=15
note_on channel=0 note=72 velocity=28 time=0
note_off channel=0 note=103 velocity=25 time=0
note_on channel=0 note=103 velocity=25 time=0
note_off channel=0 note=72 velocity=28 time=15
note_on channel=0 note=72 velocity=28 time=0
note_off channel=0 note=103 velocity=25 time=0
note_on channel=0 note=103 velocity=25 time=0
note_off channel=0 note=72 velocity=28 time=15
note_on channel=0 note=72 velocity=28 time=0
note_off channel=0 note=103 velocity=25 time=0
note_on channel=0 note=103 velocity=25 time=0
note_off channel=0 note=72 velocity=28 time=15
note_on channel=0 note=72 velocity=28 time=0
note_off channel=0 note=103 velocity=25 time=0
note_on channel=0 note=103 velocity=25 time=0
note_on channel=0 note=71 velocity=11 time=15
note_off channel=0 note=72 velocity=28 time=0
note_off channel=0 note=103 velocity=25 time=0
note_on channel=0 note=103 velocity=25 time=0
note_off channel=0 note=71 velocity=11 time=15
note_on channel=0 note=71 velocity=11 time=0
note_off channel=0 note=103 velocity=25 time=0
note_on channel=0 note=103 velocity=25 time=0
note_off channel=0 note=71 velocity=11 time=15
note_on channel=0 note=72 velocity=28 time=0
note_off channel=0 note=103 velocity=25 time=0
note_on channel=0 note=103 velocity=25 time=0
note_off channel=0 note=72 velocity=28 time=15
note_on channel=0 note=72 velocity=28 time=0
note_off channel=0 note=103 velocity=25 time=0
note_on channel=0 note=103 velocity=25 time=0
note_off channel=0 note=72 velocity=28 time=15
note_on channel=0 note=72 velocity=28 time=0
note_off channel=0 note=103 velocity=25 time=0
note_on channel=0 note=103 velocity=25 time=0
note_off channel=0 note=72 velocity=28 time=15
note_on channel=0 note=72 velocity=28 time=0
note_off channel=0 note=103 velocity=25 time=0
note_on channel=0 note=103 velocity=25 time=0
note_off channel=0 note=72 velocity=28 time=15
note_on channel=0 note=72 velocity=28 time=0
note_off channel=0 note=103 velocity=25 time=0
note_on channel=0 note=103 velocity=25 time=0
note_off channel=0 note=72 velocity=28 time=15
note_on channel=0 note=72 velocity=28 time=0
note_off channel=0 note=103 velocity=25 time=0
note_on channel=0 note=103 velocity=25 time=0
note_on channel=0 note=71 velocity=11 time=15
note_off channel=0 note=72 velocity=28 time=0
note_off channel=0 note=103 velocity=25 time=0
note_on channel=0 note=103 velocity=25 time=0
note_off channel=0 note=71 velocity=11 time=15
note_on channel=0 note=71 velocity=11 time=0
note_off channel=0 note=103 velocity=25 time=0
note_on channel=0 note=103 velocity=25 time=0
note_off channel=0 note=71 velocity=11 time=15
note_on channel=0 note=72 velocity=28 time=0
note_off channel=0 note=103 velocity=25 time=0
note_on channel=0 note=103 velocity=25 time=0
note_off channel=0 note=72 velocity=28 time=15
note_on channel=0 note=72 velocity=28 time=0
note_off channel=0 note=103 velocity=25 time=0
note_on channel=0 note=103 velocity=25 time=0
note_off channel=0 note=72 velocity=28 time=15
note_on channel=0 note=72 velocity=28 time=0
note_off channel=0 note=103 velocity=25 time=0
note_on channel=0 note=103 velocity=25 time=0
note_off channel=0 note=72 velocity=28 time=15
note_on channel=0 note=72 velocity=28 time=0
note_off channel=0 note=103 velocity=25 time=0
note_on channel=0 note=103 velocity=25 time=0
note_off channel=0 note=72 velocity=28 time=15
note_on channel=0 note=72 velocity=28 time=0
note_off channel=0 note=103 velocity=25 time=0
note_on channel=0 note=103 velocity=25 time=0
note_off channel=0 note=72 velocity=28 time=15
note_on channel=0 note=72 velocity=28 time=0
note_off channel=0 note=103 velocity=25 time=0
note_on channel=0 note=103 velocity=25 time=0
note_off channel=0 note=72 velocity=28 time=15
note_on channel=0 note=72 velocity=28 time=0
note_off channel=0 note=103 velocity=25 time=0
note_on channel=0 note=103 velocity=25 time=0
note_off channel=0 note=72 velocity=28 time=15
note_on channel=0 note=72 velocity=28 time=0
note_off channel=0 note=103 velocity=25 time=0
note_on channel=0 note=103 velocity=25 time=0
note_on channel=0 note=71 velocity=11 time=15
note_off channel=0 note=72 velocity=28 time=0
note_off channel=0 note=103 velocity=25 time=0
note_on channel=0 note=103 velocity=25 time=0
note_off channel=0 note=71 velocity=11 time=15
note_on channel=0 note=72 velocity=28 time=0
note_off channel=0 note=103 velocity=25 time=0
note_on channel=0 note=103 velocity=25 time=0
note_off channel=0 note=72 velocity=28 time=15
note_on channel=0 note=72 velocity=28 time=0
note_off channel=0 note=103 velocity=25 time=0
note_on channel=0 note=103 velocity=25 time=0
note_off channel=0 note=72 velocity=28 time=15
note_on channel=0 note=72 velocity=28 time=0
note_off channel=0 note=103 velocity=25 time=0
note_on channel=0 note=103 velocity=25 time=0
note_on channel=0 note=71 velocity=11 time=15
note_off channel=0 note=72 velocity=28 time=0
note_off channel=0 note=103 velocity=25 time=0
note_on channel=0 note=103 velocity=25 time=0
note_off channel=0 note=71 velocity=11 time=15
note_on channel=0 note=72 velocity=28 time=0
note_off channel=0 note=103 velocity=25 time=0
note_on channel=0 note=103 velocity=25 time=0
note_off channel=0 note=72 velocity=28 time=15
note_on channel=0 note=72 velocity=28 time=0
note_off channel=0 note=103 velocity=25 time=0
note_on channel=0 note=103 velocity=25 time=0
note_off channel=0 note=72 velocity=28 time=15
note_on channel=0 note=72 velocity=28 time=0
note_off channel=0 note=103 velocity=25 time=0
note_on channel=0 note=103 velocity=25 time=0
note_off channel=0 note=72 velocity=28 time=15
note_on channel=0 note=72 velocity=28 time=0
note_off channel=0 note=103 velocity=25 time=0
note_on channel=0 note=103 velocity=25 time=0
note_on channel=0 note=71 velocity=11 time=15
note_off channel=0 note=72 velocity=28 time=0
note_off channel=0 note=103 velocity=25 time=0
note_on channel=0 note=103 velocity=25 time=0
note_off channel=0 note=71 velocity=11 time=15
note_on channel=0 note=72 velocity=28 time=0
note_off channel=0 note=103 velocity=25 time=0
note_on channel=0 note=103 velocity=25 time=0
note_on channel=0 note=71 velocity=11 time=15
note_off channel=0 note=72 velocity=28 time=0
note_off channel=0 note=103 velocity=25 time=0
note_on channel=0 note=103 velocity=25 time=0
note_off channel=0 note=71 velocity=11 time=15
note_on channel=0 note=72 velocity=28 time=0
note_off channel=0 note=103 velocity=25 time=0
note_on channel=0 note=103 velocity=25 time=0
note_off channel=0 note=72 velocity=28 time=15
note_on channel=0 note=72 velocity=28 time=0
note_off channel=0 note=103 velocity=25 time=0
note_on channel=0 note=103 velocity=25 time=0
note_off channel=0 note=72 velocity=28 time=15
note_on channel=0 note=72 velocity=28 time=0
note_off channel=0 note=103 velocity=25 time=0
note_on channel=0 note=103 velocity=25 time=0
note_on channel=0 note=71 velocity=11 time=15
note_off channel=0 note=72 velocity=28 time=0
note_off channel=0 note=103 velocity=25 time=0
note_on channel=0 note=103 velocity=25 time=0
note_off channel=0 note=71 velocity=11 time=15
note_on channel=0 note=72 velocity=28 time=0
note_off channel=0 note=103 velocity=25 time=0
note_on channel=0 note=103 velocity=25 time=0
note_off channel=0 note=72 velocity=28 time=15
note_on channel=0 note=72 velocity=28 time=0
note_off channel=0 note=103 velocity=25 time=0
note_on channel=0 note=103 velocity=25 time=0
note_off channel=0 note=72 velocity=28 time=15
note_on channel=0 note=72 velocity=28 time=0
note_off channel=0 note=103 velocity=25 time=0
note_on channel=0 note=103 velocity=25 time=0
note_off channel=0 note=72 velocity=28 time=15
note_on channel=0 note=72 velocity=28 time=0
note_off channel=0 note=103 velocity=25 time=0
note_on channel=0 note=103 velocity=25 time=0
note_on channel=0 note=71 velocity=11 time=15
note_off channel=0 note=72 velocity=28 time=0
note_off channel=0 note=103 velocity=25 time=0
note_on channel=0 note=103 velocity=25 time=0
note_off channel=0 note=71 velocity=11 time=15
note_on channel=0 note=71 velocity=11 time=0
note_off channel=0 note=103 velocity=25 time=0
note_on channel=0 note=103 velocity=25 time=0
note_off channel=0 note=71 velocity=11 time=15
note_on channel=0 note=72 velocity=28 time=0
note_off channel=0 note=103 velocity=25 time=0
note_on channel=0 note=103 velocity=25 time=0
note_off channel=0 note=72 velocity=28 time=15
note_on channel=0 note=72 velocity=28 time=0
note_off channel=0 note=103 velocity=25 time=0
note_on channel=0 note=103 velocity=25 time=0
note_off channel=0 note=72 velocity=28 time=15
note_on channel=0 note=72 velocity=28 time=0
note_off channel=0 note=103 velocity=25 time=0
note_on channel=0 note=103 velocity=25 time=0
note_off channel=0 note=72 velocity=28 time=15
note_on channel=0 note=72 velocity=28 time=0
note_off channel=0 note=103 velocity=25 time=0
note_on channel=0 note=103 velocity=25 time=0
note_on channel=0 note=71 velocity=11 time=15
note_off channel=0 note=72 velocity=28 time=0
note_off channel=0 note=103 velocity=25 time=0
note_on channel=0 note=103 velocity=25 time=0
note_off channel=0 note=71 velocity=11 time=15
note_on channel=0 note=71 velocity=11 time=0
note_off channel=0 note=103 velocity=25 time=0
note_on channel=0 note=103 velocity=25 time=0
note_off channel=0 note=71 velocity=11 time=15
note_on channel=0 note=71 velocity=11 time=0
note_off channel=0 note=103 velocity=25 time=0
note_on channel=0 note=103 velocity=25 time=0
note_off channel=0 note=71 velocity=11 time=15
note_on channel=0 note=71 velocity=11 time=0
note_off channel=0 note=103 velocity=25 time=0
note_on channel=0 note=103 velocity=25 time=0
note_off channel=0 note=71 velocity=11 time=15
note_on channel=0 note=72 velocity=28 time=0
note_off channel=0 note=103 velocity=25 time=0
note_on channel=0 note=103 velocity=25 time=0
note_on channel=0 note=71 velocity=11 time=15
note_off channel=0 note=72 velocity=28 time=0
note_off channel=0 note=103 velocity=25 time=0
note_on channel=0 note=103 velocity=25 time=0
note_off channel=0 note=71 velocity=11 time=15
note_on channel=0 note=72 velocity=28 time=0
note_off channel=0 note=103 velocity=25 time=0
note_on channel=0 note=103 velocity=25 time=0
note_on channel=0 note=71 velocity=11 time=15
note_off channel=0 note=72 velocity=28 time=0
note_off channel=0 note=103 velocity=25 time=0
note_on channel=0 note=103 velocity=25 time=0
note_off channel=0 note=71 velocity=11 time=15
note_on channel=0 note=72 velocity=28 time=0
note_off channel=0 note=103 velocity=25 time=0
note_on channel=0 note=103 velocity=25 time=0
note_off channel=0 note=72 velocity=28 time=15
note_on channel=0 note=72 velocity=28 time=0
note_off channel=0 note=103 velocity=25 time=0
note_on channel=0 note=103 velocity=25 time=0
note_on channel=0 note=71 velocity=11 time=15
note_off channel=0 note=72 velocity=28 time=0
note_off channel=0 note=103 velocity=25 time=0
note_on channel=0 note=103 velocity=25 time=0
note_off channel=0 note=71 velocity=11 time=15
note_on channel=0 note=71 velocity=11 time=0
note_off channel=0 note=103 velocity=25 time=0
note_on channel=0 note=103 velocity=25 time=0
note_off channel=0 note=71 velocity=11 time=15
note_on channel=0 note=72 velocity=28 time=0
note_off channel=0 note=103 velocity=25 time=0
note_on channel=0 note=103 velocity=25 time=0
note_off channel=0 note=72 velocity=28 time=15
note_on channel=0 note=72 velocity=28 time=0
note_off channel=0 note=103 velocity=25 time=0
note_on channel=0 note=103 velocity=25 time=0
note_on channel=0 note=71 velocity=11 time=15
note_off channel=0 note=72 velocity=28 time=0
note_off channel=0 note=103 velocity=25 time=0
note_on channel=0 note=103 velocity=25 time=0
note_off channel=0 note=71 velocity=11 time=15
note_on channel=0 note=72 velocity=28 time=0
note_off channel=0 note=103 velocity=25 time=0
note_on channel=0 note=103 velocity=25 time=0
note_off channel=0 note=72 velocity=28 time=15
note_on channel=0 note=72 velocity=28 time=0
note_off channel=0 note=103 velocity=25 time=0
note_on channel=0 note=103 velocity=25 time=0
note_off channel=0 note=72 velocity=28 time=15
note_on channel=0 note=72 velocity=28 time=0
note_off channel=0 note=103 velocity=25 time=0
note_on channel=0 note=103 velocity=25 time=0
note_off channel=0 note=72 velocity=28 time=15
note_on channel=0 note=72 velocity=28 time=0
note_off channel=0 note=103 velocity=25 time=0
note_on channel=0 note=103 velocity=25 time=0
note_off channel=0 note=72 velocity=28 time=15
note_on channel=0 note=72 velocity=28 time=0
note_off channel=0 note=103 velocity=25 time=0
note_on channel=0 note=103 velocity=25 time=0
note_on channel=0 note=71 velocity=11 time=15
note_off channel=0 note=72 velocity=28 time=0
note_off channel=0 note=103 velocity=25 time=0
note_on channel=0 note=103 velocity=25 time=0
note_off channel=0 note=71 velocity=11 time=15
note_on channel=0 note=72 velocity=28 time=0
note_off channel=0 note=103 velocity=25 time=0
note_on channel=0 note=103 velocity=25 time=0
note_on channel=0 note=71 velocity=11 time=15
note_off channel=0 note=72 velocity=28 time=0
note_off channel=0 note=103 velocity=25 time=0
note_on channel=0 note=103 velocity=25 time=0
note_off channel=0 note=71 velocity=11 time=15
note_on channel=0 note=72 velocity=28 time=0
note_off channel=0 note=103 velocity=25 time=0
note_on channel=0 note=103 velocity=25 time=0
note_off channel=0 note=72 velocity=28 time=15
note_on channel=0 note=72 velocity=28 time=0
note_off channel=0 note=103 velocity=25 time=0
note_on channel=0 note=103 velocity=25 time=0
note_off channel=0 note=72 velocity=28 time=15
note_on channel=0 note=72 velocity=28 time=0
note_off channel=0 note=103 velocity=25 time=0
note_on channel=0 note=103 velocity=25 time=0
note_off channel=0 note=72 velocity=28 time=15
note_on channel=0 note=72 velocity=28 time=0
note_off channel=0 note=103 velocity=25 time=0
note_on channel=0 note=103 velocity=25 time=0
note_off channel=0 note=72 velocity=28 time=15
note_on channel=0 note=72 velocity=28 time=0
note_off channel=0 note=103 velocity=25 time=0
note_on channel=0 note=103 velocity=25 time=0
note_on channel=0 note=71 velocity=11 time=15
note_off channel=0 note=72 velocity=28 time=0
note_off channel=0 note=103 velocity=25 time=0
note_on channel=0 note=103 velocity=25 time=0
note_off channel=0 note=71 velocity=11 time=15
note_on channel=0 note=72 velocity=28 time=0
note_off channel=0 note=103 velocity=25 time=0
note_on channel=0 note=103 velocity=25 time=0
note_off channel=0 note=72 velocity=28 time=15
note_on channel=0 note=72 velocity=28 time=0
note_off channel=0 note=103 velocity=25 time=0
note_on channel=0 note=103 velocity=25 time=0
note_off channel=0 note=72 velocity=28 time=15
note_on channel=0 note=72 velocity=28 time=0
note_off channel=0 note=103 velocity=25 time=0
note_on channel=0 note=103 velocity=25 time=0
note_off channel=0 note=72 velocity=28 time=15
note_on channel=0 note=72 velocity=28 time=0
note_off channel=0 note=103 velocity=25 time=0
note_on channel=0 note=103 velocity=25 time=0
note_off channel=0 note=72 velocity=28 time=15
note_on channel=0 note=72 velocity=28 time=0
note_off channel=0 note=103 velocity=25 time=0
note_on channel=0 note=103 velocity=25 time=0
note_on channel=0 note=71 velocity=11 time=15
note_off channel=0 note=72 velocity=28 time=0
note_off channel=0 note=103 velocity=25 time=0
note_on channel=0 note=103 velocity=25 time=0
note_off channel=0 note=71 velocity=11 time=15
note_on channel=0 note=71 velocity=11 time=0
note_off channel=0 note=103 velocity=25 time=0
note_on channel=0 note=103 velocity=25 time=0
note_off channel=0 note=71 velocity=11 time=15
note_on channel=0 note=71 velocity=11 time=0
note_off channel=0 note=103 velocity=25 time=0
note_on channel=0 note=103 velocity=25 time=0
note_off channel=0 note=71 velocity=11 time=15
note_on channel=0 note=72 velocity=28 time=0
note_off channel=0 note=103 velocity=25 time=0
note_on channel=0 note=103 velocity=25 time=0
note_off channel=0 note=72 velocity=28 time=15
note_on channel=0 note=72 velocity=28 time=0
note_off channel=0 note=103 velocity=25 time=0
note_on channel=0 note=103 velocity=25 time=0
note_off channel=0 note=72 velocity=28 time=15
note_on channel=0 note=72 velocity=28 time=0
note_off channel=0 note=103 velocity=25 time=0
note_on channel=0 note=103 velocity=25 time=0
note_off channel=0 note=72 velocity=28 time=15
note_on channel=0 note=72 velocity=28 time=0
note_off channel=0 note=103 velocity=25 time=0
note_on channel=0 note=103 velocity=25 time=0
note_off channel=0 note=72 velocity=28 time=15
note_on channel=0 note=72 velocity=28 time=0
note_off channel=0 note=103 velocity=25 time=0
note_on channel=0 note=103 velocity=25 time=0
note_on channel=0 note=71 velocity=11 time=15
note_off channel=0 note=72 velocity=28 time=0
note_off channel=0 note=103 velocity=25 time=0
note_on channel=0 note=103 velocity=25 time=0
note_off channel=0 note=71 velocity=11 time=15
note_on channel=0 note=71 velocity=11 time=0
note_off channel=0 note=103 velocity=25 time=0
note_on channel=0 note=103 velocity=25 time=0
note_off channel=0 note=71 velocity=11 time=15
note_on channel=0 note=72 velocity=28 time=0
note_off channel=0 note=103 velocity=25 time=0
note_on channel=0 note=103 velocity=25 time=0
note_on channel=0 note=71 velocity=11 time=15
note_off channel=0 note=72 velocity=28 time=0
note_off channel=0 note=103 velocity=25 time=0
note_on channel=0 note=103 velocity=25 time=0
note_off channel=0 note=71 velocity=11 time=15
note_on channel=0 note=72 velocity=28 time=0
note_off channel=0 note=103 velocity=25 time=0
note_on channel=0 note=103 velocity=25 time=0
note_off channel=0 note=72 velocity=28 time=15
note_on channel=0 note=72 velocity=28 time=0
note_off channel=0 note=103 velocity=25 time=0
note_on channel=0 note=103 velocity=25 time=0
note_off channel=0 note=72 velocity=28 time=15
note_on channel=0 note=72 velocity=28 time=0
note_off channel=0 note=103 velocity=25 time=0
note_on channel=0 note=103 velocity=25 time=0
note_on channel=0 note=71 velocity=11 time=15
note_off channel=0 note=72 velocity=28 time=0
note_off channel=0 note=103 velocity=25 time=0
note_on channel=0 note=103 velocity=25 time=0
note_off channel=0 note=71 velocity=11 time=15
note_on channel=0 note=71 velocity=11 time=0
note_off channel=0 note=103 velocity=25 time=0
note_on channel=0 note=103 velocity=25 time=0
note_off channel=0 note=71 velocity=11 time=15
note_on channel=0 note=72 velocity=28 time=0
note_off channel=0 note=103 velocity=25 time=0
note_on channel=0 note=103 velocity=25 time=0
note_off channel=0 note=72 velocity=28 time=15
note_on channel=0 note=72 velocity=28 time=0
note_off channel=0 note=103 velocity=25 time=0
note_on channel=0 note=103 velocity=25 time=0
note_on channel=0 note=71 velocity=11 time=15
note_off channel=0 note=72 velocity=28 time=0
note_off channel=0 note=103 velocity=25 time=0
note_on channel=0 note=103 velocity=25 time=0
note_off channel=0 note=71 velocity=11 time=15
note_on channel=0 note=72 velocity=28 time=0
note_off channel=0 note=103 velocity=25 time=0
note_on channel=0 note=103 velocity=25 time=0
note_off channel=0 note=72 velocity=28 time=15
note_on channel=0 note=72 velocity=28 time=0
note_off channel=0 note=103 velocity=25 time=0
note_on channel=0 note=103 velocity=25 time=0
note_off channel=0 note=72 velocity=28 time=15
note_on channel=0 note=72 velocity=28 time=0
note_off channel=0 note=103 velocity=25 time=0
note_on channel=0 note=103 velocity=25 time=0
note_on channel=0 note=71 velocity=11 time=15
note_off channel=0 note=72 velocity=28 time=0
note_off channel=0 note=103 velocity=25 time=0
note_on channel=0 note=103 velocity=25 time=0
note_off channel=0 note=71 velocity=11 time=15
note_on channel=0 note=72 velocity=28 time=0
note_off channel=0 note=103 velocity=25 time=0
note_on channel=0 note=103 velocity=25 time=0
note_on channel=0 note=71 velocity=11 time=15
note_off channel=0 note=72 velocity=28 time=0
note_off channel=0 note=103 velocity=25 time=0
note_on channel=0 note=103 velocity=25 time=0
note_off channel=0 note=71 velocity=11 time=15
note_on channel=0 note=72 velocity=28 time=0
note_off channel=0 note=103 velocity=25 time=0
note_on channel=0 note=103 velocity=25 time=0
note_on channel=0 note=71 velocity=11 time=15
note_off channel=0 note=72 velocity=28 time=0
note_off channel=0 note=103 velocity=25 time=0
note_on channel=0 note=103 velocity=25 time=0
note_off channel=0 note=71 velocity=11 time=15
note_on channel=0 note=72 velocity=28 time=0
note_off channel=0 note=103 velocity=25 time=0
note_on channel=0 note=103 velocity=25 time=0
note_on channel=0 note=71 velocity=11 time=15
note_off channel=0 note=72 velocity=28 time=0
note_off channel=0 note=103 velocity=25 time=0
note_on channel=0 note=103 velocity=25 time=0
note_off channel=0 note=71 velocity=11 time=15
note_on channel=0 note=72 velocity=28 time=0
note_off channel=0 note=103 velocity=25 time=0
note_on channel=0 note=103 velocity=25 time=0
note_off channel=0 note=72 velocity=28 time=15
note_on channel=0 note=72 velocity=28 time=0
note_off channel=0 note=103 velocity=25 time=0
note_on channel=0 note=103 velocity=25 time=0
note_on channel=0 note=71 velocity=11 time=15
note_off channel=0 note=72 velocity=28 time=0
note_off channel=0 note=103 velocity=25 time=0
note_on channel=0 note=103 velocity=25 time=0
note_off channel=0 note=71 velocity=11 time=15
note_on channel=0 note=71 velocity=11 time=0
note_off channel=0 note=103 velocity=25 time=0
note_on channel=0 note=103 velocity=25 time=0
note_off channel=0 note=71 velocity=11 time=15
note_on channel=0 note=72 velocity=28 time=0
note_off channel=0 note=103 velocity=25 time=0
note_on channel=0 note=103 velocity=25 time=0
note_off channel=0 note=72 velocity=28 time=15
note_on channel=0 note=72 velocity=28 time=0
note_off channel=0 note=103 velocity=25 time=0
note_on channel=0 note=103 velocity=25 time=0
note_off channel=0 note=72 velocity=28 time=15
note_on channel=0 note=72 velocity=28 time=0
note_off channel=0 note=103 velocity=25 time=0
note_on channel=0 note=103 velocity=25 time=0
note_on channel=0 note=71 velocity=11 time=15
note_off channel=0 note=72 velocity=28 time=0
note_off channel=0 note=103 velocity=25 time=0
note_on channel=0 note=103 velocity=25 time=0
note_off channel=0 note=71 velocity=11 time=15
note_on channel=0 note=71 velocity=11 time=0
note_off channel=0 note=103 velocity=25 time=0
note_on channel=0 note=103 velocity=25 time=0
note_off channel=0 note=71 velocity=11 time=15
note_on channel=0 note=72 velocity=28 time=0
note_off channel=0 note=103 velocity=25 time=0
note_on channel=0 note=103 velocity=25 time=0
note_on channel=0 note=71 velocity=11 time=15
note_off channel=0 note=72 velocity=28 time=0
note_off channel=0 note=103 velocity=25 time=0
note_on channel=0 note=103 velocity=25 time=0
note_off channel=0 note=71 velocity=11 time=15
note_on channel=0 note=71 velocity=11 time=0
note_off channel=0 note=103 velocity=25 time=0
note_on channel=0 note=103 velocity=25 time=0
note_off channel=0 note=71 velocity=11 time=15
note_on channel=0 note=71 velocity=11 time=0
note_off channel=0 note=103 velocity=25 time=0
note_on channel=0 note=103 velocity=25 time=0
note_off channel=0 note=71 velocity=11 time=15
note_on channel=0 note=71 velocity=11 time=0
note_off channel=0 note=103 velocity=25 time=0
note_on channel=0 note=103 velocity=25 time=0
note_off channel=0 note=71 velocity=11 time=15
note_on channel=0 note=71 velocity=11 time=0
note_off channel=0 note=103 velocity=25 time=0
note_on channel=0 note=103 velocity=25 time=0
note_off channel=0 note=71 velocity=11 time=15
note_on channel=0 note=72 velocity=28 time=0
note_off channel=0 note=103 velocity=25 time=0
note_on channel=0 note=103 velocity=25 time=0
note_off channel=0 note=72 velocity=28 time=15
note_on channel=0 note=75 velocity=31 time=0
note_off channel=0 note=103 velocity=25 time=0
note_on channel=0 note=103 velocity=25 time=0
note_on channel=0 note=72 velocity=28 time=15
note_off channel=0 note=75 velocity=31 time=0
note_off channel=0 note=103 velocity=25 time=0
note_on channel=0 note=103 velocity=25 time=0
note_off channel=0 note=72 velocity=28 time=15
note_on channel=0 note=72 velocity=28 time=0
note_off channel=0 note=103 velocity=25 time=0
note_on channel=0 note=103 velocity=25 time=0
note_off channel=0 note=72 velocity=28 time=15
note_on channel=0 note=72 velocity=28 time=0
note_off channel=0 note=103 velocity=25 time=0
note_on channel=0 note=103 velocity=25 time=0
note_off channel=0 note=72 velocity=28 time=15
note_on channel=0 note=72 velocity=28 time=0
note_off channel=0 note=103 velocity=25 time=0
note_on channel=0 note=103 velocity=25 time=0
note_off channel=0 note=72 velocity=28 time=15
note_on channel=0 note=72 velocity=28 time=0
note_off channel=0 note=103 velocity=25 time=0
note_on channel=0 note=103 velocity=25 time=0
note_off channel=0 note=72 velocity=28 time=15
note_on channel=0 note=72 velocity=28 time=0
note_off channel=0 note=103 velocity=25 time=0
note_on channel=0 note=103 velocity=25 time=0
note_off channel=0 note=72 velocity=28 time=15
note_on channel=0 note=72 velocity=28 time=0
note_off channel=0 note=103 velocity=25 time=0
note_on channel=0 note=103 velocity=25 time=0
note_on channel=0 note=71 velocity=11 time=15
note_off channel=0 note=72 velocity=28 time=0
note_off channel=0 note=103 velocity=25 time=0
note_on channel=0 note=103 velocity=25 time=0
note_off channel=0 note=71 velocity=11 time=15
note_on channel=0 note=72 velocity=28 time=0
note_off channel=0 note=103 velocity=25 time=0
note_on channel=0 note=103 velocity=25 time=0
note_off channel=0 note=72 velocity=28 time=15
note_on channel=0 note=72 velocity=28 time=0
note_off channel=0 note=103 velocity=25 time=0
note_on channel=0 note=103 velocity=25 time=0
note_on channel=0 note=71 velocity=11 time=15
note_off channel=0 note=72 velocity=28 time=0
note_off channel=0 note=103 velocity=25 time=0
note_on channel=0 note=103 velocity=25 time=0
note_off channel=0 note=71 velocity=11 time=15
note_on channel=0 note=72 velocity=28 time=0
note_off channel=0 note=103 velocity=25 time=0
note_on channel=0 note=103 velocity=25 time=0
note_on channel=0 note=71 velocity=11 time=15
note_off channel=0 note=72 velocity=28 time=0
note_off channel=0 note=103 velocity=25 time=0
note_on channel=0 note=103 velocity=25 time=0
note_off channel=0 note=71 velocity=11 time=15
note_on channel=0 note=72 velocity=28 time=0
note_off channel=0 note=103 velocity=25 time=0
note_on channel=0 note=103 velocity=25 time=0
note_off channel=0 note=72 velocity=28 time=15
note_on channel=0 note=72 velocity=28 time=0
note_off channel=0 note=103 velocity=25 time=0
note_on channel=0 note=103 velocity=25 time=0
note_off channel=0 note=72 velocity=28 time=15
note_on channel=0 note=72 velocity=28 time=0
note_off channel=0 note=103 velocity=25 time=0
note_on channel=0 note=103 velocity=25 time=0
note_off channel=0 note=72 velocity=28 time=15
note_on channel=0 note=72 velocity=28 time=0
note_off channel=0 note=103 velocity=25 time=0
note_on channel=0 note=103 velocity=25 time=0
note_off channel=0 note=72 velocity=28 time=15
note_on channel=0 note=72 velocity=28 time=0
note_off channel=0 note=103 velocity=25 time=0
note_on channel=0 note=103 velocity=25 time=0
note_off channel=0 note=72 velocity=28 time=15
note_on channel=0 note=72 velocity=28 time=0
note_off channel=0 note=103 velocity=25 time=0
note_on channel=0 note=103 velocity=25 time=0
note_on channel=0 note=71 velocity=11 time=15
note_off channel=0 note=72 velocity=28 time=0
note_off channel=0 note=103 velocity=25 time=0
note_on channel=0 note=103 velocity=25 time=0
note_off channel=0 note=71 velocity=11 time=15
note_on channel=0 note=72 velocity=28 time=0
note_off channel=0 note=103 velocity=25 time=0
note_on channel=0 note=103 velocity=25 time=0
note_on channel=0 note=71 velocity=11 time=15
note_off channel=0 note=72 velocity=28 time=0
note_off channel=0 note=103 velocity=25 time=0
note_on channel=0 note=103 velocity=25 time=0
note_off channel=0 note=71 velocity=11 time=15
note_on channel=0 note=72 velocity=28 time=0
note_off channel=0 note=103 velocity=25 time=0
note_on channel=0 note=103 velocity=25 time=0
note_off channel=0 note=72 velocity=28 time=15
note_on channel=0 note=72 velocity=28 time=0
note_off channel=0 note=103 velocity=25 time=0
note_on channel=0 note=103 velocity=25 time=0
note_off channel=0 note=72 velocity=28 time=15
note_on channel=0 note=72 velocity=28 time=0
note_off channel=0 note=103 velocity=25 time=0
note_on channel=0 note=103 velocity=25 time=0
note_off channel=0 note=72 velocity=28 time=15
note_on channel=0 note=72 velocity=28 time=0
note_off channel=0 note=103 velocity=25 time=0
note_on channel=0 note=103 velocity=25 time=0
note_off channel=0 note=72 velocity=28 time=15
note_on channel=0 note=72 velocity=28 time=0
note_off channel=0 note=103 velocity=25 time=0
note_on channel=0 note=103 velocity=25 time=0
note_on channel=0 note=71 velocity=11 time=15
note_off channel=0 note=72 velocity=28 time=0
note_off channel=0 note=103 velocity=25 time=0
note_on channel=0 note=103 velocity=25 time=0
note_off channel=0 note=71 velocity=11 time=15
note_on channel=0 note=72 velocity=28 time=0
note_off channel=0 note=103 velocity=25 time=0
note_on channel=0 note=103 velocity=25 time=0
note_off channel=0 note=72 velocity=28 time=15
note_on channel=0 note=72 velocity=28 time=0
note_off channel=0 note=103 velocity=25 time=0
note_on channel=0 note=103 velocity=25 time=0
note_off channel=0 note=72 velocity=28 time=15
note_on channel=0 note=72 velocity=28 time=0
note_off channel=0 note=103 velocity=25 time=0
note_on channel=0 note=103 velocity=25 time=0
note_off channel=0 note=72 velocity=28 time=15
note_on channel=0 note=72 velocity=28 time=0
note_off channel=0 note=103 velocity=25 time=0
note_on channel=0 note=103 velocity=25 time=0
note_off channel=0 note=72 velocity=28 time=15
note_on channel=0 note=72 velocity=28 time=0
note_off channel=0 note=103 velocity=25 time=0
note_on channel=0 note=103 velocity=25 time=0
note_off channel=0 note=72 velocity=28 time=15
note_on channel=0 note=72 velocity=28 time=0
note_off channel=0 note=103 velocity=25 time=0
note_on channel=0 note=103 velocity=25 time=0
note_on channel=0 note=71 velocity=11 time=15
note_off channel=0 note=72 velocity=28 time=0
note_off channel=0 note=103 velocity=25 time=0
note_on channel=0 note=103 velocity=25 time=0
note_off channel=0 note=71 velocity=11 time=15
note_on channel=0 note=72 velocity=28 time=0
note_off channel=0 note=103 velocity=25 time=0
note_on channel=0 note=103 velocity=25 time=0
note_off channel=0 note=72 velocity=28 time=15
note_on channel=0 note=72 velocity=28 time=0
note_off channel=0 note=103 velocity=25 time=0
note_on channel=0 note=103 velocity=25 time=0
note_off channel=0 note=72 velocity=28 time=15
note_on channel=0 note=72 velocity=28 time=0
note_off channel=0 note=103 velocity=25 time=0
note_on channel=0 note=103 velocity=25 time=0
note_off channel=0 note=72 velocity=28 time=15
note_on channel=0 note=72 velocity=28 time=0
note_off channel=0 note=103 velocity=25 time=0
note_on channel=0 note=103 velocity=25 time=0
note_off channel=0 note=72 velocity=28 time=15
note_on channel=0 note=72 velocity=28 time=0
note_off channel=0 note=103 velocity=25 time=0
note_on channel=0 note=103 velocity=25 time=0
note_on channel=0 note=71 velocity=11 time=15
note_off channel=0 note=72 velocity=28 time=0
note_off channel=0 note=103 velocity=25 time=0
note_on channel=0 note=103 velocity=25 time=0
note_off channel=0 note=71 velocity=11 time=15
note_on channel=0 note=71 velocity=11 time=0
note_off channel=0 note=103 velocity=25 time=0
note_on channel=0 note=103 velocity=25 time=0
note_off channel=0 note=71 velocity=11 time=15
note_on channel=0 note=72 velocity=28 time=0
note_off channel=0 note=103 velocity=25 time=0
note_on channel=0 note=103 velocity=25 time=0
note_on channel=0 note=71 velocity=11 time=15
note_off channel=0 note=72 velocity=28 time=0
note_off channel=0 note=103 velocity=25 time=0
note_on channel=0 note=103 velocity=25 time=0
note_off channel=0 note=71 velocity=11 time=15
note_on channel=0 note=72 velocity=28 time=0
note_off channel=0 note=103 velocity=25 time=0
note_on channel=0 note=103 velocity=25 time=0
note_on channel=0 note=71 velocity=11 time=15
note_off channel=0 note=72 velocity=28 time=0
note_off channel=0 note=103 velocity=25 time=0
note_on channel=0 note=103 velocity=25 time=0
note_off channel=0 note=71 velocity=11 time=15
note_on channel=0 note=71 velocity=11 time=0
note_off channel=0 note=103 velocity=25 time=0
note_on channel=0 note=103 velocity=25 time=0
note_off channel=0 note=71 velocity=11 time=15
note_on channel=0 note=71 velocity=11 time=0
note_off channel=0 note=103 velocity=25 time=0
note_on channel=0 note=103 velocity=25 time=0
note_off channel=0 note=71 velocity=11 time=15
note_on channel=0 note=72 velocity=28 time=0
note_off channel=0 note=103 velocity=25 time=0
note_on channel=0 note=103 velocity=25 time=0
note_off channel=0 note=72 velocity=28 time=15
note_on channel=0 note=72 velocity=28 time=0
note_off channel=0 note=103 velocity=25 time=0
note_on channel=0 note=103 velocity=25 time=0
note_off channel=0 note=72 velocity=28 time=15
note_on channel=0 note=72 velocity=28 time=0
note_off channel=0 note=103 velocity=25 time=0
note_on channel=0 note=103 velocity=25 time=0
note_off channel=0 note=72 velocity=28 time=15
note_on channel=0 note=72 velocity=28 time=0
note_off channel=0 note=103 velocity=25 time=0
note_on channel=0 note=103 velocity=25 time=0
note_on channel=0 note=71 velocity=11 time=15
note_off channel=0 note=72 velocity=28 time=0
note_off channel=0 note=103 velocity=25 time=0
note_on channel=0 note=103 velocity=25 time=0
note_off channel=0 note=71 velocity=11 time=15
note_on channel=0 note=72 velocity=28 time=0
note_off channel=0 note=103 velocity=25 time=0
note_on channel=0 note=103 velocity=25 time=0
note_off channel=0 note=72 velocity=28 time=15
note_on channel=0 note=72 velocity=28 time=0
note_off channel=0 note=103 velocity=25 time=0
note_on channel=0 note=103 velocity=25 time=0
note_off channel=0 note=72 velocity=28 time=15
note_on channel=0 note=72 velocity=28 time=0
note_off channel=0 note=103 velocity=25 time=0
note_on channel=0 note=103 velocity=25 time=0
note_on channel=0 note=71 velocity=11 time=15
note_off channel=0 note=72 velocity=28 time=0
note_off channel=0 note=103 velocity=25 time=0
note_on channel=0 note=103 velocity=25 time=0
note_off channel=0 note=71 velocity=11 time=15
note_on channel=0 note=72 velocity=28 time=0
note_off channel=0 note=103 velocity=25 time=0
note_on channel=0 note=103 velocity=25 time=0
note_off channel=0 note=72 velocity=28 time=15
note_on channel=0 note=72 velocity=28 time=0
note_off channel=0 note=103 velocity=25 time=0
note_on channel=0 note=103 velocity=25 time=0
note_on channel=0 note=71 velocity=11 time=15
note_off channel=0 note=72 velocity=28 time=0
note_off channel=0 note=103 velocity=25 time=0
note_on channel=0 note=103 velocity=25 time=0
note_off channel=0 note=71 velocity=11 time=15
note_on channel=0 note=72 velocity=28 time=0
note_off channel=0 note=103 velocity=25 time=0
note_on channel=0 note=103 velocity=25 time=0
note_off channel=0 note=72 velocity=28 time=15
note_on channel=0 note=72 velocity=28 time=0
note_off channel=0 note=103 velocity=25 time=0
note_on channel=0 note=103 velocity=25 time=0
note_off channel=0 note=72 velocity=28 time=15
note_on channel=0 note=72 velocity=28 time=0
note_off channel=0 note=103 velocity=25 time=0
note_on channel=0 note=103 velocity=25 time=0
note_off channel=0 note=72 velocity=28 time=15
note_on channel=0 note=72 velocity=28 time=0
note_off channel=0 note=103 velocity=25 time=0
note_on channel=0 note=103 velocity=25 time=0
note_off channel=0 note=72 velocity=28 time=15
note_on channel=0 note=72 velocity=28 time=0
note_off channel=0 note=103 velocity=25 time=0
note_on channel=0 note=103 velocity=25 time=0
note_on channel=0 note=71 velocity=11 time=15
note_off channel=0 note=72 velocity=28 time=0
note_off channel=0 note=103 velocity=25 time=0
note_on channel=0 note=103 velocity=25 time=0
note_off channel=0 note=71 velocity=11 time=15
note_on channel=0 note=72 velocity=28 time=0
note_off channel=0 note=103 velocity=25 time=0
note_on channel=0 note=103 velocity=25 time=0
note_off channel=0 note=72 velocity=28 time=15
note_on channel=0 note=72 velocity=28 time=0
note_off channel=0 note=103 velocity=25 time=0
note_on channel=0 note=103 velocity=25 time=0
note_on channel=0 note=71 velocity=11 time=15
note_off channel=0 note=72 velocity=28 time=0
note_off channel=0 note=103 velocity=25 time=0
note_on channel=0 note=103 velocity=25 time=0
note_off channel=0 note=71 velocity=11 time=15
note_on channel=0 note=72 velocity=28 time=0
note_off channel=0 note=103 velocity=25 time=0
note_on channel=0 note=103 velocity=25 time=0
note_on channel=0 note=71 velocity=11 time=15
note_off channel=0 note=72 velocity=28 time=0
note_off channel=0 note=103 velocity=25 time=0
note_on channel=0 note=103 velocity=25 time=0
note_off channel=0 note=71 velocity=11 time=15
note_on channel=0 note=72 velocity=28 time=0
note_off channel=0 note=103 velocity=25 time=0
note_on channel=0 note=103 velocity=25 time=0
note_on channel=0 note=71 velocity=11 time=15
note_off channel=0 note=72 velocity=28 time=0
note_off channel=0 note=103 velocity=25 time=0
note_on channel=0 note=103 velocity=25 time=0
note_off channel=0 note=71 velocity=11 time=15
note_on channel=0 note=72 velocity=28 time=0
note_off channel=0 note=103 velocity=25 time=0
note_on channel=0 note=103 velocity=25 time=0
note_off channel=0 note=72 velocity=28 time=15
note_on channel=0 note=72 velocity=28 time=0
note_off channel=0 note=103 velocity=25 time=0
note_on channel=0 note=103 velocity=25 time=0
note_on channel=0 note=71 velocity=11 time=15
note_off channel=0 note=72 velocity=28 time=0
note_off channel=0 note=103 velocity=25 time=0
note_on channel=0 note=103 velocity=25 time=0
note_off channel=0 note=71 velocity=11 time=15
note_on channel=0 note=72 velocity=28 time=0
note_off channel=0 note=103 velocity=25 time=0
note_on channel=0 note=103 velocity=25 time=0
note_off channel=0 note=72 velocity=28 time=15
note_on channel=0 note=72 velocity=28 time=0
note_off channel=0 note=103 velocity=25 time=0
note_on channel=0 note=103 velocity=25 time=0
note_off channel=0 note=72 velocity=28 time=15
note_on channel=0 note=72 velocity=28 time=0
note_off channel=0 note=103 velocity=25 time=0
note_on channel=0 note=103 velocity=25 time=0
note_on channel=0 note=71 velocity=11 time=15
note_off channel=0 note=72 velocity=28 time=0
note_off channel=0 note=103 velocity=25 time=0
note_on channel=0 note=103 velocity=25 time=0
note_off channel=0 note=71 velocity=11 time=15
note_on channel=0 note=71 velocity=11 time=0
note_off channel=0 note=103 velocity=25 time=0
note_on channel=0 note=103 velocity=25 time=0
note_off channel=0 note=71 velocity=11 time=15
note_on channel=0 note=72 velocity=28 time=0
note_off channel=0 note=103 velocity=25 time=0
note_on channel=0 note=103 velocity=25 time=0
note_off channel=0 note=72 velocity=28 time=15
note_on channel=0 note=72 velocity=28 time=0
note_off channel=0 note=103 velocity=25 time=0
note_on channel=0 note=103 velocity=25 time=0
note_off channel=0 note=72 velocity=28 time=15
note_on channel=0 note=72 velocity=28 time=0
note_off channel=0 note=103 velocity=25 time=0
note_on channel=0 note=103 velocity=25 time=0
note_on channel=0 note=71 velocity=11 time=15
note_off channel=0 note=72 velocity=28 time=0
note_off channel=0 note=103 velocity=25 time=0
note_on channel=0 note=103 velocity=25 time=0
note_off channel=0 note=71 velocity=11 time=15
note_on channel=0 note=72 velocity=28 time=0
note_off channel=0 note=103 velocity=25 time=0
note_on channel=0 note=103 velocity=25 time=0
note_on channel=0 note=71 velocity=11 time=15
note_off channel=0 note=72 velocity=28 time=0
note_off channel=0 note=103 velocity=25 time=0
note_on channel=0 note=103 velocity=25 time=0
note_off channel=0 note=71 velocity=11 time=15
note_on channel=0 note=72 velocity=28 time=0
note_off channel=0 note=103 velocity=25 time=0
note_on channel=0 note=103 velocity=25 time=0
note_on channel=0 note=71 velocity=11 time=15
note_off channel=0 note=72 velocity=28 time=0
note_off channel=0 note=103 velocity=25 time=0
note_on channel=0 note=103 velocity=25 time=0
note_off channel=0 note=71 velocity=11 time=15
note_on channel=0 note=72 velocity=28 time=0
note_off channel=0 note=103 velocity=25 time=0
note_on channel=0 note=103 velocity=25 time=0
note_off channel=0 note=72 velocity=28 time=15
note_on channel=0 note=72 velocity=28 time=0
note_off channel=0 note=103 velocity=25 time=0
note_on channel=0 note=103 velocity=25 time=0
note_off channel=0 note=72 velocity=28 time=15
note_on channel=0 note=72 velocity=28 time=0
note_off channel=0 note=103 velocity=25 time=0
note_on channel=0 note=103 velocity=25 time=0
note_on channel=0 note=71 velocity=11 time=15
note_off channel=0 note=72 velocity=28 time=0
note_off channel=0 note=103 velocity=25 time=0
note_on channel=0 note=103 velocity=25 time=0
note_off channel=0 note=71 velocity=11 time=15
note_on channel=0 note=72 velocity=28 time=0
note_off channel=0 note=103 velocity=25 time=0
note_on channel=0 note=103 velocity=25 time=0
note_off channel=0 note=72 velocity=28 time=15
note_on channel=0 note=72 velocity=28 time=0
note_off channel=0 note=103 velocity=25 time=0
note_on channel=0 note=103 velocity=25 time=0
note_off channel=0 note=72 velocity=28 time=15
note_on channel=0 note=72 velocity=28 time=0
note_off channel=0 note=103 velocity=25 time=0
note_on channel=0 note=103 velocity=25 time=0
note_off channel=0 note=72 velocity=28 time=15
note_on channel=0 note=72 velocity=28 time=0
note_off channel=0 note=103 velocity=25 time=0
note_on channel=0 note=103 velocity=25 time=0
note_off channel=0 note=72 velocity=28 time=15
note_on channel=0 note=72 velocity=28 time=0
note_off channel=0 note=103 velocity=25 time=0
note_on channel=0 note=103 velocity=25 time=0
note_off channel=0 note=72 velocity=28 time=15
note_on channel=0 note=72 velocity=28 time=0
note_off channel=0 note=103 velocity=25 time=0
note_on channel=0 note=103 velocity=25 time=0
note_off channel=0 note=72 velocity=28 time=15
note_on channel=0 note=72 velocity=28 time=0
note_off channel=0 note=103 velocity=25 time=0
note_on channel=0 note=103 velocity=25 time=0
note_off channel=0 note=72 velocity=28 time=15
note_on channel=0 note=72 velocity=28 time=0
note_off channel=0 note=103 velocity=25 time=0
note_on channel=0 note=103 velocity=25 time=0
note_on channel=0 note=71 velocity=11 time=15
note_off channel=0 note=72 velocity=28 time=0
note_off channel=0 note=103 velocity=25 time=0
note_on channel=0 note=103 velocity=25 time=0
note_off channel=0 note=71 velocity=11 time=15
note_on channel=0 note=72 velocity=28 time=0
note_off channel=0 note=103 velocity=25 time=0
note_on channel=0 note=103 velocity=25 time=0
note_off channel=0 note=72 velocity=28 time=15
note_on channel=0 note=72 velocity=28 time=0
note_off channel=0 note=103 velocity=25 time=0
note_on channel=0 note=103 velocity=25 time=0
note_off channel=0 note=72 velocity=28 time=15
note_on channel=0 note=72 velocity=28 time=0
note_off channel=0 note=103 velocity=25 time=0
note_on channel=0 note=103 velocity=25 time=0
note_off channel=0 note=72 velocity=28 time=15
note_on channel=0 note=72 velocity=28 time=0
note_off channel=0 note=103 velocity=25 time=0
note_on channel=0 note=103 velocity=25 time=0
note_on channel=0 note=71 velocity=11 time=15
note_off channel=0 note=72 velocity=28 time=0
note_off channel=0 note=103 velocity=25 time=0
note_on channel=0 note=103 velocity=25 time=0
note_off channel=0 note=71 velocity=11 time=15
note_on channel=0 note=72 velocity=28 time=0
note_off channel=0 note=103 velocity=25 time=0
note_on channel=0 note=103 velocity=25 time=0
note_off channel=0 note=72 velocity=28 time=15
note_on channel=0 note=72 velocity=28 time=0
note_off channel=0 note=103 velocity=25 time=0
note_on channel=0 note=103 velocity=25 time=0
note_off channel=0 note=72 velocity=28 time=15
note_on channel=0 note=72 velocity=28 time=0
note_off channel=0 note=103 velocity=25 time=0
note_on channel=0 note=103 velocity=25 time=0
note_off channel=0 note=72 velocity=28 time=15
note_on channel=0 note=72 velocity=28 time=0
note_off channel=0 note=103 velocity=25 time=0
note_on channel=0 note=103 velocity=25 time=0
note_on channel=0 note=71 velocity=11 time=15
note_off channel=0 note=72 velocity=28 time=0
note_off channel=0 note=103 velocity=25 time=0
note_on channel=0 note=103 velocity=25 time=0
note_off channel=0 note=71 velocity=11 time=15
note_on channel=0 note=72 velocity=28 time=0
note_off channel=0 note=103 velocity=25 time=0
note_on channel=0 note=103 velocity=25 time=0
note_off channel=0 note=72 velocity=28 time=15
note_on channel=0 note=72 velocity=28 time=0
note_off channel=0 note=103 velocity=25 time=0
note_on channel=0 note=103 velocity=25 time=0
note_off channel=0 note=72 velocity=28 time=15
note_on channel=0 note=72 velocity=28 time=0
note_off channel=0 note=103 velocity=25 time=0
note_on channel=0 note=103 velocity=25 time=0
note_off channel=0 note=72 velocity=28 time=15
note_on channel=0 note=72 velocity=28 time=0
note_off channel=0 note=103 velocity=25 time=0
note_on channel=0 note=103 velocity=25 time=0
note_off channel=0 note=72 velocity=28 time=15
note_on channel=0 note=72 velocity=28 time=0
note_off channel=0 note=103 velocity=25 time=0
note_on channel=0 note=103 velocity=25 time=0
note_off channel=0 note=72 velocity=28 time=15
note_on channel=0 note=72 velocity=28 time=0
note_off channel=0 note=103 velocity=25 time=0
note_on channel=0 note=103 velocity=25 time=0
note_off channel=0 note=72 velocity=28 time=15
note_on channel=0 note=72 velocity=28 time=0
note_off channel=0 note=103 velocity=25 time=0
note_on channel=0 note=103 velocity=25 time=0
note_on channel=0 note=71 velocity=11 time=15
note_off channel=0 note=72 velocity=28 time=0
note_off channel=0 note=103 velocity=25 time=0
note_on channel=0 note=103 velocity=25 time=0
note_off channel=0 note=71 velocity=11 time=15
note_on channel=0 note=72 velocity=28 time=0
note_off channel=0 note=103 velocity=25 time=0
note_on channel=0 note=103 velocity=25 time=0
note_off channel=0 note=72 velocity=28 time=15
note_on channel=0 note=72 velocity=28 time=0
note_off channel=0 note=103 velocity=25 time=0
note_on channel=0 note=103 velocity=25 time=0
note_on channel=0 note=71 velocity=11 time=15
note_off channel=0 note=72 velocity=28 time=0
note_off channel=0 note=103 velocity=25 time=0
note_on channel=0 note=103 velocity=25 time=0
note_off channel=0 note=71 velocity=11 time=15
note_on channel=0 note=72 velocity=28 time=0
note_off channel=0 note=103 velocity=25 time=0
note_on channel=0 note=103 velocity=25 time=0
note_on channel=0 note=71 velocity=11 time=15
note_off channel=0 note=72 velocity=28 time=0
note_off channel=0 note=103 velocity=25 time=0
note_on channel=0 note=103 velocity=25 time=0
note_off channel=0 note=71 velocity=11 time=15
note_on channel=0 note=72 velocity=28 time=0
note_off channel=0 note=103 velocity=25 time=0
note_on channel=0 note=103 velocity=25 time=0
note_off channel=0 note=72 velocity=28 time=15
note_on channel=0 note=72 velocity=28 time=0
note_off channel=0 note=103 velocity=25 time=0
note_on channel=0 note=103 velocity=25 time=0
note_off channel=0 note=72 velocity=28 time=15
note_on channel=0 note=72 velocity=28 time=0
note_off channel=0 note=103 velocity=25 time=0
note_on channel=0 note=103 velocity=25 time=0
note_off channel=0 note=72 velocity=28 time=15
note_on channel=0 note=72 velocity=28 time=0
note_off channel=0 note=103 velocity=25 time=0
note_on channel=0 note=103 velocity=25 time=0
note_off channel=0 note=72 velocity=28 time=15
note_on channel=0 note=72 velocity=28 time=0
note_off channel=0 note=103 velocity=25 time=0
note_on channel=0 note=103 velocity=25 time=0
note_off channel=0 note=72 velocity=28 time=15
note_on channel=0 note=72 velocity=28 time=0
note_off channel=0 note=103 velocity=25 time=0
note_on channel=0 note=103 velocity=25 time=0
note_off channel=0 note=72 velocity=28 time=15
note_on channel=0 note=72 velocity=28 time=0
note_off channel=0 note=103 velocity=25 time=0
note_on channel=0 note=103 velocity=25 time=0
note_off channel=0 note=72 velocity=28 time=15
note_on channel=0 note=72 velocity=28 time=0
note_off channel=0 note=103 velocity=25 time=0
note_on channel=0 note=103 velocity=25 time=0
note_off channel=0 note=72 velocity=28 time=15
note_on channel=0 note=72 velocity=28 time=0
note_off channel=0 note=103 velocity=25 time=0
note_on channel=0 note=103 velocity=25 time=0
note_off channel=0 note=72 velocity=28 time=15
note_on channel=0 note=72 velocity=28 time=0
note_off channel=0 note=103 velocity=25 time=0
note_on channel=0 note=103 velocity=25 time=0
note_on channel=0 note=71 velocity=11 time=15
note_off channel=0 note=72 velocity=28 time=0
note_off channel=0 note=103 velocity=25 time=0
note_on channel=0 note=103 velocity=25 time=0
note_off channel=0 note=71 velocity=11 time=15
note_on channel=0 note=72 velocity=28 time=0
note_off channel=0 note=103 velocity=25 time=0
note_on channel=0 note=103 velocity=25 time=0
note_off channel=0 note=72 velocity=28 time=15
note_on channel=0 note=72 velocity=28 time=0
note_off channel=0 note=103 velocity=25 time=0
note_on channel=0 note=103 velocity=25 time=0
note_on channel=0 note=71 velocity=11 time=15
note_off channel=0 note=72 velocity=28 time=0
note_off channel=0 note=103 velocity=25 time=0
note_on channel=0 note=103 velocity=25 time=0
note_off channel=0 note=71 velocity=11 time=15
note_on channel=0 note=72 velocity=28 time=0
note_off channel=0 note=103 velocity=25 time=0
note_on channel=0 note=103 velocity=25 time=0
note_on channel=0 note=71 velocity=11 time=15
note_off channel=0 note=72 velocity=28 time=0
note_off channel=0 note=103 velocity=25 time=0
note_on channel=0 note=103 velocity=25 time=0
note_off channel=0 note=71 velocity=11 time=15
note_on channel=0 note=71 velocity=11 time=0
note_off channel=0 note=103 velocity=25 time=0
note_on channel=0 note=103 velocity=25 time=0
note_off channel=0 note=71 velocity=11 time=15
note_on channel=0 note=71 velocity=11 time=0
note_off channel=0 note=103 velocity=25 time=0
note_on channel=0 note=103 velocity=25 time=0
note_off channel=0 note=71 velocity=11 time=15
note_on channel=0 note=72 velocity=28 time=0
note_off channel=0 note=103 velocity=25 time=0
note_on channel=0 note=103 velocity=25 time=0
note_off channel=0 note=72 velocity=28 time=15
note_on channel=0 note=72 velocity=28 time=0
note_off channel=0 note=103 velocity=25 time=0
note_on channel=0 note=103 velocity=25 time=0
note_off channel=0 note=72 velocity=28 time=15
note_on channel=0 note=72 velocity=28 time=0
note_off channel=0 note=103 velocity=25 time=0
note_on channel=0 note=103 velocity=25 time=0
note_off channel=0 note=72 velocity=28 time=15
note_on channel=0 note=72 velocity=28 time=0
note_off channel=0 note=103 velocity=25 time=0
note_on channel=0 note=103 velocity=25 time=0
note_off channel=0 note=72 velocity=28 time=15
note_on channel=0 note=72 velocity=28 time=0
note_off channel=0 note=103 velocity=25 time=0
note_on channel=0 note=103 velocity=25 time=0
note_off channel=0 note=72 velocity=28 time=15
note_on channel=0 note=72 velocity=28 time=0
note_off channel=0 note=103 velocity=25 time=0
note_on channel=0 note=103 velocity=25 time=0
note_off channel=0 note=72 velocity=28 time=15
note_on channel=0 note=72 velocity=28 time=0
note_off channel=0 note=103 velocity=25 time=0
note_on channel=0 note=103 velocity=25 time=0
note_off channel=0 note=72 velocity=28 time=15
note_on channel=0 note=72 velocity=28 time=0
note_off channel=0 note=103 velocity=25 time=0
note_on channel=0 note=103 velocity=25 time=0
note_on channel=0 note=71 velocity=11 time=15
note_off channel=0 note=72 velocity=28 time=0
note_off channel=0 note=103 velocity=25 time=0
note_on channel=0 note=103 velocity=25 time=0
note_off channel=0 note=71 velocity=11 time=15
note_on channel=0 note=72 velocity=28 time=0
note_off channel=0 note=103 velocity=25 time=0
note_on channel=0 note=103 velocity=25 time=0
note_on channel=0 note=71 velocity=11 time=15
note_off channel=0 note=72 velocity=28 time=0
note_off channel=0 note=103 velocity=25 time=0
note_on channel=0 note=103 velocity=25 time=0
note_off channel=0 note=71 velocity=11 time=15
note_on channel=0 note=72 velocity=28 time=0
note_off channel=0 note=103 velocity=25 time=0
note_on channel=0 note=103 velocity=25 time=0
note_off channel=0 note=72 velocity=28 time=15
note_on channel=0 note=72 velocity=28 time=0
note_off channel=0 note=103 velocity=25 time=0
note_on channel=0 note=103 velocity=25 time=0
note_on channel=0 note=71 velocity=11 time=15
note_off channel=0 note=72 velocity=28 time=0
note_off channel=0 note=103 velocity=25 time=0
note_on channel=0 note=103 velocity=25 time=0
note_off channel=0 note=71 velocity=11 time=15
note_on channel=0 note=72 velocity=28 time=0
note_off channel=0 note=103 velocity=25 time=0
note_on channel=0 note=103 velocity=25 time=0
note_on channel=0 note=71 velocity=11 time=15
note_off channel=0 note=72 velocity=28 time=0
note_off channel=0 note=103 velocity=25 time=0
note_on channel=0 note=103 velocity=25 time=0
note_off channel=0 note=71 velocity=11 time=15
note_on channel=0 note=72 velocity=28 time=0
note_off channel=0 note=103 velocity=25 time=0
note_on channel=0 note=103 velocity=25 time=0
note_off channel=0 note=72 velocity=28 time=15
note_on channel=0 note=72 velocity=28 time=0
note_off channel=0 note=103 velocity=25 time=0
note_on channel=0 note=103 velocity=25 time=0
note_on channel=0 note=71 velocity=11 time=15
note_off channel=0 note=72 velocity=28 time=0
note_off channel=0 note=103 velocity=25 time=0
note_on channel=0 note=103 velocity=25 time=0
note_off channel=0 note=71 velocity=11 time=15
note_on channel=0 note=71 velocity=11 time=0
note_off channel=0 note=103 velocity=25 time=0
note_on channel=0 note=103 velocity=25 time=0
note_off channel=0 note=71 velocity=11 time=15
note_on channel=0 note=71 velocity=11 time=0
note_off channel=0 note=103 velocity=25 time=0
note_on channel=0 note=103 velocity=25 time=0
note_off channel=0 note=71 velocity=11 time=15
note_on channel=0 note=72 velocity=28 time=0
note_off channel=0 note=103 velocity=25 time=0
note_on channel=0 note=103 velocity=25 time=0
note_off channel=0 note=72 velocity=28 time=15
note_on channel=0 note=72 velocity=28 time=0
note_off channel=0 note=103 velocity=25 time=0
note_on channel=0 note=103 velocity=25 time=0
note_off channel=0 note=72 velocity=28 time=15
note_on channel=0 note=72 velocity=28 time=0
note_off channel=0 note=103 velocity=25 time=0
note_on channel=0 note=103 velocity=25 time=0
note_off channel=0 note=72 velocity=28 time=15
note_on channel=0 note=72 velocity=28 time=0
note_off channel=0 note=103 velocity=25 time=0
note_on channel=0 note=103 velocity=25 time=0
note_off channel=0 note=72 velocity=28 time=15
note_on channel=0 note=72 velocity=28 time=0
note_off channel=0 note=103 velocity=25 time=0
note_on channel=0 note=103 velocity=25 time=0
note_off channel=0 note=72 velocity=28 time=15
note_on channel=0 note=72 velocity=28 time=0
note_off channel=0 note=103 velocity=25 time=0
note_on channel=0 note=103 velocity=25 time=0
note_on channel=0 note=71 velocity=11 time=15
note_off channel=0 note=72 velocity=28 time=0
note_off channel=0 note=103 velocity=25 time=0
note_on channel=0 note=103 velocity=25 time=0
note_off channel=0 note=71 velocity=11 time=15
note_on channel=0 note=72 velocity=28 time=0
note_off channel=0 note=103 velocity=25 time=0
note_on channel=0 note=103 velocity=25 time=0
note_off channel=0 note=72 velocity=28 time=15
note_on channel=0 note=72 velocity=28 time=0
note_off channel=0 note=103 velocity=25 time=0
note_on channel=0 note=103 velocity=25 time=0
note_off channel=0 note=72 velocity=28 time=15
note_on channel=0 note=72 velocity=28 time=0
note_off channel=0 note=103 velocity=25 time=0
note_on channel=0 note=103 velocity=25 time=0
note_off channel=0 note=72 velocity=28 time=15
note_on channel=0 note=72 velocity=28 time=0
note_off channel=0 note=103 velocity=25 time=0
note_on channel=0 note=103 velocity=25 time=0
note_off channel=0 note=72 velocity=28 time=15
note_on channel=0 note=72 velocity=28 time=0
note_off channel=0 note=103 velocity=25 time=0
note_on channel=0 note=103 velocity=25 time=0
note_on channel=0 note=71 velocity=11 time=15
note_off channel=0 note=72 velocity=28 time=0
note_off channel=0 note=103 velocity=25 time=0
note_on channel=0 note=103 velocity=25 time=0
note_off channel=0 note=71 velocity=11 time=15
note_on channel=0 note=72 velocity=28 time=0
note_off channel=0 note=103 velocity=25 time=0
note_on channel=0 note=103 velocity=25 time=0
note_off channel=0 note=72 velocity=28 time=15
note_on channel=0 note=72 velocity=28 time=0
note_off channel=0 note=103 velocity=25 time=0
note_on channel=0 note=103 velocity=25 time=0
note_off channel=0 note=72 velocity=28 time=15
note_on channel=0 note=72 velocity=28 time=0
note_off channel=0 note=103 velocity=25 time=0
note_on channel=0 note=103 velocity=25 time=0
note_on channel=0 note=71 velocity=11 time=15
note_off channel=0 note=72 velocity=28 time=0
note_off channel=0 note=103 velocity=25 time=0
note_on channel=0 note=103 velocity=25 time=0
note_off channel=0 note=71 velocity=11 time=15
note_on channel=0 note=72 velocity=28 time=0
note_off channel=0 note=103 velocity=25 time=0
note_on channel=0 note=103 velocity=25 time=0
note_on channel=0 note=71 velocity=11 time=15
note_off channel=0 note=72 velocity=28 time=0
note_off channel=0 note=103 velocity=25 time=0
note_on channel=0 note=103 velocity=25 time=0
note_off channel=0 note=71 velocity=11 time=15
note_on channel=0 note=72 velocity=28 time=0
note_off channel=0 note=103 velocity=25 time=0
note_on channel=0 note=103 velocity=25 time=0
note_off channel=0 note=72 velocity=28 time=15
note_on channel=0 note=72 velocity=28 time=0
note_off channel=0 note=103 velocity=25 time=0
note_on channel=0 note=103 velocity=25 time=0
note_off channel=0 note=72 velocity=28 time=15
note_on channel=0 note=72 velocity=28 time=0
note_off channel=0 note=103 velocity=25 time=0
note_on channel=0 note=103 velocity=25 time=0
note_off channel=0 note=72 velocity=28 time=15
note_on channel=0 note=72 velocity=28 time=0
note_off channel=0 note=103 velocity=25 time=0
note_on channel=0 note=103 velocity=25 time=0
note_on channel=0 note=71 velocity=11 time=15
note_off channel=0 note=72 velocity=28 time=0
note_off channel=0 note=103 velocity=25 time=0
note_on channel=0 note=103 velocity=25 time=0
note_off channel=0 note=71 velocity=11 time=15
note_on channel=0 note=72 velocity=28 time=0
note_off channel=0 note=103 velocity=25 time=0
note_on channel=0 note=103 velocity=25 time=0
note_off channel=0 note=72 velocity=28 time=15
note_on channel=0 note=72 velocity=28 time=0
note_off channel=0 note=103 velocity=25 time=0
note_on channel=0 note=103 velocity=25 time=0
note_off channel=0 note=72 velocity=28 time=15
note_on channel=0 note=72 velocity=28 time=0
note_off channel=0 note=103 velocity=25 time=0
note_on channel=0 note=103 velocity=25 time=0
note_on channel=0 note=71 velocity=11 time=15
note_off channel=0 note=72 velocity=28 time=0
note_off channel=0 note=103 velocity=25 time=0
note_on channel=0 note=103 velocity=25 time=0
note_off channel=0 note=71 velocity=11 time=15
note_on channel=0 note=72 velocity=28 time=0
note_off channel=0 note=103 velocity=25 time=0
note_on channel=0 note=103 velocity=25 time=0
note_off channel=0 note=72 velocity=28 time=15
note_on channel=0 note=72 velocity=28 time=0
note_off channel=0 note=103 velocity=25 time=0
note_on channel=0 note=103 velocity=25 time=0
note_on channel=0 note=71 velocity=11 time=15
note_off channel=0 note=72 velocity=28 time=0
note_off channel=0 note=103 velocity=25 time=0
note_on channel=0 note=103 velocity=25 time=0
note_off channel=0 note=71 velocity=11 time=15
note_on channel=0 note=71 velocity=11 time=0
note_off channel=0 note=103 velocity=25 time=0
note_on channel=0 note=103 velocity=25 time=0
note_off channel=0 note=71 velocity=11 time=15
note_on channel=0 note=72 velocity=28 time=0
note_off channel=0 note=103 velocity=25 time=0
note_on channel=0 note=103 velocity=25 time=0
note_off channel=0 note=72 velocity=28 time=15
note_on channel=0 note=72 velocity=28 time=0
note_off channel=0 note=103 velocity=25 time=0
note_on channel=0 note=103 velocity=25 time=0
note_off channel=0 note=72 velocity=28 time=15
note_on channel=0 note=72 velocity=28 time=0
note_off channel=0 note=103 velocity=25 time=0
note_on channel=0 note=103 velocity=25 time=0
note_off channel=0 note=72 velocity=28 time=15
note_on channel=0 note=72 velocity=28 time=0
note_off channel=0 note=103 velocity=25 time=0
note_on channel=0 note=103 velocity=25 time=0
note_off channel=0 note=72 velocity=28 time=15
note_on channel=0 note=72 velocity=28 time=0
note_off channel=0 note=103 velocity=25 time=0
note_on channel=0 note=103 velocity=25 time=0
note_off channel=0 note=72 velocity=28 time=15
note_on channel=0 note=72 velocity=28 time=0
note_off channel=0 note=103 velocity=25 time=0
note_on channel=0 note=103 velocity=25 time=0
note_off channel=0 note=72 velocity=28 time=15
note_on channel=0 note=72 velocity=28 time=0
note_off channel=0 note=103 velocity=25 time=0
note_on channel=0 note=103 velocity=25 time=0
note_off channel=0 note=72 velocity=28 time=15
note_on channel=0 note=72 velocity=28 time=0
note_off channel=0 note=103 velocity=25 time=0
note_on channel=0 note=103 velocity=25 time=0
note_off channel=0 note=72 velocity=28 time=15
note_on channel=0 note=72 velocity=28 time=0
note_off channel=0 note=103 velocity=25 time=0
note_on channel=0 note=103 velocity=25 time=0
note_off channel=0 note=72 velocity=28 time=15
note_on channel=0 note=72 velocity=28 time=0
note_off channel=0 note=103 velocity=25 time=0
note_on channel=0 note=103 velocity=25 time=0
note_off channel=0 note=72 velocity=28 time=15
note_on channel=0 note=72 velocity=28 time=0
note_off channel=0 note=103 velocity=25 time=0
note_on channel=0 note=103 velocity=25 time=0
note_on channel=0 note=71 velocity=11 time=15
note_off channel=0 note=72 velocity=28 time=0
note_off channel=0 note=103 velocity=25 time=0
note_on channel=0 note=103 velocity=25 time=0
note_off channel=0 note=71 velocity=11 time=15
note_on channel=0 note=71 velocity=11 time=0
note_off channel=0 note=103 velocity=25 time=0
note_on channel=0 note=103 velocity=25 time=0
note_off channel=0 note=71 velocity=11 time=15
note_on channel=0 note=72 velocity=28 time=0
note_off channel=0 note=103 velocity=25 time=0
note_on channel=0 note=103 velocity=25 time=0
note_off channel=0 note=72 velocity=28 time=15
note_on channel=0 note=72 velocity=28 time=0
note_off channel=0 note=103 velocity=25 time=0
note_on channel=0 note=103 velocity=25 time=0
note_on channel=0 note=71 velocity=11 time=15
note_off channel=0 note=72 velocity=28 time=0
note_off channel=0 note=103 velocity=25 time=0
note_on channel=0 note=103 velocity=25 time=0
note_off channel=0 note=71 velocity=11 time=15
note_on channel=0 note=72 velocity=28 time=0
note_off channel=0 note=103 velocity=25 time=0
note_on channel=0 note=103 velocity=25 time=0
note_off channel=0 note=72 velocity=28 time=15
note_on channel=0 note=72 velocity=28 time=0
note_off channel=0 note=103 velocity=25 time=0
note_on channel=0 note=103 velocity=25 time=0
note_off channel=0 note=72 velocity=28 time=15
note_on channel=0 note=72 velocity=28 time=0
note_off channel=0 note=103 velocity=25 time=0
note_on channel=0 note=103 velocity=25 time=0
note_off channel=0 note=72 velocity=28 time=15
note_on channel=0 note=72 velocity=28 time=0
note_off channel=0 note=103 velocity=25 time=0
note_on channel=0 note=103 velocity=25 time=0
note_on channel=0 note=71 velocity=11 time=15
note_off channel=0 note=72 velocity=28 time=0
note_off channel=0 note=103 velocity=25 time=0
note_on channel=0 note=103 velocity=25 time=0
note_off channel=0 note=71 velocity=11 time=15
note_on channel=0 note=71 velocity=11 time=0
note_off channel=0 note=103 velocity=25 time=0
note_on channel=0 note=103 velocity=25 time=0
note_off channel=0 note=71 velocity=11 time=15
note_on channel=0 note=71 velocity=11 time=0
note_off channel=0 note=103 velocity=25 time=0
note_on channel=0 note=103 velocity=25 time=0
note_off channel=0 note=71 velocity=11 time=15
note_on channel=0 note=72 velocity=28 time=0
note_off channel=0 note=103 velocity=25 time=0
note_on channel=0 note=103 velocity=25 time=0
note_off channel=0 note=72 velocity=28 time=15
note_on channel=0 note=72 velocity=28 time=0
note_off channel=0 note=103 velocity=25 time=0
note_on channel=0 note=103 velocity=25 time=0
note_on channel=0 note=71 velocity=11 time=15
note_off channel=0 note=72 velocity=28 time=0
note_off channel=0 note=103 velocity=25 time=0
note_on channel=0 note=103 velocity=25 time=0
note_off channel=0 note=71 velocity=11 time=15
note_on channel=0 note=72 velocity=28 time=0
note_off channel=0 note=103 velocity=25 time=0
note_on channel=0 note=103 velocity=25 time=0
note_off channel=0 note=72 velocity=28 time=15
note_on channel=0 note=72 velocity=28 time=0
note_off channel=0 note=103 velocity=25 time=0
note_on channel=0 note=103 velocity=25 time=0
note_off channel=0 note=72 velocity=28 time=15
note_on channel=0 note=72 velocity=28 time=0
note_off channel=0 note=103 velocity=25 time=0
note_on channel=0 note=103 velocity=25 time=0
note_off channel=0 note=72 velocity=28 time=15
note_on channel=0 note=72 velocity=28 time=0
note_off channel=0 note=103 velocity=25 time=0
note_on channel=0 note=103 velocity=25 time=0
note_on channel=0 note=71 velocity=11 time=15
note_off channel=0 note=72 velocity=28 time=0
note_off channel=0 note=103 velocity=25 time=0
note_on channel=0 note=103 velocity=25 time=0
note_off channel=0 note=71 velocity=11 time=15
note_on channel=0 note=71 velocity=11 time=0
note_off channel=0 note=103 velocity=25 time=0
note_on channel=0 note=103 velocity=25 time=0
note_off channel=0 note=71 velocity=11 time=15
note_on channel=0 note=72 velocity=28 time=0
note_off channel=0 note=103 velocity=25 time=0
note_on channel=0 note=103 velocity=25 time=0
note_off channel=0 note=72 velocity=28 time=15
note_on channel=0 note=72 velocity=28 time=0
note_off channel=0 note=103 velocity=25 time=0
note_on channel=0 note=103 velocity=25 time=0
note_off channel=0 note=72 velocity=28 time=15
note_on channel=0 note=72 velocity=28 time=0
note_off channel=0 note=103 velocity=25 time=0
note_on channel=0 note=103 velocity=25 time=0
note_off channel=0 note=72 velocity=28 time=15
note_on channel=0 note=72 velocity=28 time=0
note_off channel=0 note=103 velocity=25 time=0
note_on channel=0 note=103 velocity=25 time=0
note_off channel=0 note=72 velocity=28 time=15
note_on channel=0 note=72 velocity=28 time=0
note_off channel=0 note=103 velocity=25 time=0
note_on channel=0 note=103 velocity=25 time=0
note_on channel=0 note=71 velocity=11 time=15
note_off channel=0 note=72 velocity=28 time=0
note_off channel=0 note=103 velocity=25 time=0
note_on channel=0 note=103 velocity=25 time=0
note_off channel=0 note=71 velocity=11 time=15
note_on channel=0 note=72 velocity=28 time=0
note_off channel=0 note=103 velocity=25 time=0
note_on channel=0 note=103 velocity=25 time=0
note_off channel=0 note=72 velocity=28 time=15
note_on channel=0 note=72 velocity=28 time=0
note_off channel=0 note=103 velocity=25 time=0
note_on channel=0 note=103 velocity=25 time=0
note_on channel=0 note=71 velocity=11 time=15
note_off channel=0 note=72 velocity=28 time=0
note_off channel=0 note=103 velocity=25 time=0
note_on channel=0 note=103 velocity=25 time=0
note_off channel=0 note=71 velocity=11 time=15
note_on channel=0 note=72 velocity=28 time=0
note_off channel=0 note=103 velocity=25 time=0
note_on channel=0 note=103 velocity=25 time=0
note_off channel=0 note=72 velocity=28 time=15
note_on channel=0 note=72 velocity=28 time=0
note_off channel=0 note=103 velocity=25 time=0
note_on channel=0 note=103 velocity=25 time=0
note_off channel=0 note=72 velocity=28 time=15
note_on channel=0 note=72 velocity=28 time=0
note_off channel=0 note=103 velocity=25 time=0
note_on channel=0 note=103 velocity=25 time=0
note_on channel=0 note=71 velocity=11 time=15
note_off channel=0 note=72 velocity=28 time=0
note_off channel=0 note=103 velocity=25 time=0
note_on channel=0 note=103 velocity=25 time=0
note_off channel=0 note=71 velocity=11 time=15
note_on channel=0 note=72 velocity=28 time=0
note_off channel=0 note=103 velocity=25 time=0
note_on channel=0 note=103 velocity=25 time=0
note_off channel=0 note=72 velocity=28 time=15
note_on channel=0 note=72 velocity=28 time=0
note_off channel=0 note=103 velocity=25 time=0
note_on channel=0 note=103 velocity=25 time=0
note_off channel=0 note=72 velocity=28 time=15
note_on channel=0 note=72 velocity=28 time=0
note_off channel=0 note=103 velocity=25 time=0
note_on channel=0 note=103 velocity=25 time=0
note_on channel=0 note=71 velocity=11 time=15
note_off channel=0 note=72 velocity=28 time=0
note_off channel=0 note=103 velocity=25 time=0
note_on channel=0 note=103 velocity=25 time=0
note_off channel=0 note=71 velocity=11 time=15
note_on channel=0 note=71 velocity=11 time=0
note_off channel=0 note=103 velocity=25 time=0
note_on channel=0 note=103 velocity=25 time=0
note_off channel=0 note=71 velocity=11 time=15
note_on channel=0 note=72 velocity=28 time=0
note_off channel=0 note=103 velocity=25 time=0
note_on channel=0 note=103 velocity=25 time=0
note_off channel=0 note=72 velocity=28 time=15
note_on channel=0 note=72 velocity=28 time=0
note_off channel=0 note=103 velocity=25 time=0
note_on channel=0 note=103 velocity=25 time=0
note_off channel=0 note=72 velocity=28 time=15
note_on channel=0 note=72 velocity=28 time=0
note_off channel=0 note=103 velocity=25 time=0
note_on channel=0 note=103 velocity=25 time=0
note_off channel=0 note=72 velocity=28 time=15
note_on channel=0 note=72 velocity=28 time=0
note_off channel=0 note=103 velocity=25 time=0
note_on channel=0 note=103 velocity=25 time=0
note_off channel=0 note=72 velocity=28 time=15
note_on channel=0 note=72 velocity=28 time=0
note_off channel=0 note=103 velocity=25 time=0
note_on channel=0 note=103 velocity=25 time=0
note_off channel=0 note=72 velocity=28 time=15
note_on channel=0 note=72 velocity=28 time=0
note_off channel=0 note=103 velocity=25 time=0
note_on channel=0 note=103 velocity=25 time=0
note_off channel=0 note=72 velocity=28 time=15
note_on channel=0 note=72 velocity=28 time=0
note_off channel=0 note=103 velocity=25 time=0
note_on channel=0 note=103 velocity=25 time=0
note_on channel=0 note=71 velocity=11 time=15
note_off channel=0 note=72 velocity=28 time=0
note_off channel=0 note=103 velocity=25 time=0
note_on channel=0 note=103 velocity=25 time=0
note_off channel=0 note=71 velocity=11 time=15
note_on channel=0 note=72 velocity=28 time=0
note_off channel=0 note=103 velocity=25 time=0
note_on channel=0 note=103 velocity=25 time=0
note_on channel=0 note=71 velocity=11 time=15
note_off channel=0 note=72 velocity=28 time=0
note_off channel=0 note=103 velocity=25 time=0
note_on channel=0 note=103 velocity=25 time=0
note_off channel=0 note=71 velocity=11 time=15
note_on channel=0 note=71 velocity=11 time=0
note_off channel=0 note=103 velocity=25 time=0
note_on channel=0 note=103 velocity=25 time=0
note_off channel=0 note=71 velocity=11 time=15
note_on channel=0 note=72 velocity=28 time=0
note_off channel=0 note=103 velocity=25 time=0
note_on channel=0 note=103 velocity=25 time=0
note_off channel=0 note=72 velocity=28 time=15
note_on channel=0 note=72 velocity=28 time=0
note_off channel=0 note=103 velocity=25 time=0
note_on channel=0 note=103 velocity=25 time=0
note_off channel=0 note=72 velocity=28 time=15
note_on channel=0 note=72 velocity=28 time=0
note_off channel=0 note=103 velocity=25 time=0
note_on channel=0 note=103 velocity=25 time=0
note_off channel=0 note=72 velocity=28 time=15
note_on channel=0 note=72 velocity=28 time=0
note_off channel=0 note=103 velocity=25 time=0
note_on channel=0 note=103 velocity=25 time=0
note_on channel=0 note=71 velocity=11 time=15
note_off channel=0 note=72 velocity=28 time=0
note_off channel=0 note=103 velocity=25 time=0
note_on channel=0 note=103 velocity=25 time=0
note_off channel=0 note=71 velocity=11 time=15
note_on channel=0 note=72 velocity=28 time=0
note_off channel=0 note=103 velocity=25 time=0
note_on channel=0 note=103 velocity=25 time=0
note_on channel=0 note=67 velocity=12 time=15
note_off channel=0 note=72 velocity=28 time=0
note_off channel=0 note=103 velocity=25 time=0
note_on channel=0 note=103 velocity=25 time=0
note_off channel=0 note=67 velocity=12 time=15
note_on channel=0 note=72 velocity=28 time=0
note_off channel=0 note=103 velocity=25 time=0
note_on channel=0 note=103 velocity=25 time=0
note_off channel=0 note=72 velocity=28 time=15
note_on channel=0 note=72 velocity=28 time=0
note_off channel=0 note=103 velocity=25 time=0
note_on channel=0 note=103 velocity=25 time=0
note_off channel=0 note=72 velocity=28 time=15
note_on channel=0 note=72 velocity=28 time=0
note_off channel=0 note=103 velocity=25 time=0
note_on channel=0 note=103 velocity=25 time=0
note_off channel=0 note=72 velocity=28 time=15
note_on channel=0 note=72 velocity=28 time=0
note_off channel=0 note=103 velocity=25 time=0
note_on channel=0 note=103 velocity=25 time=0
note_off channel=0 note=72 velocity=28 time=15
note_on channel=0 note=72 velocity=28 time=0
note_off channel=0 note=103 velocity=25 time=0
note_on channel=0 note=103 velocity=25 time=0
note_off channel=0 note=72 velocity=28 time=15
note_on channel=0 note=72 velocity=28 time=0
note_off channel=0 note=103 velocity=25 time=0
note_on channel=0 note=103 velocity=25 time=0
note_off channel=0 note=72 velocity=28 time=15
note_on channel=0 note=72 velocity=28 time=0
note_off channel=0 note=103 velocity=25 time=0
note_on channel=0 note=103 velocity=25 time=0
note_off channel=0 note=72 velocity=28 time=15
note_on channel=0 note=72 velocity=28 time=0
note_off channel=0 note=103 velocity=25 time=0
note_on channel=0 note=103 velocity=25 time=0
note_off channel=0 note=72 velocity=28 time=15
note_on channel=0 note=72 velocity=28 time=0
note_off channel=0 note=103 velocity=25 time=0
note_on channel=0 note=103 velocity=25 time=0
note_on channel=0 note=71 velocity=11 time=15
note_off channel=0 note=72 velocity=28 time=0
note_off channel=0 note=103 velocity=25 time=0
note_on channel=0 note=103 velocity=25 time=0
note_off channel=0 note=71 velocity=11 time=15
note_on channel=0 note=71 velocity=11 time=0
note_off channel=0 note=103 velocity=25 time=0
note_on channel=0 note=103 velocity=25 time=0
note_off channel=0 note=71 velocity=11 time=15
note_on channel=0 note=72 velocity=28 time=0
note_off channel=0 note=103 velocity=25 time=0
note_on channel=0 note=103 velocity=25 time=0
note_on channel=0 note=71 velocity=11 time=15
note_off channel=0 note=72 velocity=28 time=0
note_off channel=0 note=103 velocity=25 time=0
note_on channel=0 note=103 velocity=25 time=0
note_off channel=0 note=71 velocity=11 time=15
note_on channel=0 note=72 velocity=28 time=0
note_off channel=0 note=103 velocity=25 time=0
note_on channel=0 note=103 velocity=25 time=0
note_off channel=0 note=72 velocity=28 time=15
note_on channel=0 note=72 velocity=28 time=0
note_off channel=0 note=103 velocity=25 time=0
note_on channel=0 note=103 velocity=25 time=0
note_off channel=0 note=72 velocity=28 time=15
note_on channel=0 note=72 velocity=28 time=0
note_off channel=0 note=103 velocity=25 time=0
note_on channel=0 note=103 velocity=25 time=0
note_off channel=0 note=72 velocity=28 time=15
note_on channel=0 note=72 velocity=28 time=0
note_off channel=0 note=103 velocity=25 time=0
note_on channel=0 note=103 velocity=25 time=0
note_off channel=0 note=72 velocity=28 time=15
note_on channel=0 note=72 velocity=28 time=0
note_off channel=0 note=103 velocity=25 time=0
note_on channel=0 note=103 velocity=25 time=0
note_on channel=0 note=71 velocity=11 time=15
note_off channel=0 note=72 velocity=28 time=0
note_off channel=0 note=103 velocity=25 time=0
note_on channel=0 note=103 velocity=25 time=0
note_off channel=0 note=71 velocity=11 time=15
note_on channel=0 note=72 velocity=28 time=0
note_off channel=0 note=103 velocity=25 time=0
note_on channel=0 note=103 velocity=25 time=0
note_on channel=0 note=71 velocity=11 time=15
note_off channel=0 note=72 velocity=28 time=0
note_off channel=0 note=103 velocity=25 time=0
note_on channel=0 note=103 velocity=25 time=0
note_off channel=0 note=71 velocity=11 time=15
note_on channel=0 note=72 velocity=28 time=0
note_off channel=0 note=103 velocity=25 time=0
note_on channel=0 note=103 velocity=25 time=0
note_off channel=0 note=72 velocity=28 time=15
note_on channel=0 note=72 velocity=28 time=0
note_off channel=0 note=103 velocity=25 time=0
note_on channel=0 note=103 velocity=25 time=0
note_off channel=0 note=72 velocity=28 time=15
note_on channel=0 note=72 velocity=28 time=0
note_off channel=0 note=103 velocity=25 time=0
note_on channel=0 note=103 velocity=25 time=0
note_off channel=0 note=72 velocity=28 time=15
note_on channel=0 note=72 velocity=28 time=0
note_off channel=0 note=103 velocity=25 time=0
note_on channel=0 note=103 velocity=25 time=0
note_off channel=0 note=72 velocity=28 time=15
note_on channel=0 note=72 velocity=28 time=0
note_off channel=0 note=103 velocity=25 time=0
note_on channel=0 note=103 velocity=25 time=0
note_off channel=0 note=72 velocity=28 time=15
note_on channel=0 note=72 velocity=28 time=0
note_off channel=0 note=103 velocity=25 time=0
note_on channel=0 note=103 velocity=25 time=0
note_off channel=0 note=72 velocity=28 time=15
note_on channel=0 note=72 velocity=28 time=0
note_off channel=0 note=103 velocity=25 time=0
note_on channel=0 note=103 velocity=25 time=0
note_on channel=0 note=71 velocity=11 time=15
note_off channel=0 note=72 velocity=28 time=0
note_off channel=0 note=103 velocity=25 time=0
note_on channel=0 note=103 velocity=25 time=0
note_off channel=0 note=71 velocity=11 time=15
note_on channel=0 note=72 velocity=28 time=0
note_off channel=0 note=103 velocity=25 time=0
note_on channel=0 note=103 velocity=25 time=0
note_off channel=0 note=72 velocity=28 time=15
note_on channel=0 note=72 velocity=28 time=0
note_off channel=0 note=103 velocity=25 time=0
note_on channel=0 note=103 velocity=25 time=0
note_off channel=0 note=72 velocity=28 time=15
note_on channel=0 note=72 velocity=28 time=0
note_off channel=0 note=103 velocity=25 time=0
note_on channel=0 note=103 velocity=25 time=0
note_off channel=0 note=72 velocity=28 time=15
note_on channel=0 note=72 velocity=28 time=0
note_off channel=0 note=103 velocity=25 time=0
note_on channel=0 note=103 velocity=25 time=0
note_off channel=0 note=72 velocity=28 time=15
note_on channel=0 note=72 velocity=28 time=0
note_off channel=0 note=103 velocity=25 time=0
note_on channel=0 note=103 velocity=25 time=0
note_on channel=0 note=71 velocity=11 time=15
note_off channel=0 note=72 velocity=28 time=0
note_off channel=0 note=103 velocity=25 time=0
note_on channel=0 note=103 velocity=25 time=0
note_off channel=0 note=71 velocity=11 time=15
note_on channel=0 note=72 velocity=28 time=0
note_off channel=0 note=103 velocity=25 time=0
note_on channel=0 note=103 velocity=25 time=0
note_off channel=0 note=72 velocity=28 time=15
note_on channel=0 note=72 velocity=28 time=0
note_off channel=0 note=103 velocity=25 time=0
note_on channel=0 note=103 velocity=25 time=0
note_off channel=0 note=72 velocity=28 time=15
note_on channel=0 note=72 velocity=28 time=0
note_off channel=0 note=103 velocity=25 time=0
note_on channel=0 note=103 velocity=25 time=0
note_off channel=0 note=72 velocity=28 time=15
note_on channel=0 note=72 velocity=28 time=0
note_off channel=0 note=103 velocity=25 time=0
note_on channel=0 note=103 velocity=25 time=0
note_off channel=0 note=72 velocity=28 time=15
note_on channel=0 note=72 velocity=28 time=0
note_off channel=0 note=103 velocity=25 time=0
note_on channel=0 note=103 velocity=25 time=0
note_off channel=0 note=72 velocity=28 time=15
note_on channel=0 note=72 velocity=28 time=0
note_off channel=0 note=103 velocity=25 time=0
note_on channel=0 note=103 velocity=25 time=0
note_on channel=0 note=71 velocity=11 time=15
note_off channel=0 note=72 velocity=28 time=0
note_off channel=0 note=103 velocity=25 time=0
note_on channel=0 note=103 velocity=25 time=0
note_off channel=0 note=71 velocity=11 time=15
note_on channel=0 note=72 velocity=28 time=0
note_off channel=0 note=103 velocity=25 time=0
note_on channel=0 note=103 velocity=25 time=0
note_off channel=0 note=72 velocity=28 time=15
note_on channel=0 note=72 velocity=28 time=0
note_off channel=0 note=103 velocity=25 time=0
note_on channel=0 note=103 velocity=25 time=0
note_on channel=0 note=71 velocity=11 time=15
note_off channel=0 note=72 velocity=28 time=0
note_off channel=0 note=103 velocity=25 time=0
note_on channel=0 note=103 velocity=25 time=0
note_off channel=0 note=71 velocity=11 time=15
note_on channel=0 note=72 velocity=28 time=0
note_off channel=0 note=103 velocity=25 time=0
note_on channel=0 note=103 velocity=25 time=0
note_off channel=0 note=72 velocity=28 time=15
note_off channel=0 note=103 velocity=25 time=0
